<svg width="352" height="339" viewBox="0 0 352 339" fill="none" xmlns="http://www.w3.org/2000/svg">
<path d="M3.356 14V6.458H0.854V5.342L3.356 5.252V4.514C3.356 3.446 3.638 2.588 4.202 1.94C4.778 1.292 5.672 0.967999 6.884 0.967999C7.748 0.967999 8.588 1.136 9.404 1.472L9.062 2.588C8.702 2.42 8.366 2.312 8.054 2.264C7.754 2.204 7.412 2.174 7.028 2.174C6.236 2.174 5.666 2.378 5.318 2.786C4.982 3.182 4.814 3.74 4.814 4.46V5.252H8.486V6.458H4.814V14H3.356ZM11.467 14V5.252H12.691L12.817 6.746H12.889C13.345 6.254 13.837 5.846 14.365 5.522C14.893 5.198 15.499 5.036 16.183 5.036C17.227 5.036 17.989 5.336 18.469 5.936C18.961 6.524 19.207 7.4 19.207 8.564V14H17.731V8.762C17.731 7.934 17.575 7.322 17.263 6.926C16.951 6.518 16.435 6.314 15.715 6.314C15.451 6.314 15.205 6.35 14.977 6.422C14.761 6.482 14.545 6.578 14.329 6.71C14.113 6.842 13.891 7.01 13.663 7.214C13.435 7.406 13.195 7.634 12.943 7.898V14H11.467ZM36.7069 18.032C35.4229 18.032 34.4269 17.822 33.7189 17.402C33.0229 16.982 32.6749 16.382 32.6749 15.602C32.6749 15.254 32.7949 14.912 33.0349 14.576C33.2869 14.24 33.6469 13.934 34.1149 13.658V13.586C33.8749 13.454 33.6649 13.274 33.4849 13.046C33.3049 12.818 33.2149 12.518 33.2149 12.146C33.2149 11.87 33.3049 11.588 33.4849 11.3C33.6649 11 33.9229 10.736 34.2589 10.508V10.436C33.9589 10.208 33.7009 9.908 33.4849 9.536C33.2809 9.152 33.1789 8.696 33.1789 8.168C33.1789 7.688 33.2689 7.256 33.4489 6.872C33.6409 6.488 33.8929 6.164 34.2049 5.9C34.5169 5.624 34.8769 5.414 35.2849 5.27C35.7049 5.114 36.1489 5.036 36.6169 5.036C37.0969 5.036 37.5289 5.108 37.9129 5.252H41.5309V6.458H39.2629C39.4669 6.662 39.6409 6.92 39.7849 7.232C39.9289 7.544 40.0009 7.874 40.0009 8.222C40.0009 8.69 39.9109 9.11 39.7309 9.482C39.5629 9.854 39.3229 10.172 39.0109 10.436C38.7109 10.688 38.3509 10.886 37.9309 11.03C37.5229 11.162 37.0849 11.228 36.6169 11.228C36.3889 11.228 36.1429 11.204 35.8789 11.156C35.6269 11.096 35.3809 11.012 35.1409 10.904C34.6849 11.192 34.4569 11.528 34.4569 11.912C34.4569 12.26 34.6129 12.518 34.9249 12.686C35.2489 12.842 35.6989 12.92 36.2749 12.92H38.2369C39.3649 12.92 40.1989 13.076 40.7389 13.388C41.2909 13.7 41.5669 14.228 41.5669 14.972C41.5669 15.38 41.4529 15.77 41.2249 16.142C40.9969 16.514 40.6729 16.838 40.2529 17.114C39.8329 17.39 39.3229 17.612 38.7229 17.78C38.1229 17.948 37.4509 18.032 36.7069 18.032ZM36.6169 10.238C37.1809 10.238 37.6549 10.052 38.0389 9.68C38.4349 9.308 38.6329 8.804 38.6329 8.168C38.6329 7.868 38.5789 7.592 38.4709 7.34C38.3629 7.088 38.2189 6.872 38.0389 6.692C37.8589 6.512 37.6429 6.374 37.3909 6.278C37.1509 6.17 36.8929 6.116 36.6169 6.116C36.3409 6.116 36.0769 6.17 35.8249 6.278C35.5849 6.374 35.3749 6.512 35.1949 6.692C35.0149 6.872 34.8709 7.088 34.7629 7.34C34.6549 7.592 34.6009 7.868 34.6009 8.168C34.6009 8.804 34.7989 9.308 35.1949 9.68C35.5909 10.052 36.0649 10.238 36.6169 10.238ZM36.8149 16.952C37.3189 16.952 37.7749 16.904 38.1829 16.808C38.5909 16.712 38.9389 16.58 39.2269 16.412C39.5149 16.256 39.7309 16.07 39.8749 15.854C40.0309 15.65 40.1089 15.434 40.1089 15.206C40.1089 14.786 39.9409 14.504 39.6049 14.36C39.2809 14.216 38.7829 14.144 38.1109 14.144H36.4009C36.1489 14.144 35.9089 14.132 35.6809 14.108C35.4649 14.096 35.2609 14.06 35.0689 14C34.6489 14.228 34.3549 14.462 34.1869 14.702C34.0309 14.954 33.9529 15.206 33.9529 15.458C33.9529 15.914 34.1929 16.274 34.6729 16.538C35.1649 16.814 35.8789 16.952 36.8149 16.952ZM49.9659 17.168C48.7179 16.196 47.7279 15.026 46.9959 13.658C46.2759 12.29 45.9159 10.736 45.9159 8.996C45.9159 7.256 46.2759 5.702 46.9959 4.334C47.7279 2.966 48.7179 1.796 49.9659 0.823999L50.7759 1.58C49.5639 2.6 48.6699 3.71 48.0939 4.91C47.5299 6.11 47.2479 7.472 47.2479 8.996C47.2479 10.52 47.5299 11.882 48.0939 13.082C48.6699 14.282 49.5639 15.392 50.7759 16.412L49.9659 17.168ZM58.5448 14.216C57.6808 14.216 56.8828 14.084 56.1508 13.82C55.4188 13.544 54.7828 13.22 54.2428 12.848L54.9268 11.876C55.4308 12.236 55.9828 12.524 56.5828 12.74C57.1948 12.956 57.9088 13.064 58.7248 13.064C59.4688 13.064 60.0208 12.932 60.3808 12.668C60.7528 12.392 60.9388 12.068 60.9388 11.696C60.9388 11.528 60.9088 11.372 60.8488 11.228C60.7888 11.084 60.6568 10.946 60.4528 10.814C60.2608 10.682 59.9848 10.556 59.6248 10.436C59.2648 10.316 58.7908 10.196 58.2028 10.076C57.0628 9.836 56.2048 9.518 55.6288 9.122C55.0648 8.714 54.7828 8.18 54.7828 7.52C54.7828 7.172 54.8608 6.848 55.0168 6.548C55.1728 6.236 55.4008 5.972 55.7008 5.756C56.0128 5.528 56.3908 5.354 56.8348 5.234C57.2908 5.102 57.8188 5.036 58.4188 5.036C59.0908 5.036 59.7388 5.15 60.3628 5.378C60.9868 5.594 61.5148 5.852 61.9468 6.152L61.2268 7.106C60.8188 6.83 60.3688 6.608 59.8768 6.44C59.3848 6.272 58.8568 6.188 58.2928 6.188C57.5488 6.188 57.0268 6.314 56.7268 6.566C56.4268 6.818 56.2768 7.112 56.2768 7.448C56.2768 7.832 56.4748 8.126 56.8708 8.33C57.2668 8.522 57.9148 8.714 58.8148 8.906C59.5468 9.062 60.1468 9.23 60.6148 9.41C61.0828 9.578 61.4488 9.77 61.7128 9.986C61.9888 10.202 62.1748 10.442 62.2708 10.706C62.3788 10.97 62.4328 11.27 62.4328 11.606C62.4328 11.966 62.3488 12.302 62.1808 12.614C62.0128 12.926 61.7608 13.202 61.4248 13.442C61.1008 13.682 60.6928 13.868 60.2008 14C59.7208 14.144 59.1688 14.216 58.5448 14.216ZM79.9508 7.772C79.5428 7.772 79.1948 7.634 78.9068 7.358C78.6308 7.082 78.4928 6.716 78.4928 6.26C78.4928 5.804 78.6308 5.438 78.9068 5.162C79.1948 4.874 79.5428 4.73 79.9508 4.73C80.3588 4.73 80.7008 4.874 80.9768 5.162C81.2648 5.438 81.4088 5.804 81.4088 6.26C81.4088 6.716 81.2648 7.082 80.9768 7.358C80.7008 7.634 80.3588 7.772 79.9508 7.772ZM79.9508 14.216C79.5428 14.216 79.1948 14.078 78.9068 13.802C78.6308 13.526 78.4928 13.16 78.4928 12.704C78.4928 12.248 78.6308 11.882 78.9068 11.606C79.1948 11.318 79.5428 11.174 79.9508 11.174C80.3588 11.174 80.7008 11.318 80.9768 11.606C81.2648 11.882 81.4088 12.248 81.4088 12.704C81.4088 13.16 81.2648 13.526 80.9768 13.802C80.7008 14.078 80.3588 14.216 79.9508 14.216ZM101.627 14.216C100.763 14.216 99.9647 14.06 99.2327 13.748C98.5127 13.436 97.8827 13.01 97.3427 12.47L98.2427 11.426C98.6867 11.87 99.2027 12.23 99.7907 12.506C100.379 12.77 101.015 12.902 101.699 12.902C102.515 12.902 103.145 12.728 103.589 12.38C104.045 12.032 104.273 11.582 104.273 11.03C104.273 10.718 104.219 10.454 104.111 10.238C104.003 10.022 103.853 9.836 103.661 9.68C103.469 9.524 103.241 9.386 102.977 9.266C102.725 9.146 102.449 9.02 102.149 8.888L100.457 8.15C100.157 8.03 99.8567 7.886 99.5567 7.718C99.2567 7.55 98.9807 7.346 98.7287 7.106C98.4887 6.866 98.2907 6.584 98.1347 6.26C97.9787 5.924 97.9007 5.54 97.9007 5.108C97.9007 4.664 97.9967 4.25 98.1887 3.866C98.3807 3.482 98.6447 3.152 98.9807 2.876C99.3287 2.588 99.7367 2.366 100.205 2.21C100.685 2.054 101.207 1.976 101.771 1.976C102.515 1.976 103.199 2.114 103.823 2.39C104.447 2.654 104.975 3.002 105.407 3.434L104.615 4.406C104.231 4.058 103.805 3.788 103.337 3.596C102.869 3.392 102.329 3.29 101.717 3.29C101.033 3.29 100.481 3.446 100.061 3.758C99.6407 4.058 99.4307 4.478 99.4307 5.018C99.4307 5.306 99.4907 5.552 99.6107 5.756C99.7427 5.948 99.9047 6.122 100.097 6.278C100.301 6.422 100.529 6.548 100.781 6.656C101.033 6.764 101.285 6.872 101.537 6.98L103.193 7.7C103.553 7.844 103.889 8.012 104.201 8.204C104.525 8.384 104.801 8.6 105.029 8.852C105.269 9.092 105.455 9.38 105.587 9.716C105.731 10.04 105.803 10.418 105.803 10.85C105.803 11.318 105.707 11.756 105.515 12.164C105.323 12.572 105.047 12.932 104.687 13.244C104.327 13.544 103.889 13.784 103.373 13.964C102.857 14.132 102.275 14.216 101.627 14.216ZM114.022 14.216C113.386 14.216 112.852 14.132 112.42 13.964C111.988 13.784 111.64 13.538 111.376 13.226C111.112 12.902 110.92 12.518 110.8 12.074C110.692 11.63 110.638 11.138 110.638 10.598V6.458H108.172V5.342L110.692 5.252L110.89 2.444H112.114V5.252H116.416V6.458H112.114V10.616C112.114 11.012 112.15 11.36 112.222 11.66C112.294 11.948 112.414 12.194 112.582 12.398C112.75 12.602 112.978 12.758 113.266 12.866C113.554 12.962 113.908 13.01 114.328 13.01C114.748 13.01 115.126 12.974 115.462 12.902C115.798 12.83 116.122 12.734 116.434 12.614L116.758 13.694C116.362 13.838 115.942 13.958 115.498 14.054C115.066 14.162 114.574 14.216 114.022 14.216ZM120.351 14V5.252H121.575L121.701 7.322H121.755C122.211 6.614 122.769 6.056 123.429 5.648C124.101 5.24 124.845 5.036 125.661 5.036C125.985 5.036 126.285 5.066 126.561 5.126C126.837 5.174 127.113 5.264 127.389 5.396L127.047 6.674C126.735 6.566 126.471 6.488 126.255 6.44C126.051 6.392 125.775 6.368 125.427 6.368C124.767 6.368 124.131 6.56 123.519 6.944C122.919 7.316 122.355 7.958 121.827 8.87V14H120.351ZM134.204 14V6.458H130.136V5.252H135.68V14H134.204ZM134.78 3.416C134.444 3.416 134.162 3.314 133.934 3.11C133.706 2.894 133.592 2.612 133.592 2.264C133.592 1.916 133.706 1.64 133.934 1.436C134.162 1.22 134.444 1.112 134.78 1.112C135.116 1.112 135.398 1.22 135.626 1.436C135.854 1.64 135.968 1.916 135.968 2.264C135.968 2.612 135.854 2.894 135.626 3.11C135.398 3.314 135.116 3.416 134.78 3.416ZM140.983 14V5.252H142.207L142.333 6.746H142.405C142.861 6.254 143.353 5.846 143.881 5.522C144.409 5.198 145.015 5.036 145.699 5.036C146.743 5.036 147.505 5.336 147.985 5.936C148.477 6.524 148.723 7.4 148.723 8.564V14H147.247V8.762C147.247 7.934 147.091 7.322 146.779 6.926C146.467 6.518 145.951 6.314 145.231 6.314C144.967 6.314 144.721 6.35 144.493 6.422C144.277 6.482 144.061 6.578 143.845 6.71C143.629 6.842 143.407 7.01 143.179 7.214C142.951 7.406 142.711 7.634 142.459 7.898V14H140.983ZM155.43 18.032C154.146 18.032 153.15 17.822 152.442 17.402C151.746 16.982 151.398 16.382 151.398 15.602C151.398 15.254 151.518 14.912 151.758 14.576C152.01 14.24 152.37 13.934 152.838 13.658V13.586C152.598 13.454 152.388 13.274 152.208 13.046C152.028 12.818 151.938 12.518 151.938 12.146C151.938 11.87 152.028 11.588 152.208 11.3C152.388 11 152.646 10.736 152.982 10.508V10.436C152.682 10.208 152.424 9.908 152.208 9.536C152.004 9.152 151.902 8.696 151.902 8.168C151.902 7.688 151.992 7.256 152.172 6.872C152.364 6.488 152.616 6.164 152.928 5.9C153.24 5.624 153.6 5.414 154.008 5.27C154.428 5.114 154.872 5.036 155.34 5.036C155.82 5.036 156.252 5.108 156.636 5.252H160.254V6.458H157.986C158.19 6.662 158.364 6.92 158.508 7.232C158.652 7.544 158.724 7.874 158.724 8.222C158.724 8.69 158.634 9.11 158.454 9.482C158.286 9.854 158.046 10.172 157.734 10.436C157.434 10.688 157.074 10.886 156.654 11.03C156.246 11.162 155.808 11.228 155.34 11.228C155.112 11.228 154.866 11.204 154.602 11.156C154.35 11.096 154.104 11.012 153.864 10.904C153.408 11.192 153.18 11.528 153.18 11.912C153.18 12.26 153.336 12.518 153.648 12.686C153.972 12.842 154.422 12.92 154.998 12.92H156.96C158.088 12.92 158.922 13.076 159.462 13.388C160.014 13.7 160.29 14.228 160.29 14.972C160.29 15.38 160.176 15.77 159.948 16.142C159.72 16.514 159.396 16.838 158.976 17.114C158.556 17.39 158.046 17.612 157.446 17.78C156.846 17.948 156.174 18.032 155.43 18.032ZM155.34 10.238C155.904 10.238 156.378 10.052 156.762 9.68C157.158 9.308 157.356 8.804 157.356 8.168C157.356 7.868 157.302 7.592 157.194 7.34C157.086 7.088 156.942 6.872 156.762 6.692C156.582 6.512 156.366 6.374 156.114 6.278C155.874 6.17 155.616 6.116 155.34 6.116C155.064 6.116 154.8 6.17 154.548 6.278C154.308 6.374 154.098 6.512 153.918 6.692C153.738 6.872 153.594 7.088 153.486 7.34C153.378 7.592 153.324 7.868 153.324 8.168C153.324 8.804 153.522 9.308 153.918 9.68C154.314 10.052 154.788 10.238 155.34 10.238ZM155.538 16.952C156.042 16.952 156.498 16.904 156.906 16.808C157.314 16.712 157.662 16.58 157.95 16.412C158.238 16.256 158.454 16.07 158.598 15.854C158.754 15.65 158.832 15.434 158.832 15.206C158.832 14.786 158.664 14.504 158.328 14.36C158.004 14.216 157.506 14.144 156.834 14.144H155.124C154.872 14.144 154.632 14.132 154.404 14.108C154.188 14.096 153.984 14.06 153.792 14C153.372 14.228 153.078 14.462 152.91 14.702C152.754 14.954 152.676 15.206 152.676 15.458C152.676 15.914 152.916 16.274 153.396 16.538C153.888 16.814 154.602 16.952 155.538 16.952ZM163.901 17.168L163.091 16.412C164.303 15.392 165.191 14.282 165.755 13.082C166.331 11.882 166.619 10.52 166.619 8.996C166.619 7.472 166.331 6.11 165.755 4.91C165.191 3.71 164.303 2.6 163.091 1.58L163.901 0.823999C165.149 1.796 166.133 2.966 166.853 4.334C167.585 5.702 167.951 7.256 167.951 8.996C167.951 10.736 167.585 12.29 166.853 13.658C166.133 15.026 165.149 16.196 163.901 17.168ZM190.418 16.736C189.854 16.736 189.362 16.694 188.942 16.61C188.522 16.538 188.174 16.412 187.898 16.232C187.622 16.052 187.418 15.806 187.286 15.494C187.154 15.194 187.088 14.81 187.088 14.342C187.088 14.018 187.094 13.712 187.106 13.424C187.13 13.124 187.148 12.836 187.16 12.56C187.184 12.284 187.202 12.008 187.214 11.732C187.238 11.456 187.25 11.168 187.25 10.868C187.25 10.688 187.214 10.52 187.142 10.364C187.07 10.196 186.938 10.046 186.746 9.914C186.554 9.782 186.284 9.674 185.936 9.59C185.6 9.506 185.168 9.464 184.64 9.464V8.528C185.168 8.528 185.6 8.486 185.936 8.402C186.284 8.318 186.554 8.21 186.746 8.078C186.938 7.946 187.07 7.802 187.142 7.646C187.214 7.478 187.25 7.304 187.25 7.124C187.25 6.548 187.22 5.984 187.16 5.432C187.112 4.868 187.088 4.274 187.088 3.65C187.088 3.182 187.154 2.798 187.286 2.498C187.418 2.186 187.622 1.94 187.898 1.76C188.174 1.58 188.522 1.454 188.942 1.382C189.362 1.298 189.854 1.256 190.418 1.256H191.516V2.102H190.58C190.124 2.102 189.746 2.132 189.446 2.192C189.158 2.252 188.93 2.348 188.762 2.48C188.606 2.612 188.498 2.786 188.438 3.002C188.378 3.206 188.348 3.452 188.348 3.74C188.348 4.256 188.366 4.79 188.402 5.342C188.438 5.882 188.456 6.434 188.456 6.998C188.456 7.586 188.336 8.036 188.096 8.348C187.868 8.648 187.442 8.852 186.818 8.96V9.032C187.442 9.14 187.868 9.35 188.096 9.662C188.336 9.962 188.456 10.406 188.456 10.994C188.456 11.606 188.438 12.164 188.402 12.668C188.366 13.172 188.348 13.7 188.348 14.252C188.348 14.54 188.378 14.786 188.438 14.99C188.498 15.206 188.606 15.38 188.762 15.512C188.93 15.644 189.158 15.74 189.446 15.8C189.746 15.86 190.124 15.89 190.58 15.89H191.516V16.736H190.418ZM22.2599 40.69V28.252H23.4839L23.6099 29.368H23.6639C24.0719 28.984 24.5399 28.666 25.0679 28.414C25.6079 28.162 26.1479 28.036 26.6879 28.036C27.2759 28.036 27.7919 28.144 28.2359 28.36C28.6919 28.564 29.0699 28.864 29.3699 29.26C29.6819 29.644 29.9159 30.112 30.0719 30.664C30.2279 31.204 30.3059 31.816 30.3059 32.5C30.3059 33.244 30.1979 33.91 29.9819 34.498C29.7659 35.074 29.4719 35.566 29.0999 35.974C28.7399 36.382 28.3199 36.694 27.8399 36.91C27.3599 37.114 26.8559 37.216 26.3279 37.216C25.9199 37.216 25.4759 37.12 24.9959 36.928C24.5279 36.724 24.1019 36.442 23.7179 36.082H23.6639L23.7359 37.738V40.69H22.2599ZM26.0759 35.974C26.8679 35.974 27.5159 35.668 28.0199 35.056C28.5239 34.444 28.7759 33.592 28.7759 32.5C28.7759 32.02 28.7279 31.582 28.6319 31.186C28.5359 30.79 28.3859 30.454 28.1819 30.178C27.9899 29.89 27.7379 29.668 27.4259 29.512C27.1139 29.356 26.7419 29.278 26.3099 29.278C25.9259 29.278 25.5119 29.386 25.0679 29.602C24.6359 29.806 24.1919 30.136 23.7359 30.592V34.948C24.1559 35.32 24.5759 35.584 24.9959 35.74C25.4159 35.896 25.7759 35.974 26.0759 35.974ZM34.0069 37V28.252H35.2309L35.3569 30.322H35.4109C35.8669 29.614 36.4249 29.056 37.0849 28.648C37.7569 28.24 38.5009 28.036 39.3169 28.036C39.6409 28.036 39.9409 28.066 40.2169 28.126C40.4929 28.174 40.7689 28.264 41.0449 28.396L40.7029 29.674C40.3909 29.566 40.1269 29.488 39.9109 29.44C39.7069 29.392 39.4309 29.368 39.0829 29.368C38.4229 29.368 37.7869 29.56 37.1749 29.944C36.5749 30.316 36.0109 30.958 35.4829 31.87V37H34.0069ZM47.8599 37V29.458H43.7919V28.252H49.3359V37H47.8599ZM48.4359 26.416C48.0999 26.416 47.8179 26.314 47.5899 26.11C47.3619 25.894 47.2479 25.612 47.2479 25.264C47.2479 24.916 47.3619 24.64 47.5899 24.436C47.8179 24.22 48.0999 24.112 48.4359 24.112C48.7719 24.112 49.0539 24.22 49.2819 24.436C49.5099 24.64 49.6239 24.916 49.6239 25.264C49.6239 25.612 49.5099 25.894 49.2819 26.11C49.0539 26.314 48.7719 26.416 48.4359 26.416ZM54.6388 37V28.252H55.8628L55.9888 29.746H56.0608C56.5168 29.254 57.0088 28.846 57.5368 28.522C58.0648 28.198 58.6708 28.036 59.3548 28.036C60.3988 28.036 61.1608 28.336 61.6408 28.936C62.1328 29.524 62.3788 30.4 62.3788 31.564V37H60.9028V31.762C60.9028 30.934 60.7468 30.322 60.4348 29.926C60.1228 29.518 59.6068 29.314 58.8868 29.314C58.6228 29.314 58.3768 29.35 58.1488 29.422C57.9328 29.482 57.7168 29.578 57.5008 29.71C57.2848 29.842 57.0628 30.01 56.8348 30.214C56.6068 30.406 56.3668 30.634 56.1148 30.898V37H54.6388ZM70.8498 37.216C70.2138 37.216 69.6798 37.132 69.2478 36.964C68.8158 36.784 68.4678 36.538 68.2038 36.226C67.9398 35.902 67.7478 35.518 67.6278 35.074C67.5198 34.63 67.4658 34.138 67.4658 33.598V29.458H64.9998V28.342L67.5198 28.252L67.7178 25.444H68.9418V28.252H73.2438V29.458H68.9418V33.616C68.9418 34.012 68.9778 34.36 69.0498 34.66C69.1218 34.948 69.2418 35.194 69.4098 35.398C69.5778 35.602 69.8058 35.758 70.0938 35.866C70.3818 35.962 70.7358 36.01 71.1558 36.01C71.5758 36.01 71.9538 35.974 72.2898 35.902C72.6258 35.83 72.9498 35.734 73.2618 35.614L73.5858 36.694C73.1898 36.838 72.7698 36.958 72.3258 37.054C71.8938 37.162 71.4018 37.216 70.8498 37.216ZM81.8768 37.216C80.9408 37.216 80.2268 36.952 79.7348 36.424C79.2428 35.896 78.9968 35.11 78.9968 34.066V25.39H75.8828V24.184H80.4728V34.174C80.4728 34.822 80.6288 35.29 80.9408 35.578C81.2528 35.854 81.6728 35.992 82.2008 35.992C82.7168 35.992 83.2628 35.86 83.8388 35.596L84.2168 36.694C83.8088 36.862 83.4368 36.988 83.1008 37.072C82.7648 37.168 82.3568 37.216 81.8768 37.216ZM87.0178 37V28.252H88.2418L88.3678 29.746H88.4398C88.8958 29.254 89.3878 28.846 89.9158 28.522C90.4438 28.198 91.0498 28.036 91.7338 28.036C92.7778 28.036 93.5398 28.336 94.0198 28.936C94.5118 29.524 94.7578 30.4 94.7578 31.564V37H93.2818V31.762C93.2818 30.934 93.1258 30.322 92.8138 29.926C92.5018 29.518 91.9858 29.314 91.2658 29.314C91.0018 29.314 90.7558 29.35 90.5278 29.422C90.3118 29.482 90.0958 29.578 89.8798 29.71C89.6638 29.842 89.4418 30.01 89.2138 30.214C88.9858 30.406 88.7458 30.634 88.4938 30.898V37H87.0178ZM101.033 32.824L100.853 26.632L100.817 24.94H102.257L102.221 26.632L102.041 32.824H101.033ZM101.537 37.216C101.177 37.216 100.865 37.09 100.601 36.838C100.349 36.586 100.223 36.244 100.223 35.812C100.223 35.392 100.349 35.062 100.601 34.822C100.865 34.57 101.177 34.444 101.537 34.444C101.897 34.444 102.203 34.57 102.455 34.822C102.719 35.062 102.851 35.392 102.851 35.812C102.851 36.244 102.719 36.586 102.455 36.838C102.203 37.09 101.897 37.216 101.537 37.216ZM114.724 40.168C113.476 39.196 112.486 38.026 111.754 36.658C111.034 35.29 110.674 33.736 110.674 31.996C110.674 30.256 111.034 28.702 111.754 27.334C112.486 25.966 113.476 24.796 114.724 23.824L115.534 24.58C114.322 25.6 113.428 26.71 112.852 27.91C112.288 29.11 112.006 30.472 112.006 31.996C112.006 33.52 112.288 34.882 112.852 36.082C113.428 37.282 114.322 38.392 115.534 39.412L114.724 40.168ZM120.567 30.664L120.117 26.614L120.081 24.634H122.061L122.025 26.614L121.575 30.664H120.567ZM124.689 30.664L124.239 26.614L124.203 24.634H126.183L126.147 26.614L125.697 30.664H124.689ZM132.692 30.394L132.134 32.194H135.662L135.104 30.394C134.9 29.734 134.696 29.08 134.492 28.432C134.3 27.772 134.114 27.1 133.934 26.416H133.862C133.67 27.1 133.478 27.772 133.286 28.432C133.094 29.08 132.896 29.734 132.692 30.394ZM129.092 37L133.07 25.192H134.762L138.74 37H137.156L136.04 33.4H131.756L130.622 37H129.092ZM144.709 30.772C144.301 30.772 143.953 30.634 143.665 30.358C143.389 30.082 143.251 29.716 143.251 29.26C143.251 28.804 143.389 28.438 143.665 28.162C143.953 27.874 144.301 27.73 144.709 27.73C145.117 27.73 145.459 27.874 145.735 28.162C146.023 28.438 146.167 28.804 146.167 29.26C146.167 29.716 146.023 30.082 145.735 30.358C145.459 30.634 145.117 30.772 144.709 30.772ZM144.709 37.216C144.301 37.216 143.953 37.078 143.665 36.802C143.389 36.526 143.251 36.16 143.251 35.704C143.251 35.248 143.389 34.882 143.665 34.606C143.953 34.318 144.301 34.174 144.709 34.174C145.117 34.174 145.459 34.318 145.735 34.606C146.023 34.882 146.167 35.248 146.167 35.704C146.167 36.16 146.023 36.526 145.735 36.802C145.459 37.078 145.117 37.216 144.709 37.216ZM168.833 39.736C168.269 39.736 167.777 39.694 167.357 39.61C166.937 39.538 166.589 39.412 166.313 39.232C166.037 39.052 165.833 38.806 165.701 38.494C165.569 38.194 165.503 37.81 165.503 37.342C165.503 37.018 165.509 36.712 165.521 36.424C165.545 36.124 165.563 35.836 165.575 35.56C165.599 35.284 165.617 35.008 165.629 34.732C165.653 34.456 165.665 34.168 165.665 33.868C165.665 33.688 165.629 33.52 165.557 33.364C165.485 33.196 165.353 33.046 165.161 32.914C164.969 32.782 164.699 32.674 164.351 32.59C164.015 32.506 163.583 32.464 163.055 32.464V31.528C163.583 31.528 164.015 31.486 164.351 31.402C164.699 31.318 164.969 31.21 165.161 31.078C165.353 30.946 165.485 30.802 165.557 30.646C165.629 30.478 165.665 30.304 165.665 30.124C165.665 29.548 165.635 28.984 165.575 28.432C165.527 27.868 165.503 27.274 165.503 26.65C165.503 26.182 165.569 25.798 165.701 25.498C165.833 25.186 166.037 24.94 166.313 24.76C166.589 24.58 166.937 24.454 167.357 24.382C167.777 24.298 168.269 24.256 168.833 24.256H169.931V25.102H168.995C168.539 25.102 168.161 25.132 167.861 25.192C167.573 25.252 167.345 25.348 167.177 25.48C167.021 25.612 166.913 25.786 166.853 26.002C166.793 26.206 166.763 26.452 166.763 26.74C166.763 27.256 166.781 27.79 166.817 28.342C166.853 28.882 166.871 29.434 166.871 29.998C166.871 30.586 166.751 31.036 166.511 31.348C166.283 31.648 165.857 31.852 165.233 31.96V32.032C165.857 32.14 166.283 32.35 166.511 32.662C166.751 32.962 166.871 33.406 166.871 33.994C166.871 34.606 166.853 35.164 166.817 35.668C166.781 36.172 166.763 36.7 166.763 37.252C166.763 37.54 166.793 37.786 166.853 37.99C166.913 38.206 167.021 38.38 167.177 38.512C167.345 38.644 167.573 38.74 167.861 38.8C168.161 38.86 168.539 38.89 168.995 38.89H169.931V39.736H168.833ZM173.47 39.736V38.89H174.388C174.844 38.89 175.216 38.86 175.504 38.8C175.804 38.74 176.038 38.644 176.206 38.512C176.374 38.38 176.488 38.206 176.548 37.99C176.608 37.786 176.638 37.54 176.638 37.252C176.638 36.7 176.62 36.172 176.584 35.668C176.548 35.164 176.53 34.606 176.53 33.994C176.53 33.406 176.644 32.962 176.872 32.662C177.1 32.35 177.526 32.14 178.15 32.032V31.96C177.526 31.852 177.1 31.648 176.872 31.348C176.644 31.036 176.53 30.586 176.53 29.998C176.53 29.434 176.548 28.882 176.584 28.342C176.62 27.79 176.638 27.256 176.638 26.74C176.638 26.452 176.608 26.206 176.548 26.002C176.488 25.786 176.374 25.612 176.206 25.48C176.038 25.348 175.804 25.252 175.504 25.192C175.216 25.132 174.844 25.102 174.388 25.102H173.47V24.256H174.568C175.132 24.256 175.618 24.298 176.026 24.382C176.446 24.454 176.794 24.58 177.07 24.76C177.346 24.94 177.55 25.186 177.682 25.498C177.814 25.798 177.88 26.182 177.88 26.65C177.88 27.274 177.85 27.868 177.79 28.432C177.742 28.984 177.718 29.548 177.718 30.124C177.718 30.304 177.754 30.478 177.826 30.646C177.898 30.802 178.03 30.946 178.222 31.078C178.414 31.21 178.678 31.318 179.014 31.402C179.362 31.486 179.8 31.528 180.328 31.528V32.464C179.8 32.464 179.362 32.506 179.014 32.59C178.678 32.674 178.414 32.782 178.222 32.914C178.03 33.046 177.898 33.196 177.826 33.364C177.754 33.52 177.718 33.688 177.718 33.868C177.718 34.168 177.724 34.456 177.736 34.732C177.76 35.008 177.778 35.284 177.79 35.56C177.814 35.836 177.832 36.124 177.844 36.424C177.868 36.712 177.88 37.018 177.88 37.342C177.88 37.81 177.814 38.194 177.682 38.494C177.55 38.806 177.346 39.052 177.07 39.232C176.794 39.412 176.446 39.538 176.026 39.61C175.618 39.694 175.132 39.736 174.568 39.736H173.47ZM185.324 30.664L184.874 26.614L184.838 24.634H186.818L186.782 26.614L186.332 30.664H185.324ZM189.446 30.664L188.996 26.614L188.96 24.634H190.94L190.904 26.614L190.454 30.664H189.446ZM197.233 40.834L196.819 39.898C197.563 39.562 198.121 39.154 198.493 38.674C198.865 38.206 199.063 37.612 199.087 36.892C199.027 36.916 198.967 36.928 198.907 36.928C198.859 36.928 198.805 36.928 198.745 36.928C198.361 36.928 198.031 36.82 197.755 36.604C197.479 36.376 197.341 36.034 197.341 35.578C197.341 35.134 197.485 34.798 197.773 34.57C198.061 34.33 198.397 34.21 198.781 34.21C199.321 34.21 199.723 34.42 199.987 34.84C200.263 35.248 200.401 35.806 200.401 36.514C200.401 37.57 200.119 38.458 199.555 39.178C199.003 39.91 198.229 40.462 197.233 40.834ZM220.439 37.216C219.575 37.216 218.777 37.084 218.045 36.82C217.313 36.544 216.677 36.22 216.137 35.848L216.821 34.876C217.325 35.236 217.877 35.524 218.477 35.74C219.089 35.956 219.803 36.064 220.619 36.064C221.363 36.064 221.915 35.932 222.275 35.668C222.647 35.392 222.833 35.068 222.833 34.696C222.833 34.528 222.803 34.372 222.743 34.228C222.683 34.084 222.551 33.946 222.347 33.814C222.155 33.682 221.879 33.556 221.519 33.436C221.159 33.316 220.685 33.196 220.097 33.076C218.957 32.836 218.099 32.518 217.523 32.122C216.959 31.714 216.677 31.18 216.677 30.52C216.677 30.172 216.755 29.848 216.911 29.548C217.067 29.236 217.295 28.972 217.595 28.756C217.907 28.528 218.285 28.354 218.729 28.234C219.185 28.102 219.713 28.036 220.313 28.036C220.985 28.036 221.633 28.15 222.257 28.378C222.881 28.594 223.409 28.852 223.841 29.152L223.121 30.106C222.713 29.83 222.263 29.608 221.771 29.44C221.279 29.272 220.751 29.188 220.187 29.188C219.443 29.188 218.921 29.314 218.621 29.566C218.321 29.818 218.171 30.112 218.171 30.448C218.171 30.832 218.369 31.126 218.765 31.33C219.161 31.522 219.809 31.714 220.709 31.906C221.441 32.062 222.041 32.23 222.509 32.41C222.977 32.578 223.343 32.77 223.607 32.986C223.883 33.202 224.069 33.442 224.165 33.706C224.273 33.97 224.327 34.27 224.327 34.606C224.327 34.966 224.243 35.302 224.075 35.614C223.907 35.926 223.655 36.202 223.319 36.442C222.995 36.682 222.587 36.868 222.095 37C221.615 37.144 221.063 37.216 220.439 37.216ZM228.658 40.168L227.848 39.412C229.06 38.392 229.948 37.282 230.512 36.082C231.088 34.882 231.376 33.52 231.376 31.996C231.376 30.472 231.088 29.11 230.512 27.91C229.948 26.71 229.06 25.6 227.848 24.58L228.658 23.824C229.906 24.796 230.89 25.966 231.61 27.334C232.342 28.702 232.708 30.256 232.708 31.996C232.708 33.736 232.342 35.29 231.61 36.658C230.89 38.026 229.906 39.196 228.658 40.168ZM241.845 30.772C241.437 30.772 241.089 30.634 240.801 30.358C240.525 30.082 240.387 29.716 240.387 29.26C240.387 28.804 240.525 28.438 240.801 28.162C241.089 27.874 241.437 27.73 241.845 27.73C242.253 27.73 242.595 27.874 242.871 28.162C243.159 28.438 243.303 28.804 243.303 29.26C243.303 29.716 243.159 30.082 242.871 30.358C242.595 30.634 242.253 30.772 241.845 30.772ZM240.405 40.834L239.991 39.898C240.735 39.562 241.293 39.154 241.665 38.674C242.037 38.206 242.235 37.612 242.259 36.892C242.199 36.916 242.139 36.928 242.079 36.928C242.031 36.928 241.977 36.928 241.917 36.928C241.533 36.928 241.203 36.82 240.927 36.604C240.651 36.376 240.513 36.034 240.513 35.578C240.513 35.134 240.657 34.798 240.945 34.57C241.233 34.33 241.569 34.21 241.953 34.21C242.493 34.21 242.895 34.42 243.159 34.84C243.435 35.248 243.573 35.806 243.573 36.514C243.573 37.57 243.291 38.458 242.727 39.178C242.175 39.91 241.401 40.462 240.405 40.834ZM0.782 62.736V61.89H1.7C2.156 61.89 2.528 61.86 2.816 61.8C3.116 61.74 3.35 61.644 3.518 61.512C3.686 61.38 3.8 61.206 3.86 60.99C3.92 60.786 3.95 60.54 3.95 60.252C3.95 59.7 3.932 59.172 3.896 58.668C3.86 58.164 3.842 57.606 3.842 56.994C3.842 56.406 3.956 55.962 4.184 55.662C4.412 55.35 4.838 55.14 5.462 55.032V54.96C4.838 54.852 4.412 54.648 4.184 54.348C3.956 54.036 3.842 53.586 3.842 52.998C3.842 52.434 3.86 51.882 3.896 51.342C3.932 50.79 3.95 50.256 3.95 49.74C3.95 49.452 3.92 49.206 3.86 49.002C3.8 48.786 3.686 48.612 3.518 48.48C3.35 48.348 3.116 48.252 2.816 48.192C2.528 48.132 2.156 48.102 1.7 48.102H0.782V47.256H1.88C2.444 47.256 2.93 47.298 3.338 47.382C3.758 47.454 4.106 47.58 4.382 47.76C4.658 47.94 4.862 48.186 4.994 48.498C5.126 48.798 5.192 49.182 5.192 49.65C5.192 50.274 5.162 50.868 5.102 51.432C5.054 51.984 5.03 52.548 5.03 53.124C5.03 53.304 5.066 53.478 5.138 53.646C5.21 53.802 5.342 53.946 5.534 54.078C5.726 54.21 5.99 54.318 6.326 54.402C6.674 54.486 7.112 54.528 7.64 54.528V55.464C7.112 55.464 6.674 55.506 6.326 55.59C5.99 55.674 5.726 55.782 5.534 55.914C5.342 56.046 5.21 56.196 5.138 56.364C5.066 56.52 5.03 56.688 5.03 56.868C5.03 57.168 5.036 57.456 5.048 57.732C5.072 58.008 5.09 58.284 5.102 58.56C5.126 58.836 5.144 59.124 5.156 59.424C5.18 59.712 5.192 60.018 5.192 60.342C5.192 60.81 5.126 61.194 4.994 61.494C4.862 61.806 4.658 62.052 4.382 62.232C4.106 62.412 3.758 62.538 3.338 62.61C2.93 62.694 2.444 62.736 1.88 62.736H0.782ZM3.356 106V98.458H0.854V97.342L3.356 97.252V96.514C3.356 95.446 3.638 94.588 4.202 93.94C4.778 93.292 5.672 92.968 6.884 92.968C7.748 92.968 8.588 93.136 9.404 93.472L9.062 94.588C8.702 94.42 8.366 94.312 8.054 94.264C7.754 94.204 7.412 94.174 7.028 94.174C6.236 94.174 5.666 94.378 5.318 94.786C4.982 95.182 4.814 95.74 4.814 96.46V97.252H8.486V98.458H4.814V106H3.356ZM11.467 106V97.252H12.691L12.817 98.746H12.889C13.345 98.254 13.837 97.846 14.365 97.522C14.893 97.198 15.499 97.036 16.183 97.036C17.227 97.036 17.989 97.336 18.469 97.936C18.961 98.524 19.207 99.4 19.207 100.564V106H17.731V100.762C17.731 99.934 17.575 99.322 17.263 98.926C16.951 98.518 16.435 98.314 15.715 98.314C15.451 98.314 15.205 98.35 14.977 98.422C14.761 98.482 14.545 98.578 14.329 98.71C14.113 98.842 13.891 99.01 13.663 99.214C13.435 99.406 13.195 99.634 12.943 99.898V106H11.467ZM35.7349 106V98.458H33.2329V97.342L35.7349 97.252V96.514C35.7349 95.446 36.0169 94.588 36.5809 93.94C37.1569 93.292 38.0509 92.968 39.2629 92.968C40.1269 92.968 40.9669 93.136 41.7829 93.472L41.4409 94.588C41.0809 94.42 40.7449 94.312 40.4329 94.264C40.1329 94.204 39.7909 94.174 39.4069 94.174C38.6149 94.174 38.0449 94.378 37.6969 94.786C37.3609 95.182 37.1929 95.74 37.1929 96.46V97.252H40.8649V98.458H37.1929V106H35.7349ZM49.9659 109.168C48.7179 108.196 47.7279 107.026 46.9959 105.658C46.2759 104.29 45.9159 102.736 45.9159 100.996C45.9159 99.256 46.2759 97.702 46.9959 96.334C47.7279 94.966 48.7179 93.796 49.9659 92.824L50.7759 93.58C49.5639 94.6 48.6699 95.71 48.0939 96.91C47.5299 98.11 47.2479 99.472 47.2479 100.996C47.2479 102.52 47.5299 103.882 48.0939 105.082C48.6699 106.282 49.5639 107.392 50.7759 108.412L49.9659 109.168ZM54.1168 106L57.4468 101.464L54.3688 97.252H56.0068L57.3928 99.178C57.5488 99.418 57.7108 99.664 57.8788 99.916C58.0588 100.168 58.2388 100.414 58.4188 100.654H58.4908C58.6588 100.414 58.8268 100.162 58.9948 99.898C59.1628 99.634 59.3248 99.382 59.4808 99.142L60.7948 97.252H62.3608L59.2468 101.59L62.5948 106H60.9748L59.4448 103.984C59.2648 103.732 59.0728 103.468 58.8688 103.192C58.6768 102.916 58.4848 102.652 58.2928 102.4H58.2208C58.0408 102.664 57.8608 102.928 57.6808 103.192C57.5008 103.444 57.3208 103.708 57.1408 103.984L55.7008 106H54.1168ZM79.9508 99.772C79.5428 99.772 79.1948 99.634 78.9068 99.358C78.6308 99.082 78.4928 98.716 78.4928 98.26C78.4928 97.804 78.6308 97.438 78.9068 97.162C79.1948 96.874 79.5428 96.73 79.9508 96.73C80.3588 96.73 80.7008 96.874 80.9768 97.162C81.2648 97.438 81.4088 97.804 81.4088 98.26C81.4088 98.716 81.2648 99.082 80.9768 99.358C80.7008 99.634 80.3588 99.772 79.9508 99.772ZM79.9508 106.216C79.5428 106.216 79.1948 106.078 78.9068 105.802C78.6308 105.526 78.4928 105.16 78.4928 104.704C78.4928 104.248 78.6308 103.882 78.9068 103.606C79.1948 103.318 79.5428 103.174 79.9508 103.174C80.3588 103.174 80.7008 103.318 80.9768 103.606C81.2648 103.882 81.4088 104.248 81.4088 104.704C81.4088 105.16 81.2648 105.526 80.9768 105.802C80.7008 106.078 80.3588 106.216 79.9508 106.216ZM101.627 106.216C100.763 106.216 99.9647 106.06 99.2327 105.748C98.5127 105.436 97.8827 105.01 97.3427 104.47L98.2427 103.426C98.6867 103.87 99.2027 104.23 99.7907 104.506C100.379 104.77 101.015 104.902 101.699 104.902C102.515 104.902 103.145 104.728 103.589 104.38C104.045 104.032 104.273 103.582 104.273 103.03C104.273 102.718 104.219 102.454 104.111 102.238C104.003 102.022 103.853 101.836 103.661 101.68C103.469 101.524 103.241 101.386 102.977 101.266C102.725 101.146 102.449 101.02 102.149 100.888L100.457 100.15C100.157 100.03 99.8567 99.886 99.5567 99.718C99.2567 99.55 98.9807 99.346 98.7287 99.106C98.4887 98.866 98.2907 98.584 98.1347 98.26C97.9787 97.924 97.9007 97.54 97.9007 97.108C97.9007 96.664 97.9967 96.25 98.1887 95.866C98.3807 95.482 98.6447 95.152 98.9807 94.876C99.3287 94.588 99.7367 94.366 100.205 94.21C100.685 94.054 101.207 93.976 101.771 93.976C102.515 93.976 103.199 94.114 103.823 94.39C104.447 94.654 104.975 95.002 105.407 95.434L104.615 96.406C104.231 96.058 103.805 95.788 103.337 95.596C102.869 95.392 102.329 95.29 101.717 95.29C101.033 95.29 100.481 95.446 100.061 95.758C99.6407 96.058 99.4307 96.478 99.4307 97.018C99.4307 97.306 99.4907 97.552 99.6107 97.756C99.7427 97.948 99.9047 98.122 100.097 98.278C100.301 98.422 100.529 98.548 100.781 98.656C101.033 98.764 101.285 98.872 101.537 98.98L103.193 99.7C103.553 99.844 103.889 100.012 104.201 100.204C104.525 100.384 104.801 100.6 105.029 100.852C105.269 101.092 105.455 101.38 105.587 101.716C105.731 102.04 105.803 102.418 105.803 102.85C105.803 103.318 105.707 103.756 105.515 104.164C105.323 104.572 105.047 104.932 104.687 105.244C104.327 105.544 103.889 105.784 103.373 105.964C102.857 106.132 102.275 106.216 101.627 106.216ZM114.022 106.216C113.386 106.216 112.852 106.132 112.42 105.964C111.988 105.784 111.64 105.538 111.376 105.226C111.112 104.902 110.92 104.518 110.8 104.074C110.692 103.63 110.638 103.138 110.638 102.598V98.458H108.172V97.342L110.692 97.252L110.89 94.444H112.114V97.252H116.416V98.458H112.114V102.616C112.114 103.012 112.15 103.36 112.222 103.66C112.294 103.948 112.414 104.194 112.582 104.398C112.75 104.602 112.978 104.758 113.266 104.866C113.554 104.962 113.908 105.01 114.328 105.01C114.748 105.01 115.126 104.974 115.462 104.902C115.798 104.83 116.122 104.734 116.434 104.614L116.758 105.694C116.362 105.838 115.942 105.958 115.498 106.054C115.066 106.162 114.574 106.216 114.022 106.216ZM120.351 106V97.252H121.575L121.701 99.322H121.755C122.211 98.614 122.769 98.056 123.429 97.648C124.101 97.24 124.845 97.036 125.661 97.036C125.985 97.036 126.285 97.066 126.561 97.126C126.837 97.174 127.113 97.264 127.389 97.396L127.047 98.674C126.735 98.566 126.471 98.488 126.255 98.44C126.051 98.392 125.775 98.368 125.427 98.368C124.767 98.368 124.131 98.56 123.519 98.944C122.919 99.316 122.355 99.958 121.827 100.87V106H120.351ZM134.204 106V98.458H130.136V97.252H135.68V106H134.204ZM134.78 95.416C134.444 95.416 134.162 95.314 133.934 95.11C133.706 94.894 133.592 94.612 133.592 94.264C133.592 93.916 133.706 93.64 133.934 93.436C134.162 93.22 134.444 93.112 134.78 93.112C135.116 93.112 135.398 93.22 135.626 93.436C135.854 93.64 135.968 93.916 135.968 94.264C135.968 94.612 135.854 94.894 135.626 95.11C135.398 95.314 135.116 95.416 134.78 95.416ZM140.983 106V97.252H142.207L142.333 98.746H142.405C142.861 98.254 143.353 97.846 143.881 97.522C144.409 97.198 145.015 97.036 145.699 97.036C146.743 97.036 147.505 97.336 147.985 97.936C148.477 98.524 148.723 99.4 148.723 100.564V106H147.247V100.762C147.247 99.934 147.091 99.322 146.779 98.926C146.467 98.518 145.951 98.314 145.231 98.314C144.967 98.314 144.721 98.35 144.493 98.422C144.277 98.482 144.061 98.578 143.845 98.71C143.629 98.842 143.407 99.01 143.179 99.214C142.951 99.406 142.711 99.634 142.459 99.898V106H140.983ZM155.43 110.032C154.146 110.032 153.15 109.822 152.442 109.402C151.746 108.982 151.398 108.382 151.398 107.602C151.398 107.254 151.518 106.912 151.758 106.576C152.01 106.24 152.37 105.934 152.838 105.658V105.586C152.598 105.454 152.388 105.274 152.208 105.046C152.028 104.818 151.938 104.518 151.938 104.146C151.938 103.87 152.028 103.588 152.208 103.3C152.388 103 152.646 102.736 152.982 102.508V102.436C152.682 102.208 152.424 101.908 152.208 101.536C152.004 101.152 151.902 100.696 151.902 100.168C151.902 99.688 151.992 99.256 152.172 98.872C152.364 98.488 152.616 98.164 152.928 97.9C153.24 97.624 153.6 97.414 154.008 97.27C154.428 97.114 154.872 97.036 155.34 97.036C155.82 97.036 156.252 97.108 156.636 97.252H160.254V98.458H157.986C158.19 98.662 158.364 98.92 158.508 99.232C158.652 99.544 158.724 99.874 158.724 100.222C158.724 100.69 158.634 101.11 158.454 101.482C158.286 101.854 158.046 102.172 157.734 102.436C157.434 102.688 157.074 102.886 156.654 103.03C156.246 103.162 155.808 103.228 155.34 103.228C155.112 103.228 154.866 103.204 154.602 103.156C154.35 103.096 154.104 103.012 153.864 102.904C153.408 103.192 153.18 103.528 153.18 103.912C153.18 104.26 153.336 104.518 153.648 104.686C153.972 104.842 154.422 104.92 154.998 104.92H156.96C158.088 104.92 158.922 105.076 159.462 105.388C160.014 105.7 160.29 106.228 160.29 106.972C160.29 107.38 160.176 107.77 159.948 108.142C159.72 108.514 159.396 108.838 158.976 109.114C158.556 109.39 158.046 109.612 157.446 109.78C156.846 109.948 156.174 110.032 155.43 110.032ZM155.34 102.238C155.904 102.238 156.378 102.052 156.762 101.68C157.158 101.308 157.356 100.804 157.356 100.168C157.356 99.868 157.302 99.592 157.194 99.34C157.086 99.088 156.942 98.872 156.762 98.692C156.582 98.512 156.366 98.374 156.114 98.278C155.874 98.17 155.616 98.116 155.34 98.116C155.064 98.116 154.8 98.17 154.548 98.278C154.308 98.374 154.098 98.512 153.918 98.692C153.738 98.872 153.594 99.088 153.486 99.34C153.378 99.592 153.324 99.868 153.324 100.168C153.324 100.804 153.522 101.308 153.918 101.68C154.314 102.052 154.788 102.238 155.34 102.238ZM155.538 108.952C156.042 108.952 156.498 108.904 156.906 108.808C157.314 108.712 157.662 108.58 157.95 108.412C158.238 108.256 158.454 108.07 158.598 107.854C158.754 107.65 158.832 107.434 158.832 107.206C158.832 106.786 158.664 106.504 158.328 106.36C158.004 106.216 157.506 106.144 156.834 106.144H155.124C154.872 106.144 154.632 106.132 154.404 106.108C154.188 106.096 153.984 106.06 153.792 106C153.372 106.228 153.078 106.462 152.91 106.702C152.754 106.954 152.676 107.206 152.676 107.458C152.676 107.914 152.916 108.274 153.396 108.538C153.888 108.814 154.602 108.952 155.538 108.952ZM163.901 109.168L163.091 108.412C164.303 107.392 165.191 106.282 165.755 105.082C166.331 103.882 166.619 102.52 166.619 100.996C166.619 99.472 166.331 98.11 165.755 96.91C165.191 95.71 164.303 94.6 163.091 93.58L163.901 92.824C165.149 93.796 166.133 94.966 166.853 96.334C167.585 97.702 167.951 99.256 167.951 100.996C167.951 102.736 167.585 104.29 166.853 105.658C166.133 107.026 165.149 108.196 163.901 109.168ZM190.418 108.736C189.854 108.736 189.362 108.694 188.942 108.61C188.522 108.538 188.174 108.412 187.898 108.232C187.622 108.052 187.418 107.806 187.286 107.494C187.154 107.194 187.088 106.81 187.088 106.342C187.088 106.018 187.094 105.712 187.106 105.424C187.13 105.124 187.148 104.836 187.16 104.56C187.184 104.284 187.202 104.008 187.214 103.732C187.238 103.456 187.25 103.168 187.25 102.868C187.25 102.688 187.214 102.52 187.142 102.364C187.07 102.196 186.938 102.046 186.746 101.914C186.554 101.782 186.284 101.674 185.936 101.59C185.6 101.506 185.168 101.464 184.64 101.464V100.528C185.168 100.528 185.6 100.486 185.936 100.402C186.284 100.318 186.554 100.21 186.746 100.078C186.938 99.946 187.07 99.802 187.142 99.646C187.214 99.478 187.25 99.304 187.25 99.124C187.25 98.548 187.22 97.984 187.16 97.432C187.112 96.868 187.088 96.274 187.088 95.65C187.088 95.182 187.154 94.798 187.286 94.498C187.418 94.186 187.622 93.94 187.898 93.76C188.174 93.58 188.522 93.454 188.942 93.382C189.362 93.298 189.854 93.256 190.418 93.256H191.516V94.102H190.58C190.124 94.102 189.746 94.132 189.446 94.192C189.158 94.252 188.93 94.348 188.762 94.48C188.606 94.612 188.498 94.786 188.438 95.002C188.378 95.206 188.348 95.452 188.348 95.74C188.348 96.256 188.366 96.79 188.402 97.342C188.438 97.882 188.456 98.434 188.456 98.998C188.456 99.586 188.336 100.036 188.096 100.348C187.868 100.648 187.442 100.852 186.818 100.96V101.032C187.442 101.14 187.868 101.35 188.096 101.662C188.336 101.962 188.456 102.406 188.456 102.994C188.456 103.606 188.438 104.164 188.402 104.668C188.366 105.172 188.348 105.7 188.348 106.252C188.348 106.54 188.378 106.786 188.438 106.99C188.498 107.206 188.606 107.38 188.762 107.512C188.93 107.644 189.158 107.74 189.446 107.8C189.746 107.86 190.124 107.89 190.58 107.89H191.516V108.736H190.418ZM25.9139 133.032C24.6299 133.032 23.6339 132.822 22.9259 132.402C22.2299 131.982 21.8819 131.382 21.8819 130.602C21.8819 130.254 22.0019 129.912 22.2419 129.576C22.4939 129.24 22.8539 128.934 23.3219 128.658V128.586C23.0819 128.454 22.8719 128.274 22.6919 128.046C22.5119 127.818 22.4219 127.518 22.4219 127.146C22.4219 126.87 22.5119 126.588 22.6919 126.3C22.8719 126 23.1299 125.736 23.4659 125.508V125.436C23.1659 125.208 22.9079 124.908 22.6919 124.536C22.4879 124.152 22.3859 123.696 22.3859 123.168C22.3859 122.688 22.4759 122.256 22.6559 121.872C22.8479 121.488 23.0999 121.164 23.4119 120.9C23.7239 120.624 24.0839 120.414 24.4919 120.27C24.9119 120.114 25.3559 120.036 25.8239 120.036C26.3039 120.036 26.7359 120.108 27.1199 120.252H30.7379V121.458H28.4699C28.6739 121.662 28.8479 121.92 28.9919 122.232C29.1359 122.544 29.2079 122.874 29.2079 123.222C29.2079 123.69 29.1179 124.11 28.9379 124.482C28.7699 124.854 28.5299 125.172 28.2179 125.436C27.9179 125.688 27.5579 125.886 27.1379 126.03C26.7299 126.162 26.2919 126.228 25.8239 126.228C25.5959 126.228 25.3499 126.204 25.0859 126.156C24.8339 126.096 24.5879 126.012 24.3479 125.904C23.8919 126.192 23.6639 126.528 23.6639 126.912C23.6639 127.26 23.8199 127.518 24.1319 127.686C24.4559 127.842 24.9059 127.92 25.4819 127.92H27.4439C28.5719 127.92 29.4059 128.076 29.9459 128.388C30.4979 128.7 30.7739 129.228 30.7739 129.972C30.7739 130.38 30.6599 130.77 30.4319 131.142C30.2039 131.514 29.8799 131.838 29.4599 132.114C29.0399 132.39 28.5299 132.612 27.9299 132.78C27.3299 132.948 26.6579 133.032 25.9139 133.032ZM25.8239 125.238C26.3879 125.238 26.8619 125.052 27.2459 124.68C27.6419 124.308 27.8399 123.804 27.8399 123.168C27.8399 122.868 27.7859 122.592 27.6779 122.34C27.5699 122.088 27.4259 121.872 27.2459 121.692C27.0659 121.512 26.8499 121.374 26.5979 121.278C26.3579 121.17 26.0999 121.116 25.8239 121.116C25.5479 121.116 25.2839 121.17 25.0319 121.278C24.7919 121.374 24.5819 121.512 24.4019 121.692C24.2219 121.872 24.0779 122.088 23.9699 122.34C23.8619 122.592 23.8079 122.868 23.8079 123.168C23.8079 123.804 24.0059 124.308 24.4019 124.68C24.7979 125.052 25.2719 125.238 25.8239 125.238ZM26.0219 131.952C26.5259 131.952 26.9819 131.904 27.3899 131.808C27.7979 131.712 28.1459 131.58 28.4339 131.412C28.7219 131.256 28.9379 131.07 29.0819 130.854C29.2379 130.65 29.3159 130.434 29.3159 130.206C29.3159 129.786 29.1479 129.504 28.8119 129.36C28.4879 129.216 27.9899 129.144 27.3179 129.144H25.6079C25.3559 129.144 25.1159 129.132 24.8879 129.108C24.6719 129.096 24.4679 129.06 24.2759 129C23.8559 129.228 23.5619 129.462 23.3939 129.702C23.2379 129.954 23.1599 130.206 23.1599 130.458C23.1599 130.914 23.3999 131.274 23.8799 131.538C24.3719 131.814 25.0859 131.952 26.0219 131.952ZM39.1729 132.168C37.9249 131.196 36.9349 130.026 36.2029 128.658C35.4829 127.29 35.1229 125.736 35.1229 123.996C35.1229 122.256 35.4829 120.702 36.2029 119.334C36.9349 117.966 37.9249 116.796 39.1729 115.824L39.9829 116.58C38.7709 117.6 37.8769 118.71 37.3009 119.91C36.7369 121.11 36.4549 122.472 36.4549 123.996C36.4549 125.52 36.7369 126.882 37.3009 128.082C37.8769 129.282 38.7709 130.392 39.9829 131.412L39.1729 132.168ZM43.3239 129L46.6539 124.464L43.5759 120.252H45.2139L46.5999 122.178C46.7559 122.418 46.9179 122.664 47.0859 122.916C47.2659 123.168 47.4459 123.414 47.6259 123.654H47.6979C47.8659 123.414 48.0339 123.162 48.2019 122.898C48.3699 122.634 48.5319 122.382 48.6879 122.142L50.0019 120.252H51.5679L48.4539 124.59L51.8019 129H50.1819L48.6519 126.984C48.4719 126.732 48.2799 126.468 48.0759 126.192C47.8839 125.916 47.6919 125.652 47.4999 125.4H47.4279C47.2479 125.664 47.0679 125.928 46.8879 126.192C46.7079 126.444 46.5279 126.708 46.3479 126.984L44.9079 129H43.3239ZM55.9708 132.168L55.1608 131.412C56.3728 130.392 57.2608 129.282 57.8248 128.082C58.4008 126.882 58.6888 125.52 58.6888 123.996C58.6888 122.472 58.4008 121.11 57.8248 119.91C57.2608 118.71 56.3728 117.6 55.1608 116.58L55.9708 115.824C57.2188 116.796 58.2028 117.966 58.9228 119.334C59.6548 120.702 60.0208 122.256 60.0208 123.996C60.0208 125.736 59.6548 127.29 58.9228 128.658C58.2028 130.026 57.2188 131.196 55.9708 132.168ZM69.1578 122.772C68.7498 122.772 68.4018 122.634 68.1138 122.358C67.8378 122.082 67.6998 121.716 67.6998 121.26C67.6998 120.804 67.8378 120.438 68.1138 120.162C68.4018 119.874 68.7498 119.73 69.1578 119.73C69.5658 119.73 69.9078 119.874 70.1838 120.162C70.4718 120.438 70.6158 120.804 70.6158 121.26C70.6158 121.716 70.4718 122.082 70.1838 122.358C69.9078 122.634 69.5658 122.772 69.1578 122.772ZM67.7178 132.834L67.3038 131.898C68.0478 131.562 68.6058 131.154 68.9778 130.674C69.3498 130.206 69.5478 129.612 69.5718 128.892C69.5118 128.916 69.4518 128.928 69.3918 128.928C69.3438 128.928 69.2898 128.928 69.2298 128.928C68.8458 128.928 68.5158 128.82 68.2398 128.604C67.9638 128.376 67.8258 128.034 67.8258 127.578C67.8258 127.134 67.9698 126.798 68.2578 126.57C68.5458 126.33 68.8818 126.21 69.2658 126.21C69.8058 126.21 70.2078 126.42 70.4718 126.84C70.7478 127.248 70.8858 127.806 70.8858 128.514C70.8858 129.57 70.6038 130.458 70.0398 131.178C69.4878 131.91 68.7138 132.462 67.7178 132.834ZM22.2599 155.69V143.252H23.4839L23.6099 144.368H23.6639C24.0719 143.984 24.5399 143.666 25.0679 143.414C25.6079 143.162 26.1479 143.036 26.6879 143.036C27.2759 143.036 27.7919 143.144 28.2359 143.36C28.6919 143.564 29.0699 143.864 29.3699 144.26C29.6819 144.644 29.9159 145.112 30.0719 145.664C30.2279 146.204 30.3059 146.816 30.3059 147.5C30.3059 148.244 30.1979 148.91 29.9819 149.498C29.7659 150.074 29.4719 150.566 29.0999 150.974C28.7399 151.382 28.3199 151.694 27.8399 151.91C27.3599 152.114 26.8559 152.216 26.3279 152.216C25.9199 152.216 25.4759 152.12 24.9959 151.928C24.5279 151.724 24.1019 151.442 23.7179 151.082H23.6639L23.7359 152.738V155.69H22.2599ZM26.0759 150.974C26.8679 150.974 27.5159 150.668 28.0199 150.056C28.5239 149.444 28.7759 148.592 28.7759 147.5C28.7759 147.02 28.7279 146.582 28.6319 146.186C28.5359 145.79 28.3859 145.454 28.1819 145.178C27.9899 144.89 27.7379 144.668 27.4259 144.512C27.1139 144.356 26.7419 144.278 26.3099 144.278C25.9259 144.278 25.5119 144.386 25.0679 144.602C24.6359 144.806 24.1919 145.136 23.7359 145.592V149.948C24.1559 150.32 24.5759 150.584 24.9959 150.74C25.4159 150.896 25.7759 150.974 26.0759 150.974ZM34.0069 152V143.252H35.2309L35.3569 145.322H35.4109C35.8669 144.614 36.4249 144.056 37.0849 143.648C37.7569 143.24 38.5009 143.036 39.3169 143.036C39.6409 143.036 39.9409 143.066 40.2169 143.126C40.4929 143.174 40.7689 143.264 41.0449 143.396L40.7029 144.674C40.3909 144.566 40.1269 144.488 39.9109 144.44C39.7069 144.392 39.4309 144.368 39.0829 144.368C38.4229 144.368 37.7869 144.56 37.1749 144.944C36.5749 145.316 36.0109 145.958 35.4829 146.87V152H34.0069ZM47.8599 152V144.458H43.7919V143.252H49.3359V152H47.8599ZM48.4359 141.416C48.0999 141.416 47.8179 141.314 47.5899 141.11C47.3619 140.894 47.2479 140.612 47.2479 140.264C47.2479 139.916 47.3619 139.64 47.5899 139.436C47.8179 139.22 48.0999 139.112 48.4359 139.112C48.7719 139.112 49.0539 139.22 49.2819 139.436C49.5099 139.64 49.6239 139.916 49.6239 140.264C49.6239 140.612 49.5099 140.894 49.2819 141.11C49.0539 141.314 48.7719 141.416 48.4359 141.416ZM54.6388 152V143.252H55.8628L55.9888 144.746H56.0608C56.5168 144.254 57.0088 143.846 57.5368 143.522C58.0648 143.198 58.6708 143.036 59.3548 143.036C60.3988 143.036 61.1608 143.336 61.6408 143.936C62.1328 144.524 62.3788 145.4 62.3788 146.564V152H60.9028V146.762C60.9028 145.934 60.7468 145.322 60.4348 144.926C60.1228 144.518 59.6068 144.314 58.8868 144.314C58.6228 144.314 58.3768 144.35 58.1488 144.422C57.9328 144.482 57.7168 144.578 57.5008 144.71C57.2848 144.842 57.0628 145.01 56.8348 145.214C56.6068 145.406 56.3668 145.634 56.1148 145.898V152H54.6388ZM70.8498 152.216C70.2138 152.216 69.6798 152.132 69.2478 151.964C68.8158 151.784 68.4678 151.538 68.2038 151.226C67.9398 150.902 67.7478 150.518 67.6278 150.074C67.5198 149.63 67.4658 149.138 67.4658 148.598V144.458H64.9998V143.342L67.5198 143.252L67.7178 140.444H68.9418V143.252H73.2438V144.458H68.9418V148.616C68.9418 149.012 68.9778 149.36 69.0498 149.66C69.1218 149.948 69.2418 150.194 69.4098 150.398C69.5778 150.602 69.8058 150.758 70.0938 150.866C70.3818 150.962 70.7358 151.01 71.1558 151.01C71.5758 151.01 71.9538 150.974 72.2898 150.902C72.6258 150.83 72.9498 150.734 73.2618 150.614L73.5858 151.694C73.1898 151.838 72.7698 151.958 72.3258 152.054C71.8938 152.162 71.4018 152.216 70.8498 152.216ZM81.8768 152.216C80.9408 152.216 80.2268 151.952 79.7348 151.424C79.2428 150.896 78.9968 150.11 78.9968 149.066V140.39H75.8828V139.184H80.4728V149.174C80.4728 149.822 80.6288 150.29 80.9408 150.578C81.2528 150.854 81.6728 150.992 82.2008 150.992C82.7168 150.992 83.2628 150.86 83.8388 150.596L84.2168 151.694C83.8088 151.862 83.4368 151.988 83.1008 152.072C82.7648 152.168 82.3568 152.216 81.8768 152.216ZM87.0178 152V143.252H88.2418L88.3678 144.746H88.4398C88.8958 144.254 89.3878 143.846 89.9158 143.522C90.4438 143.198 91.0498 143.036 91.7338 143.036C92.7778 143.036 93.5398 143.336 94.0198 143.936C94.5118 144.524 94.7578 145.4 94.7578 146.564V152H93.2818V146.762C93.2818 145.934 93.1258 145.322 92.8138 144.926C92.5018 144.518 91.9858 144.314 91.2658 144.314C91.0018 144.314 90.7558 144.35 90.5278 144.422C90.3118 144.482 90.0958 144.578 89.8798 144.71C89.6638 144.842 89.4418 145.01 89.2138 145.214C88.9858 145.406 88.7458 145.634 88.4938 145.898V152H87.0178ZM101.033 147.824L100.853 141.632L100.817 139.94H102.257L102.221 141.632L102.041 147.824H101.033ZM101.537 152.216C101.177 152.216 100.865 152.09 100.601 151.838C100.349 151.586 100.223 151.244 100.223 150.812C100.223 150.392 100.349 150.062 100.601 149.822C100.865 149.57 101.177 149.444 101.537 149.444C101.897 149.444 102.203 149.57 102.455 149.822C102.719 150.062 102.851 150.392 102.851 150.812C102.851 151.244 102.719 151.586 102.455 151.838C102.203 152.09 101.897 152.216 101.537 152.216ZM114.724 155.168C113.476 154.196 112.486 153.026 111.754 151.658C111.034 150.29 110.674 148.736 110.674 146.996C110.674 145.256 111.034 143.702 111.754 142.334C112.486 140.966 113.476 139.796 114.724 138.824L115.534 139.58C114.322 140.6 113.428 141.71 112.852 142.91C112.288 144.11 112.006 145.472 112.006 146.996C112.006 148.52 112.288 149.882 112.852 151.082C113.428 152.282 114.322 153.392 115.534 154.412L114.724 155.168ZM120.567 145.664L120.117 141.614L120.081 139.634H122.061L122.025 141.614L121.575 145.664H120.567ZM124.689 145.664L124.239 141.614L124.203 139.634H126.183L126.147 141.614L125.697 145.664H124.689ZM130.298 152V140.192H133.646C134.246 140.192 134.792 140.246 135.284 140.354C135.788 140.462 136.214 140.63 136.562 140.858C136.922 141.086 137.198 141.386 137.39 141.758C137.594 142.118 137.696 142.556 137.696 143.072C137.696 143.66 137.528 144.194 137.192 144.674C136.856 145.142 136.334 145.466 135.626 145.646V145.718C136.49 145.85 137.162 146.15 137.642 146.618C138.122 147.086 138.362 147.728 138.362 148.544C138.362 149.12 138.254 149.624 138.038 150.056C137.822 150.488 137.516 150.848 137.12 151.136C136.736 151.424 136.268 151.64 135.716 151.784C135.176 151.928 134.576 152 133.916 152H130.298ZM131.792 145.16H133.394C134.402 145.16 135.122 144.998 135.554 144.674C135.998 144.35 136.22 143.858 136.22 143.198C136.22 142.55 135.986 142.1 135.518 141.848C135.062 141.584 134.378 141.452 133.466 141.452H131.792V145.16ZM131.792 150.74H133.7C134.72 150.74 135.506 150.566 136.058 150.218C136.61 149.858 136.886 149.276 136.886 148.472C136.886 147.74 136.616 147.218 136.076 146.906C135.536 146.582 134.744 146.42 133.7 146.42H131.792V150.74ZM142.153 145.664L141.703 141.614L141.667 139.634H143.647L143.611 141.614L143.161 145.664H142.153ZM146.275 145.664L145.825 141.614L145.789 139.634H147.769L147.733 141.614L147.283 145.664H146.275ZM153.108 155.168L152.298 154.412C153.51 153.392 154.398 152.282 154.962 151.082C155.538 149.882 155.826 148.52 155.826 146.996C155.826 145.472 155.538 144.11 154.962 142.91C154.398 141.71 153.51 140.6 152.298 139.58L153.108 138.824C154.356 139.796 155.34 140.966 156.06 142.334C156.792 143.702 157.158 145.256 157.158 146.996C157.158 148.736 156.792 150.29 156.06 151.658C155.34 153.026 154.356 154.196 153.108 155.168ZM166.295 145.772C165.887 145.772 165.539 145.634 165.251 145.358C164.975 145.082 164.837 144.716 164.837 144.26C164.837 143.804 164.975 143.438 165.251 143.162C165.539 142.874 165.887 142.73 166.295 142.73C166.703 142.73 167.045 142.874 167.321 143.162C167.609 143.438 167.753 143.804 167.753 144.26C167.753 144.716 167.609 145.082 167.321 145.358C167.045 145.634 166.703 145.772 166.295 145.772ZM164.855 155.834L164.441 154.898C165.185 154.562 165.743 154.154 166.115 153.674C166.487 153.206 166.685 152.612 166.709 151.892C166.649 151.916 166.589 151.928 166.529 151.928C166.481 151.928 166.427 151.928 166.367 151.928C165.983 151.928 165.653 151.82 165.377 151.604C165.101 151.376 164.963 151.034 164.963 150.578C164.963 150.134 165.107 149.798 165.395 149.57C165.683 149.33 166.019 149.21 166.403 149.21C166.943 149.21 167.345 149.42 167.609 149.84C167.885 150.248 168.023 150.806 168.023 151.514C168.023 152.57 167.741 153.458 167.177 154.178C166.625 154.91 165.851 155.462 164.855 155.834ZM0.782 177.736V176.89H1.7C2.156 176.89 2.528 176.86 2.816 176.8C3.116 176.74 3.35 176.644 3.518 176.512C3.686 176.38 3.8 176.206 3.86 175.99C3.92 175.786 3.95 175.54 3.95 175.252C3.95 174.7 3.932 174.172 3.896 173.668C3.86 173.164 3.842 172.606 3.842 171.994C3.842 171.406 3.956 170.962 4.184 170.662C4.412 170.35 4.838 170.14 5.462 170.032V169.96C4.838 169.852 4.412 169.648 4.184 169.348C3.956 169.036 3.842 168.586 3.842 167.998C3.842 167.434 3.86 166.882 3.896 166.342C3.932 165.79 3.95 165.256 3.95 164.74C3.95 164.452 3.92 164.206 3.86 164.002C3.8 163.786 3.686 163.612 3.518 163.48C3.35 163.348 3.116 163.252 2.816 163.192C2.528 163.132 2.156 163.102 1.7 163.102H0.782V162.256H1.88C2.444 162.256 2.93 162.298 3.338 162.382C3.758 162.454 4.106 162.58 4.382 162.76C4.658 162.94 4.862 163.186 4.994 163.498C5.126 163.798 5.192 164.182 5.192 164.65C5.192 165.274 5.162 165.868 5.102 166.432C5.054 166.984 5.03 167.548 5.03 168.124C5.03 168.304 5.066 168.478 5.138 168.646C5.21 168.802 5.342 168.946 5.534 169.078C5.726 169.21 5.99 169.318 6.326 169.402C6.674 169.486 7.112 169.528 7.64 169.528V170.464C7.112 170.464 6.674 170.506 6.326 170.59C5.99 170.674 5.726 170.782 5.534 170.914C5.342 171.046 5.21 171.196 5.138 171.364C5.066 171.52 5.03 171.688 5.03 171.868C5.03 172.168 5.036 172.456 5.048 172.732C5.072 173.008 5.09 173.284 5.102 173.56C5.126 173.836 5.144 174.124 5.156 174.424C5.18 174.712 5.192 175.018 5.192 175.342C5.192 175.81 5.126 176.194 4.994 176.494C4.862 176.806 4.658 177.052 4.382 177.232C4.106 177.412 3.758 177.538 3.338 177.61C2.93 177.694 2.444 177.736 1.88 177.736H0.782ZM3.356 244V236.458H0.854V235.342L3.356 235.252V234.514C3.356 233.446 3.638 232.588 4.202 231.94C4.778 231.292 5.672 230.968 6.884 230.968C7.748 230.968 8.588 231.136 9.404 231.472L9.062 232.588C8.702 232.42 8.366 232.312 8.054 232.264C7.754 232.204 7.412 232.174 7.028 232.174C6.236 232.174 5.666 232.378 5.318 232.786C4.982 233.182 4.814 233.74 4.814 234.46V235.252H8.486V236.458H4.814V244H3.356ZM11.467 244V235.252H12.691L12.817 236.746H12.889C13.345 236.254 13.837 235.846 14.365 235.522C14.893 235.198 15.499 235.036 16.183 235.036C17.227 235.036 17.989 235.336 18.469 235.936C18.961 236.524 19.207 237.4 19.207 238.564V244H17.731V238.762C17.731 237.934 17.575 237.322 17.263 236.926C16.951 236.518 16.435 236.314 15.715 236.314C15.451 236.314 15.205 236.35 14.977 236.422C14.761 236.482 14.545 236.578 14.329 236.71C14.113 236.842 13.891 237.01 13.663 237.214C13.435 237.406 13.195 237.634 12.943 237.898V244H11.467ZM32.4229 244V235.252H33.6109L33.7369 236.404H33.7729C34.0009 235.996 34.2649 235.666 34.5649 235.414C34.8649 235.162 35.2669 235.036 35.7709 235.036C36.6229 235.036 37.1749 235.54 37.4269 236.548C37.6789 236.08 37.9549 235.714 38.2549 235.45C38.5669 235.174 38.9749 235.036 39.4789 235.036C40.0909 235.036 40.5649 235.27 40.9009 235.738C41.2489 236.194 41.4229 236.86 41.4229 237.736V244H39.9469V237.844C39.9469 236.824 39.6349 236.314 39.0109 236.314C38.6989 236.314 38.4469 236.428 38.2549 236.656C38.0629 236.872 37.8469 237.208 37.6069 237.664V244H36.2389V237.844C36.2389 237.34 36.1669 236.962 36.0229 236.71C35.8909 236.446 35.6629 236.314 35.3389 236.314C35.0269 236.314 34.7629 236.428 34.5469 236.656C34.3309 236.872 34.1149 237.208 33.8989 237.664V244H32.4229ZM46.5999 244.216C46.1919 244.216 45.8079 244.156 45.4479 244.036C45.0879 243.928 44.7699 243.772 44.4939 243.568C44.2299 243.352 44.0199 243.094 43.8639 242.794C43.7079 242.482 43.6299 242.128 43.6299 241.732C43.6299 241.24 43.7439 240.814 43.9719 240.454C44.2119 240.082 44.5839 239.764 45.0879 239.5C45.6039 239.236 46.2639 239.02 47.0679 238.852C47.8719 238.684 48.8379 238.552 49.9659 238.456C49.9539 238.156 49.9059 237.874 49.8219 237.61C49.7379 237.346 49.6059 237.118 49.4259 236.926C49.2459 236.722 49.0059 236.56 48.7059 236.44C48.4179 236.32 48.0639 236.26 47.6439 236.26C47.0679 236.26 46.5159 236.374 45.9879 236.602C45.4599 236.818 44.9919 237.052 44.5839 237.304L44.0079 236.296C44.2239 236.152 44.4759 236.008 44.7639 235.864C45.0639 235.708 45.3759 235.57 45.6999 235.45C46.0359 235.33 46.3899 235.234 46.7619 235.162C47.1339 235.078 47.5119 235.036 47.8959 235.036C49.0959 235.036 49.9839 235.366 50.5599 236.026C51.1479 236.674 51.4419 237.544 51.4419 238.636V244H50.2359L50.1099 242.812H50.0559C49.5639 243.196 49.0179 243.526 48.4179 243.802C47.8299 244.078 47.2239 244.216 46.5999 244.216ZM46.9959 243.028C47.4999 243.028 47.9919 242.92 48.4719 242.704C48.9639 242.476 49.4619 242.152 49.9659 241.732V239.428C49.0299 239.5 48.2439 239.602 47.6079 239.734C46.9839 239.866 46.4799 240.028 46.0959 240.22C45.7239 240.4 45.4599 240.61 45.3039 240.85C45.1479 241.078 45.0699 241.336 45.0699 241.624C45.0699 241.876 45.1239 242.092 45.2319 242.272C45.3399 242.44 45.4779 242.584 45.6459 242.704C45.8259 242.812 46.0299 242.896 46.2579 242.956C46.4979 243.004 46.7439 243.028 46.9959 243.028ZM58.6528 244V236.458H54.5848V235.252H60.1288V244H58.6528ZM59.2288 233.416C58.8928 233.416 58.6108 233.314 58.3828 233.11C58.1548 232.894 58.0408 232.612 58.0408 232.264C58.0408 231.916 58.1548 231.64 58.3828 231.436C58.6108 231.22 58.8928 231.112 59.2288 231.112C59.5648 231.112 59.8468 231.22 60.0748 231.436C60.3028 231.64 60.4168 231.916 60.4168 232.264C60.4168 232.612 60.3028 232.894 60.0748 233.11C59.8468 233.314 59.5648 233.416 59.2288 233.416ZM65.4318 244V235.252H66.6558L66.7818 236.746H66.8538C67.3098 236.254 67.8018 235.846 68.3298 235.522C68.8578 235.198 69.4638 235.036 70.1478 235.036C71.1918 235.036 71.9538 235.336 72.4338 235.936C72.9258 236.524 73.1718 237.4 73.1718 238.564V244H71.6958V238.762C71.6958 237.934 71.5398 237.322 71.2278 236.926C70.9158 236.518 70.3998 236.314 69.6798 236.314C69.4158 236.314 69.1698 236.35 68.9418 236.422C68.7258 236.482 68.5098 236.578 68.2938 236.71C68.0778 236.842 67.8558 237.01 67.6278 237.214C67.3998 237.406 67.1598 237.634 66.9078 237.898V244H65.4318ZM82.3448 247.168C81.0968 246.196 80.1068 245.026 79.3748 243.658C78.6548 242.29 78.2948 240.736 78.2948 238.996C78.2948 237.256 78.6548 235.702 79.3748 234.334C80.1068 232.966 81.0968 231.796 82.3448 230.824L83.1548 231.58C81.9428 232.6 81.0488 233.71 80.4728 234.91C79.9088 236.11 79.6268 237.472 79.6268 238.996C79.6268 240.52 79.9088 241.882 80.4728 243.082C81.0488 244.282 81.9428 245.392 83.1548 246.412L82.3448 247.168ZM88.3498 247.168L87.5398 246.412C88.7518 245.392 89.6398 244.282 90.2038 243.082C90.7798 241.882 91.0678 240.52 91.0678 238.996C91.0678 237.472 90.7798 236.11 90.2038 234.91C89.6398 233.71 88.7518 232.6 87.5398 231.58L88.3498 230.824C89.5978 231.796 90.5818 232.966 91.3018 234.334C92.0338 235.702 92.3998 237.256 92.3998 238.996C92.3998 240.736 92.0338 242.29 91.3018 243.658C90.5818 245.026 89.5978 246.196 88.3498 247.168ZM114.868 246.736C114.304 246.736 113.812 246.694 113.392 246.61C112.972 246.538 112.624 246.412 112.348 246.232C112.072 246.052 111.868 245.806 111.736 245.494C111.604 245.194 111.538 244.81 111.538 244.342C111.538 244.018 111.544 243.712 111.556 243.424C111.58 243.124 111.598 242.836 111.61 242.56C111.634 242.284 111.652 242.008 111.664 241.732C111.688 241.456 111.7 241.168 111.7 240.868C111.7 240.688 111.664 240.52 111.592 240.364C111.52 240.196 111.388 240.046 111.196 239.914C111.004 239.782 110.734 239.674 110.386 239.59C110.05 239.506 109.618 239.464 109.09 239.464V238.528C109.618 238.528 110.05 238.486 110.386 238.402C110.734 238.318 111.004 238.21 111.196 238.078C111.388 237.946 111.52 237.802 111.592 237.646C111.664 237.478 111.7 237.304 111.7 237.124C111.7 236.548 111.67 235.984 111.61 235.432C111.562 234.868 111.538 234.274 111.538 233.65C111.538 233.182 111.604 232.798 111.736 232.498C111.868 232.186 112.072 231.94 112.348 231.76C112.624 231.58 112.972 231.454 113.392 231.382C113.812 231.298 114.304 231.256 114.868 231.256H115.966V232.102H115.03C114.574 232.102 114.196 232.132 113.896 232.192C113.608 232.252 113.38 232.348 113.212 232.48C113.056 232.612 112.948 232.786 112.888 233.002C112.828 233.206 112.798 233.452 112.798 233.74C112.798 234.256 112.816 234.79 112.852 235.342C112.888 235.882 112.906 236.434 112.906 236.998C112.906 237.586 112.786 238.036 112.546 238.348C112.318 238.648 111.892 238.852 111.268 238.96V239.032C111.892 239.14 112.318 239.35 112.546 239.662C112.786 239.962 112.906 240.406 112.906 240.994C112.906 241.606 112.888 242.164 112.852 242.668C112.816 243.172 112.798 243.7 112.798 244.252C112.798 244.54 112.828 244.786 112.888 244.99C112.948 245.206 113.056 245.38 113.212 245.512C113.38 245.644 113.608 245.74 113.896 245.8C114.196 245.86 114.574 245.89 115.03 245.89H115.966V246.736H114.868ZM27.9119 267.216C26.9759 267.216 26.2619 266.952 25.7699 266.424C25.2779 265.896 25.0319 265.11 25.0319 264.066V255.39H21.9179V254.184H26.5079V264.174C26.5079 264.822 26.6639 265.29 26.9759 265.578C27.2879 265.854 27.7079 265.992 28.2359 265.992C28.7519 265.992 29.2979 265.86 29.8739 265.596L30.2519 266.694C29.8439 266.862 29.4719 266.988 29.1359 267.072C28.7999 267.168 28.3919 267.216 27.9119 267.216ZM37.3189 267.216C36.6589 267.216 36.0409 267.114 35.4649 266.91C34.9009 266.706 34.4029 266.406 33.9709 266.01C33.5509 265.614 33.2149 265.134 32.9629 264.57C32.7229 263.994 32.6029 263.34 32.6029 262.608C32.6029 261.9 32.7229 261.264 32.9629 260.7C33.2149 260.136 33.5449 259.656 33.9529 259.26C34.3729 258.864 34.8469 258.564 35.3749 258.36C35.9149 258.144 36.4789 258.036 37.0669 258.036C37.6909 258.036 38.2489 258.138 38.7409 258.342C39.2449 258.534 39.6649 258.81 40.0009 259.17C40.3489 259.53 40.6129 259.962 40.7929 260.466C40.9729 260.97 41.0629 261.528 41.0629 262.14C41.0629 262.308 41.0569 262.47 41.0449 262.626C41.0329 262.782 41.0149 262.92 40.9909 263.04H34.0969C34.1929 264.036 34.5529 264.786 35.1769 265.29C35.8129 265.782 36.5869 266.028 37.4989 266.028C38.0269 266.028 38.5009 265.956 38.9209 265.812C39.3529 265.656 39.7669 265.452 40.1629 265.2L40.7029 266.172C40.2709 266.46 39.7729 266.706 39.2089 266.91C38.6569 267.114 38.0269 267.216 37.3189 267.216ZM37.1029 259.206C36.7429 259.206 36.3949 259.266 36.0589 259.386C35.7349 259.506 35.4409 259.68 35.1769 259.908C34.9129 260.124 34.6909 260.4 34.5109 260.736C34.3309 261.072 34.2049 261.456 34.1329 261.888H39.7129C39.6529 260.988 39.3889 260.316 38.9209 259.872C38.4649 259.428 37.8589 259.206 37.1029 259.206ZM49.2639 267.216C48.6279 267.216 48.0939 267.132 47.6619 266.964C47.2299 266.784 46.8819 266.538 46.6179 266.226C46.3539 265.902 46.1619 265.518 46.0419 265.074C45.9339 264.63 45.8799 264.138 45.8799 263.598V259.458H43.4139V258.342L45.9339 258.252L46.1319 255.444H47.3559V258.252H51.6579V259.458H47.3559V263.616C47.3559 264.012 47.3919 264.36 47.4639 264.66C47.5359 264.948 47.6559 265.194 47.8239 265.398C47.9919 265.602 48.2199 265.758 48.5079 265.866C48.7959 265.962 49.1499 266.01 49.5699 266.01C49.9899 266.01 50.3679 265.974 50.7039 265.902C51.0399 265.83 51.3639 265.734 51.6759 265.614L51.9999 266.694C51.6039 266.838 51.1839 266.958 50.7399 267.054C50.3079 267.162 49.8159 267.216 49.2639 267.216ZM64.9098 267L68.2398 262.464L65.1618 258.252H66.7998L68.1858 260.178C68.3418 260.418 68.5038 260.664 68.6718 260.916C68.8518 261.168 69.0318 261.414 69.2118 261.654H69.2838C69.4518 261.414 69.6198 261.162 69.7878 260.898C69.9558 260.634 70.1178 260.382 70.2738 260.142L71.5878 258.252H73.1538L70.0398 262.59L73.3878 267H71.7678L70.2378 264.984C70.0578 264.732 69.8658 264.468 69.6618 264.192C69.4698 263.916 69.2778 263.652 69.0858 263.4H69.0138C68.8338 263.664 68.6538 263.928 68.4738 264.192C68.2938 264.444 68.1138 264.708 67.9338 264.984L66.4938 267H64.9098ZM86.8738 259.692V258.576H94.6138V259.692H86.8738ZM86.8738 263.526V262.41H94.6138V263.526H86.8738ZM112.42 267.216C111.556 267.216 110.758 267.06 110.026 266.748C109.306 266.436 108.676 266.01 108.136 265.47L109.036 264.426C109.48 264.87 109.996 265.23 110.584 265.506C111.172 265.77 111.808 265.902 112.492 265.902C113.308 265.902 113.938 265.728 114.382 265.38C114.838 265.032 115.066 264.582 115.066 264.03C115.066 263.718 115.012 263.454 114.904 263.238C114.796 263.022 114.646 262.836 114.454 262.68C114.262 262.524 114.034 262.386 113.77 262.266C113.518 262.146 113.242 262.02 112.942 261.888L111.25 261.15C110.95 261.03 110.65 260.886 110.35 260.718C110.05 260.55 109.774 260.346 109.522 260.106C109.282 259.866 109.084 259.584 108.928 259.26C108.772 258.924 108.694 258.54 108.694 258.108C108.694 257.664 108.79 257.25 108.982 256.866C109.174 256.482 109.438 256.152 109.774 255.876C110.122 255.588 110.53 255.366 110.998 255.21C111.478 255.054 112 254.976 112.564 254.976C113.308 254.976 113.992 255.114 114.616 255.39C115.24 255.654 115.768 256.002 116.2 256.434L115.408 257.406C115.024 257.058 114.598 256.788 114.13 256.596C113.662 256.392 113.122 256.29 112.51 256.29C111.826 256.29 111.274 256.446 110.854 256.758C110.434 257.058 110.224 257.478 110.224 258.018C110.224 258.306 110.284 258.552 110.404 258.756C110.536 258.948 110.698 259.122 110.89 259.278C111.094 259.422 111.322 259.548 111.574 259.656C111.826 259.764 112.078 259.872 112.33 259.98L113.986 260.7C114.346 260.844 114.682 261.012 114.994 261.204C115.318 261.384 115.594 261.6 115.822 261.852C116.062 262.092 116.248 262.38 116.38 262.716C116.524 263.04 116.596 263.418 116.596 263.85C116.596 264.318 116.5 264.756 116.308 265.164C116.116 265.572 115.84 265.932 115.48 266.244C115.12 266.544 114.682 266.784 114.166 266.964C113.65 267.132 113.068 267.216 112.42 267.216ZM124.815 267.216C124.179 267.216 123.645 267.132 123.213 266.964C122.781 266.784 122.433 266.538 122.169 266.226C121.905 265.902 121.713 265.518 121.593 265.074C121.485 264.63 121.431 264.138 121.431 263.598V259.458H118.965V258.342L121.485 258.252L121.683 255.444H122.907V258.252H127.209V259.458H122.907V263.616C122.907 264.012 122.943 264.36 123.015 264.66C123.087 264.948 123.207 265.194 123.375 265.398C123.543 265.602 123.771 265.758 124.059 265.866C124.347 265.962 124.701 266.01 125.121 266.01C125.541 266.01 125.919 265.974 126.255 265.902C126.591 265.83 126.915 265.734 127.227 265.614L127.551 266.694C127.155 266.838 126.735 266.958 126.291 267.054C125.859 267.162 125.367 267.216 124.815 267.216ZM131.144 267V258.252H132.368L132.494 260.322H132.548C133.004 259.614 133.562 259.056 134.222 258.648C134.894 258.24 135.638 258.036 136.454 258.036C136.778 258.036 137.078 258.066 137.354 258.126C137.63 258.174 137.906 258.264 138.182 258.396L137.84 259.674C137.528 259.566 137.264 259.488 137.048 259.44C136.844 259.392 136.568 259.368 136.22 259.368C135.56 259.368 134.924 259.56 134.312 259.944C133.712 260.316 133.148 260.958 132.62 261.87V267H131.144ZM144.997 267V259.458H140.929V258.252H146.473V267H144.997ZM145.573 256.416C145.237 256.416 144.955 256.314 144.727 256.11C144.499 255.894 144.385 255.612 144.385 255.264C144.385 254.916 144.499 254.64 144.727 254.436C144.955 254.22 145.237 254.112 145.573 254.112C145.909 254.112 146.191 254.22 146.419 254.436C146.647 254.64 146.761 254.916 146.761 255.264C146.761 255.612 146.647 255.894 146.419 256.11C146.191 256.314 145.909 256.416 145.573 256.416ZM151.776 267V258.252H153L153.126 259.746H153.198C153.654 259.254 154.146 258.846 154.674 258.522C155.202 258.198 155.808 258.036 156.492 258.036C157.536 258.036 158.298 258.336 158.778 258.936C159.27 259.524 159.516 260.4 159.516 261.564V267H158.04V261.762C158.04 260.934 157.884 260.322 157.572 259.926C157.26 259.518 156.744 259.314 156.024 259.314C155.76 259.314 155.514 259.35 155.286 259.422C155.07 259.482 154.854 259.578 154.638 259.71C154.422 259.842 154.2 260.01 153.972 260.214C153.744 260.406 153.504 260.634 153.252 260.898V267H151.776ZM166.223 271.032C164.939 271.032 163.943 270.822 163.235 270.402C162.539 269.982 162.191 269.382 162.191 268.602C162.191 268.254 162.311 267.912 162.551 267.576C162.803 267.24 163.163 266.934 163.631 266.658V266.586C163.391 266.454 163.181 266.274 163.001 266.046C162.821 265.818 162.731 265.518 162.731 265.146C162.731 264.87 162.821 264.588 163.001 264.3C163.181 264 163.439 263.736 163.775 263.508V263.436C163.475 263.208 163.217 262.908 163.001 262.536C162.797 262.152 162.695 261.696 162.695 261.168C162.695 260.688 162.785 260.256 162.965 259.872C163.157 259.488 163.409 259.164 163.721 258.9C164.033 258.624 164.393 258.414 164.801 258.27C165.221 258.114 165.665 258.036 166.133 258.036C166.613 258.036 167.045 258.108 167.429 258.252H171.047V259.458H168.779C168.983 259.662 169.157 259.92 169.301 260.232C169.445 260.544 169.517 260.874 169.517 261.222C169.517 261.69 169.427 262.11 169.247 262.482C169.079 262.854 168.839 263.172 168.527 263.436C168.227 263.688 167.867 263.886 167.447 264.03C167.039 264.162 166.601 264.228 166.133 264.228C165.905 264.228 165.659 264.204 165.395 264.156C165.143 264.096 164.897 264.012 164.657 263.904C164.201 264.192 163.973 264.528 163.973 264.912C163.973 265.26 164.129 265.518 164.441 265.686C164.765 265.842 165.215 265.92 165.791 265.92H167.753C168.881 265.92 169.715 266.076 170.255 266.388C170.807 266.7 171.083 267.228 171.083 267.972C171.083 268.38 170.969 268.77 170.741 269.142C170.513 269.514 170.189 269.838 169.769 270.114C169.349 270.39 168.839 270.612 168.239 270.78C167.639 270.948 166.967 271.032 166.223 271.032ZM166.133 263.238C166.697 263.238 167.171 263.052 167.555 262.68C167.951 262.308 168.149 261.804 168.149 261.168C168.149 260.868 168.095 260.592 167.987 260.34C167.879 260.088 167.735 259.872 167.555 259.692C167.375 259.512 167.159 259.374 166.907 259.278C166.667 259.17 166.409 259.116 166.133 259.116C165.857 259.116 165.593 259.17 165.341 259.278C165.101 259.374 164.891 259.512 164.711 259.692C164.531 259.872 164.387 260.088 164.279 260.34C164.171 260.592 164.117 260.868 164.117 261.168C164.117 261.804 164.315 262.308 164.711 262.68C165.107 263.052 165.581 263.238 166.133 263.238ZM166.331 269.952C166.835 269.952 167.291 269.904 167.699 269.808C168.107 269.712 168.455 269.58 168.743 269.412C169.031 269.256 169.247 269.07 169.391 268.854C169.547 268.65 169.625 268.434 169.625 268.206C169.625 267.786 169.457 267.504 169.121 267.36C168.797 267.216 168.299 267.144 167.627 267.144H165.917C165.665 267.144 165.425 267.132 165.197 267.108C164.981 267.096 164.777 267.06 164.585 267C164.165 267.228 163.871 267.462 163.703 267.702C163.547 267.954 163.469 268.206 163.469 268.458C163.469 268.914 163.709 269.274 164.189 269.538C164.681 269.814 165.395 269.952 166.331 269.952ZM177.088 260.772C176.68 260.772 176.332 260.634 176.044 260.358C175.768 260.082 175.63 259.716 175.63 259.26C175.63 258.804 175.768 258.438 176.044 258.162C176.332 257.874 176.68 257.73 177.088 257.73C177.496 257.73 177.838 257.874 178.114 258.162C178.402 258.438 178.546 258.804 178.546 259.26C178.546 259.716 178.402 260.082 178.114 260.358C177.838 260.634 177.496 260.772 177.088 260.772ZM177.088 267.216C176.68 267.216 176.332 267.078 176.044 266.802C175.768 266.526 175.63 266.16 175.63 265.704C175.63 265.248 175.768 264.882 176.044 264.606C176.332 264.318 176.68 264.174 177.088 264.174C177.496 264.174 177.838 264.318 178.114 264.606C178.402 264.882 178.546 265.248 178.546 265.704C178.546 266.16 178.402 266.526 178.114 266.802C177.838 267.078 177.496 267.216 177.088 267.216ZM187.88 260.772C187.472 260.772 187.124 260.634 186.836 260.358C186.56 260.082 186.422 259.716 186.422 259.26C186.422 258.804 186.56 258.438 186.836 258.162C187.124 257.874 187.472 257.73 187.88 257.73C188.288 257.73 188.63 257.874 188.906 258.162C189.194 258.438 189.338 258.804 189.338 259.26C189.338 259.716 189.194 260.082 188.906 260.358C188.63 260.634 188.288 260.772 187.88 260.772ZM187.88 267.216C187.472 267.216 187.124 267.078 186.836 266.802C186.56 266.526 186.422 266.16 186.422 265.704C186.422 265.248 186.56 264.882 186.836 264.606C187.124 264.318 187.472 264.174 187.88 264.174C188.288 264.174 188.63 264.318 188.906 264.606C189.194 264.882 189.338 265.248 189.338 265.704C189.338 266.16 189.194 266.526 188.906 266.802C188.63 267.078 188.288 267.216 187.88 267.216ZM197.629 267V259.458H195.127V258.342L197.629 258.252V257.514C197.629 256.446 197.911 255.588 198.475 254.94C199.051 254.292 199.945 253.968 201.157 253.968C202.021 253.968 202.861 254.136 203.677 254.472L203.335 255.588C202.975 255.42 202.639 255.312 202.327 255.264C202.027 255.204 201.685 255.174 201.301 255.174C200.509 255.174 199.939 255.378 199.591 255.786C199.255 256.182 199.087 256.74 199.087 257.46V258.252H202.759V259.458H199.087V267H197.629ZM206.694 267V258.252H207.918L208.044 260.322H208.098C208.554 259.614 209.112 259.056 209.772 258.648C210.444 258.24 211.188 258.036 212.004 258.036C212.328 258.036 212.628 258.066 212.904 258.126C213.18 258.174 213.456 258.264 213.732 258.396L213.39 259.674C213.078 259.566 212.814 259.488 212.598 259.44C212.394 259.392 212.118 259.368 211.77 259.368C211.11 259.368 210.474 259.56 209.862 259.944C209.262 260.316 208.698 260.958 208.17 261.87V267H206.694ZM220.259 267.216C219.683 267.216 219.131 267.114 218.603 266.91C218.087 266.706 217.631 266.412 217.235 266.028C216.839 265.632 216.521 265.152 216.281 264.588C216.053 264.012 215.939 263.364 215.939 262.644C215.939 261.912 216.053 261.264 216.281 260.7C216.521 260.124 216.839 259.638 217.235 259.242C217.631 258.846 218.087 258.546 218.603 258.342C219.131 258.138 219.683 258.036 220.259 258.036C220.835 258.036 221.381 258.138 221.897 258.342C222.425 258.546 222.887 258.846 223.283 259.242C223.679 259.638 223.991 260.124 224.219 260.7C224.459 261.264 224.579 261.912 224.579 262.644C224.579 263.364 224.459 264.012 224.219 264.588C223.991 265.152 223.679 265.632 223.283 266.028C222.887 266.412 222.425 266.706 221.897 266.91C221.381 267.114 220.835 267.216 220.259 267.216ZM220.259 265.992C220.679 265.992 221.057 265.914 221.393 265.758C221.741 265.59 222.035 265.362 222.275 265.074C222.527 264.774 222.719 264.42 222.851 264.012C222.983 263.604 223.049 263.148 223.049 262.644C223.049 262.14 222.983 261.684 222.851 261.276C222.719 260.856 222.527 260.496 222.275 260.196C222.035 259.896 221.741 259.668 221.393 259.512C221.057 259.344 220.679 259.26 220.259 259.26C219.839 259.26 219.455 259.344 219.107 259.512C218.771 259.668 218.477 259.896 218.225 260.196C217.985 260.496 217.799 260.856 217.667 261.276C217.535 261.684 217.469 262.14 217.469 262.644C217.469 263.148 217.535 263.604 217.667 264.012C217.799 264.42 217.985 264.774 218.225 265.074C218.477 265.362 218.771 265.59 219.107 265.758C219.455 265.914 219.839 265.992 220.259 265.992ZM226.696 267V258.252H227.884L228.01 259.404H228.046C228.274 258.996 228.538 258.666 228.838 258.414C229.138 258.162 229.54 258.036 230.044 258.036C230.896 258.036 231.448 258.54 231.7 259.548C231.952 259.08 232.228 258.714 232.528 258.45C232.84 258.174 233.248 258.036 233.752 258.036C234.364 258.036 234.838 258.27 235.174 258.738C235.522 259.194 235.696 259.86 235.696 260.736V267H234.22V260.844C234.22 259.824 233.908 259.314 233.284 259.314C232.972 259.314 232.72 259.428 232.528 259.656C232.336 259.872 232.12 260.208 231.88 260.664V267H230.512V260.844C230.512 260.34 230.44 259.962 230.296 259.71C230.164 259.446 229.936 259.314 229.612 259.314C229.3 259.314 229.036 259.428 228.82 259.656C228.604 259.872 228.388 260.208 228.172 260.664V267H226.696ZM244.239 270.168C242.991 269.196 242.001 268.026 241.269 266.658C240.549 265.29 240.189 263.736 240.189 261.996C240.189 260.256 240.549 258.702 241.269 257.334C242.001 255.966 242.991 254.796 244.239 253.824L245.049 254.58C243.837 255.6 242.943 256.71 242.367 257.91C241.803 259.11 241.521 260.472 241.521 261.996C241.521 263.52 241.803 264.882 242.367 266.082C242.943 267.282 243.837 268.392 245.049 269.412L244.239 270.168ZM250.082 260.664L249.632 256.614L249.596 254.634H251.576L251.54 256.614L251.09 260.664H250.082ZM254.204 260.664L253.754 256.614L253.718 254.634H255.698L255.662 256.614L255.212 260.664H254.204ZM259.453 267V255.192H260.965V260.142H265.897V255.192H267.409V267H265.897V261.438H260.965V267H259.453ZM274.764 267.216C274.104 267.216 273.486 267.114 272.91 266.91C272.346 266.706 271.848 266.406 271.416 266.01C270.996 265.614 270.66 265.134 270.408 264.57C270.168 263.994 270.048 263.34 270.048 262.608C270.048 261.9 270.168 261.264 270.408 260.7C270.66 260.136 270.99 259.656 271.398 259.26C271.818 258.864 272.292 258.564 272.82 258.36C273.36 258.144 273.924 258.036 274.512 258.036C275.136 258.036 275.694 258.138 276.186 258.342C276.69 258.534 277.11 258.81 277.446 259.17C277.794 259.53 278.058 259.962 278.238 260.466C278.418 260.97 278.508 261.528 278.508 262.14C278.508 262.308 278.502 262.47 278.49 262.626C278.478 262.782 278.46 262.92 278.436 263.04H271.542C271.638 264.036 271.998 264.786 272.622 265.29C273.258 265.782 274.032 266.028 274.944 266.028C275.472 266.028 275.946 265.956 276.366 265.812C276.798 265.656 277.212 265.452 277.608 265.2L278.148 266.172C277.716 266.46 277.218 266.706 276.654 266.91C276.102 267.114 275.472 267.216 274.764 267.216ZM274.548 259.206C274.188 259.206 273.84 259.266 273.504 259.386C273.18 259.506 272.886 259.68 272.622 259.908C272.358 260.124 272.136 260.4 271.956 260.736C271.776 261.072 271.65 261.456 271.578 261.888H277.158C277.098 260.988 276.834 260.316 276.366 259.872C275.91 259.428 275.304 259.206 274.548 259.206ZM286.943 267.216C286.007 267.216 285.293 266.952 284.801 266.424C284.309 265.896 284.063 265.11 284.063 264.066V255.39H280.949V254.184H285.539V264.174C285.539 264.822 285.695 265.29 286.007 265.578C286.319 265.854 286.739 265.992 287.267 265.992C287.783 265.992 288.329 265.86 288.905 265.596L289.283 266.694C288.875 266.862 288.503 266.988 288.167 267.072C287.831 267.168 287.423 267.216 286.943 267.216ZM297.736 267.216C296.8 267.216 296.086 266.952 295.594 266.424C295.102 265.896 294.856 265.11 294.856 264.066V255.39H291.742V254.184H296.332V264.174C296.332 264.822 296.488 265.29 296.8 265.578C297.112 265.854 297.532 265.992 298.06 265.992C298.576 265.992 299.122 265.86 299.698 265.596L300.076 266.694C299.668 266.862 299.296 266.988 298.96 267.072C298.624 267.168 298.216 267.216 297.736 267.216ZM306.603 267.216C306.027 267.216 305.475 267.114 304.947 266.91C304.431 266.706 303.975 266.412 303.579 266.028C303.183 265.632 302.865 265.152 302.625 264.588C302.397 264.012 302.283 263.364 302.283 262.644C302.283 261.912 302.397 261.264 302.625 260.7C302.865 260.124 303.183 259.638 303.579 259.242C303.975 258.846 304.431 258.546 304.947 258.342C305.475 258.138 306.027 258.036 306.603 258.036C307.179 258.036 307.725 258.138 308.241 258.342C308.769 258.546 309.231 258.846 309.627 259.242C310.023 259.638 310.335 260.124 310.563 260.7C310.803 261.264 310.923 261.912 310.923 262.644C310.923 263.364 310.803 264.012 310.563 264.588C310.335 265.152 310.023 265.632 309.627 266.028C309.231 266.412 308.769 266.706 308.241 266.91C307.725 267.114 307.179 267.216 306.603 267.216ZM306.603 265.992C307.023 265.992 307.401 265.914 307.737 265.758C308.085 265.59 308.379 265.362 308.619 265.074C308.871 264.774 309.063 264.42 309.195 264.012C309.327 263.604 309.393 263.148 309.393 262.644C309.393 262.14 309.327 261.684 309.195 261.276C309.063 260.856 308.871 260.496 308.619 260.196C308.379 259.896 308.085 259.668 307.737 259.512C307.401 259.344 307.023 259.26 306.603 259.26C306.183 259.26 305.799 259.344 305.451 259.512C305.115 259.668 304.821 259.896 304.569 260.196C304.329 260.496 304.143 260.856 304.011 261.276C303.879 261.684 303.813 262.14 303.813 262.644C303.813 263.148 303.879 263.604 304.011 264.012C304.143 264.42 304.329 264.774 304.569 265.074C304.821 265.362 305.115 265.59 305.451 265.758C305.799 265.914 306.183 265.992 306.603 265.992ZM316.892 262.824L316.712 256.632L316.676 254.94H318.116L318.08 256.632L317.9 262.824H316.892ZM317.396 267.216C317.036 267.216 316.724 267.09 316.46 266.838C316.208 266.586 316.082 266.244 316.082 265.812C316.082 265.392 316.208 265.062 316.46 264.822C316.724 264.57 317.036 264.444 317.396 264.444C317.756 264.444 318.062 264.57 318.314 264.822C318.578 265.062 318.71 265.392 318.71 265.812C318.71 266.244 318.578 266.586 318.314 266.838C318.062 267.09 317.756 267.216 317.396 267.216ZM325.633 260.664L325.183 256.614L325.147 254.634H327.127L327.091 256.614L326.641 260.664H325.633ZM329.755 260.664L329.305 256.614L329.269 254.634H331.249L331.213 256.614L330.763 260.664H329.755ZM336.588 270.168L335.778 269.412C336.99 268.392 337.878 267.282 338.442 266.082C339.018 264.882 339.306 263.52 339.306 261.996C339.306 260.472 339.018 259.11 338.442 257.91C337.878 256.71 336.99 255.6 335.778 254.58L336.588 253.824C337.836 254.796 338.82 255.966 339.54 257.334C340.272 258.702 340.638 260.256 340.638 261.996C340.638 263.736 340.272 265.29 339.54 266.658C338.82 268.026 337.836 269.196 336.588 270.168ZM349.775 260.772C349.367 260.772 349.019 260.634 348.731 260.358C348.455 260.082 348.317 259.716 348.317 259.26C348.317 258.804 348.455 258.438 348.731 258.162C349.019 257.874 349.367 257.73 349.775 257.73C350.183 257.73 350.525 257.874 350.801 258.162C351.089 258.438 351.233 258.804 351.233 259.26C351.233 259.716 351.089 260.082 350.801 260.358C350.525 260.634 350.183 260.772 349.775 260.772ZM348.335 270.834L347.921 269.898C348.665 269.562 349.223 269.154 349.595 268.674C349.967 268.206 350.165 267.612 350.189 266.892C350.129 266.916 350.069 266.928 350.009 266.928C349.961 266.928 349.907 266.928 349.847 266.928C349.463 266.928 349.133 266.82 348.857 266.604C348.581 266.376 348.443 266.034 348.443 265.578C348.443 265.134 348.587 264.798 348.875 264.57C349.163 264.33 349.499 264.21 349.883 264.21C350.423 264.21 350.825 264.42 351.089 264.84C351.365 265.248 351.503 265.806 351.503 266.514C351.503 267.57 351.221 268.458 350.657 269.178C350.105 269.91 349.331 270.462 348.335 270.834ZM24.9419 290V282.458H22.4399V281.342L24.9419 281.252V280.514C24.9419 279.446 25.2239 278.588 25.7879 277.94C26.3639 277.292 27.2579 276.968 28.4699 276.968C29.3339 276.968 30.1739 277.136 30.9899 277.472L30.6479 278.588C30.2879 278.42 29.9519 278.312 29.6399 278.264C29.3399 278.204 28.9979 278.174 28.6139 278.174C27.8219 278.174 27.2519 278.378 26.9039 278.786C26.5679 279.182 26.3999 279.74 26.3999 280.46V281.252H30.0719V282.458H26.3999V290H24.9419ZM39.1729 293.168C37.9249 292.196 36.9349 291.026 36.2029 289.658C35.4829 288.29 35.1229 286.736 35.1229 284.996C35.1229 283.256 35.4829 281.702 36.2029 280.334C36.9349 278.966 37.9249 277.796 39.1729 276.824L39.9829 277.58C38.7709 278.6 37.8769 279.71 37.3009 280.91C36.7369 282.11 36.4549 283.472 36.4549 284.996C36.4549 286.52 36.7369 287.882 37.3009 289.082C37.8769 290.282 38.7709 291.392 39.9829 292.412L39.1729 293.168ZM43.3239 290L46.6539 285.464L43.5759 281.252H45.2139L46.5999 283.178C46.7559 283.418 46.9179 283.664 47.0859 283.916C47.2659 284.168 47.4459 284.414 47.6259 284.654H47.6979C47.8659 284.414 48.0339 284.162 48.2019 283.898C48.3699 283.634 48.5319 283.382 48.6879 283.142L50.0019 281.252H51.5679L48.4539 285.59L51.8019 290H50.1819L48.6519 287.984C48.4719 287.732 48.2799 287.468 48.0759 287.192C47.8839 286.916 47.6919 286.652 47.4999 286.4H47.4279C47.2479 286.664 47.0679 286.928 46.8879 287.192C46.7079 287.444 46.5279 287.708 46.3479 287.984L44.9079 290H43.3239ZM55.9708 293.168L55.1608 292.412C56.3728 291.392 57.2608 290.282 57.8248 289.082C58.4008 287.882 58.6888 286.52 58.6888 284.996C58.6888 283.472 58.4008 282.11 57.8248 280.91C57.2608 279.71 56.3728 278.6 55.1608 277.58L55.9708 276.824C57.2188 277.796 58.2028 278.966 58.9228 280.334C59.6548 281.702 60.0208 283.256 60.0208 284.996C60.0208 286.736 59.6548 288.29 58.9228 289.658C58.2028 291.026 57.2188 292.196 55.9708 293.168ZM69.1578 283.772C68.7498 283.772 68.4018 283.634 68.1138 283.358C67.8378 283.082 67.6998 282.716 67.6998 282.26C67.6998 281.804 67.8378 281.438 68.1138 281.162C68.4018 280.874 68.7498 280.73 69.1578 280.73C69.5658 280.73 69.9078 280.874 70.1838 281.162C70.4718 281.438 70.6158 281.804 70.6158 282.26C70.6158 282.716 70.4718 283.082 70.1838 283.358C69.9078 283.634 69.5658 283.772 69.1578 283.772ZM67.7178 293.834L67.3038 292.898C68.0478 292.562 68.6058 292.154 68.9778 291.674C69.3498 291.206 69.5478 290.612 69.5718 289.892C69.5118 289.916 69.4518 289.928 69.3918 289.928C69.3438 289.928 69.2898 289.928 69.2298 289.928C68.8458 289.928 68.5158 289.82 68.2398 289.604C67.9638 289.376 67.8258 289.034 67.8258 288.578C67.8258 288.134 67.9698 287.798 68.2578 287.57C68.5458 287.33 68.8818 287.21 69.2658 287.21C69.8058 287.21 70.2078 287.42 70.4718 287.84C70.7478 288.248 70.8858 288.806 70.8858 289.514C70.8858 290.57 70.6038 291.458 70.0398 292.178C69.4878 292.91 68.7138 293.462 67.7178 293.834ZM22.2599 316.69V304.252H23.4839L23.6099 305.368H23.6639C24.0719 304.984 24.5399 304.666 25.0679 304.414C25.6079 304.162 26.1479 304.036 26.6879 304.036C27.2759 304.036 27.7919 304.144 28.2359 304.36C28.6919 304.564 29.0699 304.864 29.3699 305.26C29.6819 305.644 29.9159 306.112 30.0719 306.664C30.2279 307.204 30.3059 307.816 30.3059 308.5C30.3059 309.244 30.1979 309.91 29.9819 310.498C29.7659 311.074 29.4719 311.566 29.0999 311.974C28.7399 312.382 28.3199 312.694 27.8399 312.91C27.3599 313.114 26.8559 313.216 26.3279 313.216C25.9199 313.216 25.4759 313.12 24.9959 312.928C24.5279 312.724 24.1019 312.442 23.7179 312.082H23.6639L23.7359 313.738V316.69H22.2599ZM26.0759 311.974C26.8679 311.974 27.5159 311.668 28.0199 311.056C28.5239 310.444 28.7759 309.592 28.7759 308.5C28.7759 308.02 28.7279 307.582 28.6319 307.186C28.5359 306.79 28.3859 306.454 28.1819 306.178C27.9899 305.89 27.7379 305.668 27.4259 305.512C27.1139 305.356 26.7419 305.278 26.3099 305.278C25.9259 305.278 25.5119 305.386 25.0679 305.602C24.6359 305.806 24.1919 306.136 23.7359 306.592V310.948C24.1559 311.32 24.5759 311.584 24.9959 311.74C25.4159 311.896 25.7759 311.974 26.0759 311.974ZM34.0069 313V304.252H35.2309L35.3569 306.322H35.4109C35.8669 305.614 36.4249 305.056 37.0849 304.648C37.7569 304.24 38.5009 304.036 39.3169 304.036C39.6409 304.036 39.9409 304.066 40.2169 304.126C40.4929 304.174 40.7689 304.264 41.0449 304.396L40.7029 305.674C40.3909 305.566 40.1269 305.488 39.9109 305.44C39.7069 305.392 39.4309 305.368 39.0829 305.368C38.4229 305.368 37.7869 305.56 37.1749 305.944C36.5749 306.316 36.0109 306.958 35.4829 307.87V313H34.0069ZM47.8599 313V305.458H43.7919V304.252H49.3359V313H47.8599ZM48.4359 302.416C48.0999 302.416 47.8179 302.314 47.5899 302.11C47.3619 301.894 47.2479 301.612 47.2479 301.264C47.2479 300.916 47.3619 300.64 47.5899 300.436C47.8179 300.22 48.0999 300.112 48.4359 300.112C48.7719 300.112 49.0539 300.22 49.2819 300.436C49.5099 300.64 49.6239 300.916 49.6239 301.264C49.6239 301.612 49.5099 301.894 49.2819 302.11C49.0539 302.314 48.7719 302.416 48.4359 302.416ZM54.6388 313V304.252H55.8628L55.9888 305.746H56.0608C56.5168 305.254 57.0088 304.846 57.5368 304.522C58.0648 304.198 58.6708 304.036 59.3548 304.036C60.3988 304.036 61.1608 304.336 61.6408 304.936C62.1328 305.524 62.3788 306.4 62.3788 307.564V313H60.9028V307.762C60.9028 306.934 60.7468 306.322 60.4348 305.926C60.1228 305.518 59.6068 305.314 58.8868 305.314C58.6228 305.314 58.3768 305.35 58.1488 305.422C57.9328 305.482 57.7168 305.578 57.5008 305.71C57.2848 305.842 57.0628 306.01 56.8348 306.214C56.6068 306.406 56.3668 306.634 56.1148 306.898V313H54.6388ZM70.8498 313.216C70.2138 313.216 69.6798 313.132 69.2478 312.964C68.8158 312.784 68.4678 312.538 68.2038 312.226C67.9398 311.902 67.7478 311.518 67.6278 311.074C67.5198 310.63 67.4658 310.138 67.4658 309.598V305.458H64.9998V304.342L67.5198 304.252L67.7178 301.444H68.9418V304.252H73.2438V305.458H68.9418V309.616C68.9418 310.012 68.9778 310.36 69.0498 310.66C69.1218 310.948 69.2418 311.194 69.4098 311.398C69.5778 311.602 69.8058 311.758 70.0938 311.866C70.3818 311.962 70.7358 312.01 71.1558 312.01C71.5758 312.01 71.9538 311.974 72.2898 311.902C72.6258 311.83 72.9498 311.734 73.2618 311.614L73.5858 312.694C73.1898 312.838 72.7698 312.958 72.3258 313.054C71.8938 313.162 71.4018 313.216 70.8498 313.216ZM81.8768 313.216C80.9408 313.216 80.2268 312.952 79.7348 312.424C79.2428 311.896 78.9968 311.11 78.9968 310.066V301.39H75.8828V300.184H80.4728V310.174C80.4728 310.822 80.6288 311.29 80.9408 311.578C81.2528 311.854 81.6728 311.992 82.2008 311.992C82.7168 311.992 83.2628 311.86 83.8388 311.596L84.2168 312.694C83.8088 312.862 83.4368 312.988 83.1008 313.072C82.7648 313.168 82.3568 313.216 81.8768 313.216ZM87.0178 313V304.252H88.2418L88.3678 305.746H88.4398C88.8958 305.254 89.3878 304.846 89.9158 304.522C90.4438 304.198 91.0498 304.036 91.7338 304.036C92.7778 304.036 93.5398 304.336 94.0198 304.936C94.5118 305.524 94.7578 306.4 94.7578 307.564V313H93.2818V307.762C93.2818 306.934 93.1258 306.322 92.8138 305.926C92.5018 305.518 91.9858 305.314 91.2658 305.314C91.0018 305.314 90.7558 305.35 90.5278 305.422C90.3118 305.482 90.0958 305.578 89.8798 305.71C89.6638 305.842 89.4418 306.01 89.2138 306.214C88.9858 306.406 88.7458 306.634 88.4938 306.898V313H87.0178ZM101.033 308.824L100.853 302.632L100.817 300.94H102.257L102.221 302.632L102.041 308.824H101.033ZM101.537 313.216C101.177 313.216 100.865 313.09 100.601 312.838C100.349 312.586 100.223 312.244 100.223 311.812C100.223 311.392 100.349 311.062 100.601 310.822C100.865 310.57 101.177 310.444 101.537 310.444C101.897 310.444 102.203 310.57 102.455 310.822C102.719 311.062 102.851 311.392 102.851 311.812C102.851 312.244 102.719 312.586 102.455 312.838C102.203 313.09 101.897 313.216 101.537 313.216ZM114.724 316.168C113.476 315.196 112.486 314.026 111.754 312.658C111.034 311.29 110.674 309.736 110.674 307.996C110.674 306.256 111.034 304.702 111.754 303.334C112.486 301.966 113.476 300.796 114.724 299.824L115.534 300.58C114.322 301.6 113.428 302.71 112.852 303.91C112.288 305.11 112.006 306.472 112.006 307.996C112.006 309.52 112.288 310.882 112.852 312.082C113.428 313.282 114.322 314.392 115.534 315.412L114.724 316.168ZM120.567 306.664L120.117 302.614L120.081 300.634H122.061L122.025 302.614L121.575 306.664H120.567ZM124.689 306.664L124.239 302.614L124.203 300.634H126.183L126.147 302.614L125.697 306.664H124.689ZM134.834 313.216C134.102 313.216 133.424 313.078 132.8 312.802C132.176 312.526 131.63 312.13 131.162 311.614C130.706 311.086 130.346 310.444 130.082 309.688C129.818 308.92 129.686 308.056 129.686 307.096C129.686 306.148 129.818 305.296 130.082 304.54C130.346 303.784 130.712 303.142 131.18 302.614C131.648 302.086 132.206 301.684 132.854 301.408C133.502 301.12 134.21 300.976 134.978 300.976C135.686 300.976 136.31 301.12 136.85 301.408C137.402 301.696 137.852 302.032 138.2 302.416L137.354 303.37C137.042 303.046 136.694 302.788 136.31 302.596C135.926 302.392 135.482 302.29 134.978 302.29C134.414 302.29 133.898 302.404 133.43 302.632C132.974 302.848 132.584 303.166 132.26 303.586C131.936 303.994 131.684 304.492 131.504 305.08C131.324 305.668 131.234 306.328 131.234 307.06C131.234 307.804 131.324 308.476 131.504 309.076C131.684 309.664 131.936 310.168 132.26 310.588C132.584 311.008 132.974 311.332 133.43 311.56C133.898 311.788 134.414 311.902 134.978 311.902C135.518 311.902 135.998 311.788 136.418 311.56C136.85 311.332 137.258 311.008 137.642 310.588L138.488 311.506C138.02 312.046 137.492 312.466 136.904 312.766C136.316 313.066 135.626 313.216 134.834 313.216ZM142.153 306.664L141.703 302.614L141.667 300.634H143.647L143.611 302.614L143.161 306.664H142.153ZM146.275 306.664L145.825 302.614L145.789 300.634H147.769L147.733 302.614L147.283 306.664H146.275ZM153.108 316.168L152.298 315.412C153.51 314.392 154.398 313.282 154.962 312.082C155.538 310.882 155.826 309.52 155.826 307.996C155.826 306.472 155.538 305.11 154.962 303.91C154.398 302.71 153.51 301.6 152.298 300.58L153.108 299.824C154.356 300.796 155.34 301.966 156.06 303.334C156.792 304.702 157.158 306.256 157.158 307.996C157.158 309.736 156.792 311.29 156.06 312.658C155.34 314.026 154.356 315.196 153.108 316.168ZM166.295 306.772C165.887 306.772 165.539 306.634 165.251 306.358C164.975 306.082 164.837 305.716 164.837 305.26C164.837 304.804 164.975 304.438 165.251 304.162C165.539 303.874 165.887 303.73 166.295 303.73C166.703 303.73 167.045 303.874 167.321 304.162C167.609 304.438 167.753 304.804 167.753 305.26C167.753 305.716 167.609 306.082 167.321 306.358C167.045 306.634 166.703 306.772 166.295 306.772ZM164.855 316.834L164.441 315.898C165.185 315.562 165.743 315.154 166.115 314.674C166.487 314.206 166.685 313.612 166.709 312.892C166.649 312.916 166.589 312.928 166.529 312.928C166.481 312.928 166.427 312.928 166.367 312.928C165.983 312.928 165.653 312.82 165.377 312.604C165.101 312.376 164.963 312.034 164.963 311.578C164.963 311.134 165.107 310.798 165.395 310.57C165.683 310.33 166.019 310.21 166.403 310.21C166.943 310.21 167.345 310.42 167.609 310.84C167.885 311.248 168.023 311.806 168.023 312.514C168.023 313.57 167.741 314.458 167.177 315.178C166.625 315.91 165.851 316.462 164.855 316.834ZM0.782 338.736V337.89H1.7C2.156 337.89 2.528 337.86 2.816 337.8C3.116 337.74 3.35 337.644 3.518 337.512C3.686 337.38 3.8 337.206 3.86 336.99C3.92 336.786 3.95 336.54 3.95 336.252C3.95 335.7 3.932 335.172 3.896 334.668C3.86 334.164 3.842 333.606 3.842 332.994C3.842 332.406 3.956 331.962 4.184 331.662C4.412 331.35 4.838 331.14 5.462 331.032V330.96C4.838 330.852 4.412 330.648 4.184 330.348C3.956 330.036 3.842 329.586 3.842 328.998C3.842 328.434 3.86 327.882 3.896 327.342C3.932 326.79 3.95 326.256 3.95 325.74C3.95 325.452 3.92 325.206 3.86 325.002C3.8 324.786 3.686 324.612 3.518 324.48C3.35 324.348 3.116 324.252 2.816 324.192C2.528 324.132 2.156 324.102 1.7 324.102H0.782V323.256H1.88C2.444 323.256 2.93 323.298 3.338 323.382C3.758 323.454 4.106 323.58 4.382 323.76C4.658 323.94 4.862 324.186 4.994 324.498C5.126 324.798 5.192 325.182 5.192 325.65C5.192 326.274 5.162 326.868 5.102 327.432C5.054 327.984 5.03 328.548 5.03 329.124C5.03 329.304 5.066 329.478 5.138 329.646C5.21 329.802 5.342 329.946 5.534 330.078C5.726 330.21 5.99 330.318 6.326 330.402C6.674 330.486 7.112 330.528 7.64 330.528V331.464C7.112 331.464 6.674 331.506 6.326 331.59C5.99 331.674 5.726 331.782 5.534 331.914C5.342 332.046 5.21 332.196 5.138 332.364C5.066 332.52 5.03 332.688 5.03 332.868C5.03 333.168 5.036 333.456 5.048 333.732C5.072 334.008 5.09 334.284 5.102 334.56C5.126 334.836 5.144 335.124 5.156 335.424C5.18 335.712 5.192 336.018 5.192 336.342C5.192 336.81 5.126 337.194 4.994 337.494C4.862 337.806 4.658 338.052 4.382 338.232C4.106 338.412 3.758 338.538 3.338 338.61C2.93 338.694 2.444 338.736 1.88 338.736H0.782Z" fill="black"/>
</svg>
