<svg width="341" height="293" viewBox="0 0 341 293" fill="none" xmlns="http://www.w3.org/2000/svg">
<path d="M3.356 14V6.458H0.854V5.342L3.356 5.252V4.514C3.356 3.446 3.638 2.588 4.202 1.94C4.778 1.292 5.672 0.967999 6.884 0.967999C7.748 0.967999 8.588 1.136 9.404 1.472L9.062 2.588C8.702 2.42 8.366 2.312 8.054 2.264C7.754 2.204 7.412 2.174 7.028 2.174C6.236 2.174 5.666 2.378 5.318 2.786C4.982 3.182 4.814 3.74 4.814 4.46V5.252H8.486V6.458H4.814V14H3.356ZM11.467 14V5.252H12.691L12.817 6.746H12.889C13.345 6.254 13.837 5.846 14.365 5.522C14.893 5.198 15.499 5.036 16.183 5.036C17.227 5.036 17.989 5.336 18.469 5.936C18.961 6.524 19.207 7.4 19.207 8.564V14H17.731V8.762C17.731 7.934 17.575 7.322 17.263 6.926C16.951 6.518 16.435 6.314 15.715 6.314C15.451 6.314 15.205 6.35 14.977 6.422C14.761 6.482 14.545 6.578 14.329 6.71C14.113 6.842 13.891 7.01 13.663 7.214C13.435 7.406 13.195 7.634 12.943 7.898V14H11.467ZM35.7349 14V6.458H33.2329V5.342L35.7349 5.252V4.514C35.7349 3.446 36.0169 2.588 36.5809 1.94C37.1569 1.292 38.0509 0.967999 39.2629 0.967999C40.1269 0.967999 40.9669 1.136 41.7829 1.472L41.4409 2.588C41.0809 2.42 40.7449 2.312 40.4329 2.264C40.1329 2.204 39.7909 2.174 39.4069 2.174C38.6149 2.174 38.0449 2.378 37.6969 2.786C37.3609 3.182 37.1929 3.74 37.1929 4.46V5.252H40.8649V6.458H37.1929V14H35.7349ZM49.9659 17.168C48.7179 16.196 47.7279 15.026 46.9959 13.658C46.2759 12.29 45.9159 10.736 45.9159 8.996C45.9159 7.256 46.2759 5.702 46.9959 4.334C47.7279 2.966 48.7179 1.796 49.9659 0.823999L50.7759 1.58C49.5639 2.6 48.6699 3.71 48.0939 4.91C47.5299 6.11 47.2479 7.472 47.2479 8.996C47.2479 10.52 47.5299 11.882 48.0939 13.082C48.6699 14.282 49.5639 15.392 50.7759 16.412L49.9659 17.168ZM58.5448 14.216C57.6808 14.216 56.8828 14.084 56.1508 13.82C55.4188 13.544 54.7828 13.22 54.2428 12.848L54.9268 11.876C55.4308 12.236 55.9828 12.524 56.5828 12.74C57.1948 12.956 57.9088 13.064 58.7248 13.064C59.4688 13.064 60.0208 12.932 60.3808 12.668C60.7528 12.392 60.9388 12.068 60.9388 11.696C60.9388 11.528 60.9088 11.372 60.8488 11.228C60.7888 11.084 60.6568 10.946 60.4528 10.814C60.2608 10.682 59.9848 10.556 59.6248 10.436C59.2648 10.316 58.7908 10.196 58.2028 10.076C57.0628 9.836 56.2048 9.518 55.6288 9.122C55.0648 8.714 54.7828 8.18 54.7828 7.52C54.7828 7.172 54.8608 6.848 55.0168 6.548C55.1728 6.236 55.4008 5.972 55.7008 5.756C56.0128 5.528 56.3908 5.354 56.8348 5.234C57.2908 5.102 57.8188 5.036 58.4188 5.036C59.0908 5.036 59.7388 5.15 60.3628 5.378C60.9868 5.594 61.5148 5.852 61.9468 6.152L61.2268 7.106C60.8188 6.83 60.3688 6.608 59.8768 6.44C59.3848 6.272 58.8568 6.188 58.2928 6.188C57.5488 6.188 57.0268 6.314 56.7268 6.566C56.4268 6.818 56.2768 7.112 56.2768 7.448C56.2768 7.832 56.4748 8.126 56.8708 8.33C57.2668 8.522 57.9148 8.714 58.8148 8.906C59.5468 9.062 60.1468 9.23 60.6148 9.41C61.0828 9.578 61.4488 9.77 61.7128 9.986C61.9888 10.202 62.1748 10.442 62.2708 10.706C62.3788 10.97 62.4328 11.27 62.4328 11.606C62.4328 11.966 62.3488 12.302 62.1808 12.614C62.0128 12.926 61.7608 13.202 61.4248 13.442C61.1008 13.682 60.6928 13.868 60.2008 14C59.7208 14.144 59.1688 14.216 58.5448 14.216ZM79.9508 7.772C79.5428 7.772 79.1948 7.634 78.9068 7.358C78.6308 7.082 78.4928 6.716 78.4928 6.26C78.4928 5.804 78.6308 5.438 78.9068 5.162C79.1948 4.874 79.5428 4.73 79.9508 4.73C80.3588 4.73 80.7008 4.874 80.9768 5.162C81.2648 5.438 81.4088 5.804 81.4088 6.26C81.4088 6.716 81.2648 7.082 80.9768 7.358C80.7008 7.634 80.3588 7.772 79.9508 7.772ZM79.9508 14.216C79.5428 14.216 79.1948 14.078 78.9068 13.802C78.6308 13.526 78.4928 13.16 78.4928 12.704C78.4928 12.248 78.6308 11.882 78.9068 11.606C79.1948 11.318 79.5428 11.174 79.9508 11.174C80.3588 11.174 80.7008 11.318 80.9768 11.606C81.2648 11.882 81.4088 12.248 81.4088 12.704C81.4088 13.16 81.2648 13.526 80.9768 13.802C80.7008 14.078 80.3588 14.216 79.9508 14.216ZM100.421 14.216C99.8927 14.216 99.4127 14.138 98.9807 13.982C98.5487 13.814 98.1767 13.586 97.8647 13.298C97.5647 13.01 97.3247 12.668 97.1447 12.272C96.9767 11.864 96.8927 11.42 96.8927 10.94C96.8927 10.556 96.9527 10.202 97.0727 9.878C97.1927 9.554 97.3547 9.26 97.5587 8.996C97.7747 8.72 98.0147 8.468 98.2787 8.24C98.5427 8 98.8187 7.772 99.1067 7.556C98.8547 7.064 98.6567 6.584 98.5127 6.116C98.3807 5.636 98.3147 5.186 98.3147 4.766C98.3147 4.37 98.3747 4.004 98.4947 3.668C98.6267 3.332 98.8007 3.038 99.0167 2.786C99.2447 2.534 99.5147 2.336 99.8267 2.192C100.151 2.048 100.511 1.976 100.907 1.976C101.639 1.976 102.203 2.192 102.599 2.624C102.995 3.056 103.193 3.62 103.193 4.316C103.193 4.7 103.115 5.048 102.959 5.36C102.815 5.672 102.623 5.972 102.383 6.26C102.143 6.536 101.873 6.8 101.573 7.052C101.273 7.292 100.967 7.532 100.655 7.772C101.039 8.384 101.477 8.972 101.969 9.536C102.473 10.1 102.995 10.616 103.535 11.084C103.871 10.604 104.159 10.082 104.399 9.518C104.651 8.942 104.861 8.312 105.029 7.628H106.397C106.181 8.408 105.917 9.152 105.605 9.86C105.293 10.568 104.921 11.234 104.489 11.858C105.209 12.41 105.887 12.788 106.523 12.992L106.109 14.216C105.329 13.976 104.507 13.526 103.643 12.866C103.211 13.286 102.731 13.616 102.203 13.856C101.687 14.096 101.093 14.216 100.421 14.216ZM99.5927 4.748C99.5927 5.072 99.6407 5.408 99.7367 5.756C99.8327 6.104 99.9647 6.458 100.133 6.818C100.385 6.638 100.619 6.458 100.835 6.278C101.063 6.086 101.261 5.894 101.429 5.702C101.609 5.498 101.747 5.288 101.843 5.072C101.939 4.844 101.987 4.598 101.987 4.334C101.987 3.986 101.903 3.686 101.735 3.434C101.579 3.17 101.303 3.038 100.907 3.038C100.487 3.038 100.163 3.2 99.9347 3.524C99.7067 3.848 99.5927 4.256 99.5927 4.748ZM100.601 13.028C100.973 13.028 101.333 12.944 101.681 12.776C102.029 12.608 102.359 12.38 102.671 12.092C102.095 11.588 101.549 11.036 101.033 10.436C100.529 9.836 100.073 9.212 99.6647 8.564C99.2807 8.9 98.9627 9.254 98.7107 9.626C98.4587 9.986 98.3327 10.394 98.3327 10.85C98.3327 11.174 98.3927 11.474 98.5127 11.75C98.6327 12.014 98.7947 12.242 98.9987 12.434C99.2027 12.626 99.4427 12.776 99.7187 12.884C99.9947 12.98 100.289 13.028 100.601 13.028ZM112.42 14.216C111.556 14.216 110.758 14.06 110.026 13.748C109.306 13.436 108.676 13.01 108.136 12.47L109.036 11.426C109.48 11.87 109.996 12.23 110.584 12.506C111.172 12.77 111.808 12.902 112.492 12.902C113.308 12.902 113.938 12.728 114.382 12.38C114.838 12.032 115.066 11.582 115.066 11.03C115.066 10.718 115.012 10.454 114.904 10.238C114.796 10.022 114.646 9.836 114.454 9.68C114.262 9.524 114.034 9.386 113.77 9.266C113.518 9.146 113.242 9.02 112.942 8.888L111.25 8.15C110.95 8.03 110.65 7.886 110.35 7.718C110.05 7.55 109.774 7.346 109.522 7.106C109.282 6.866 109.084 6.584 108.928 6.26C108.772 5.924 108.694 5.54 108.694 5.108C108.694 4.664 108.79 4.25 108.982 3.866C109.174 3.482 109.438 3.152 109.774 2.876C110.122 2.588 110.53 2.366 110.998 2.21C111.478 2.054 112 1.976 112.564 1.976C113.308 1.976 113.992 2.114 114.616 2.39C115.24 2.654 115.768 3.002 116.2 3.434L115.408 4.406C115.024 4.058 114.598 3.788 114.13 3.596C113.662 3.392 113.122 3.29 112.51 3.29C111.826 3.29 111.274 3.446 110.854 3.758C110.434 4.058 110.224 4.478 110.224 5.018C110.224 5.306 110.284 5.552 110.404 5.756C110.536 5.948 110.698 6.122 110.89 6.278C111.094 6.422 111.322 6.548 111.574 6.656C111.826 6.764 112.078 6.872 112.33 6.98L113.986 7.7C114.346 7.844 114.682 8.012 114.994 8.204C115.318 8.384 115.594 8.6 115.822 8.852C116.062 9.092 116.248 9.38 116.38 9.716C116.524 10.04 116.596 10.418 116.596 10.85C116.596 11.318 116.5 11.756 116.308 12.164C116.116 12.572 115.84 12.932 115.48 13.244C115.12 13.544 114.682 13.784 114.166 13.964C113.65 14.132 113.068 14.216 112.42 14.216ZM124.815 14.216C124.179 14.216 123.645 14.132 123.213 13.964C122.781 13.784 122.433 13.538 122.169 13.226C121.905 12.902 121.713 12.518 121.593 12.074C121.485 11.63 121.431 11.138 121.431 10.598V6.458H118.965V5.342L121.485 5.252L121.683 2.444H122.907V5.252H127.209V6.458H122.907V10.616C122.907 11.012 122.943 11.36 123.015 11.66C123.087 11.948 123.207 12.194 123.375 12.398C123.543 12.602 123.771 12.758 124.059 12.866C124.347 12.962 124.701 13.01 125.121 13.01C125.541 13.01 125.919 12.974 126.255 12.902C126.591 12.83 126.915 12.734 127.227 12.614L127.551 13.694C127.155 13.838 126.735 13.958 126.291 14.054C125.859 14.162 125.367 14.216 124.815 14.216ZM131.144 14V5.252H132.368L132.494 7.322H132.548C133.004 6.614 133.562 6.056 134.222 5.648C134.894 5.24 135.638 5.036 136.454 5.036C136.778 5.036 137.078 5.066 137.354 5.126C137.63 5.174 137.906 5.264 138.182 5.396L137.84 6.674C137.528 6.566 137.264 6.488 137.048 6.44C136.844 6.392 136.568 6.368 136.22 6.368C135.56 6.368 134.924 6.56 134.312 6.944C133.712 7.316 133.148 7.958 132.62 8.87V14H131.144ZM144.997 14V6.458H140.929V5.252H146.473V14H144.997ZM145.573 3.416C145.237 3.416 144.955 3.314 144.727 3.11C144.499 2.894 144.385 2.612 144.385 2.264C144.385 1.916 144.499 1.64 144.727 1.436C144.955 1.22 145.237 1.112 145.573 1.112C145.909 1.112 146.191 1.22 146.419 1.436C146.647 1.64 146.761 1.916 146.761 2.264C146.761 2.612 146.647 2.894 146.419 3.11C146.191 3.314 145.909 3.416 145.573 3.416ZM151.776 14V5.252H153L153.126 6.746H153.198C153.654 6.254 154.146 5.846 154.674 5.522C155.202 5.198 155.808 5.036 156.492 5.036C157.536 5.036 158.298 5.336 158.778 5.936C159.27 6.524 159.516 7.4 159.516 8.564V14H158.04V8.762C158.04 7.934 157.884 7.322 157.572 6.926C157.26 6.518 156.744 6.314 156.024 6.314C155.76 6.314 155.514 6.35 155.286 6.422C155.07 6.482 154.854 6.578 154.638 6.71C154.422 6.842 154.2 7.01 153.972 7.214C153.744 7.406 153.504 7.634 153.252 7.898V14H151.776ZM166.223 18.032C164.939 18.032 163.943 17.822 163.235 17.402C162.539 16.982 162.191 16.382 162.191 15.602C162.191 15.254 162.311 14.912 162.551 14.576C162.803 14.24 163.163 13.934 163.631 13.658V13.586C163.391 13.454 163.181 13.274 163.001 13.046C162.821 12.818 162.731 12.518 162.731 12.146C162.731 11.87 162.821 11.588 163.001 11.3C163.181 11 163.439 10.736 163.775 10.508V10.436C163.475 10.208 163.217 9.908 163.001 9.536C162.797 9.152 162.695 8.696 162.695 8.168C162.695 7.688 162.785 7.256 162.965 6.872C163.157 6.488 163.409 6.164 163.721 5.9C164.033 5.624 164.393 5.414 164.801 5.27C165.221 5.114 165.665 5.036 166.133 5.036C166.613 5.036 167.045 5.108 167.429 5.252H171.047V6.458H168.779C168.983 6.662 169.157 6.92 169.301 7.232C169.445 7.544 169.517 7.874 169.517 8.222C169.517 8.69 169.427 9.11 169.247 9.482C169.079 9.854 168.839 10.172 168.527 10.436C168.227 10.688 167.867 10.886 167.447 11.03C167.039 11.162 166.601 11.228 166.133 11.228C165.905 11.228 165.659 11.204 165.395 11.156C165.143 11.096 164.897 11.012 164.657 10.904C164.201 11.192 163.973 11.528 163.973 11.912C163.973 12.26 164.129 12.518 164.441 12.686C164.765 12.842 165.215 12.92 165.791 12.92H167.753C168.881 12.92 169.715 13.076 170.255 13.388C170.807 13.7 171.083 14.228 171.083 14.972C171.083 15.38 170.969 15.77 170.741 16.142C170.513 16.514 170.189 16.838 169.769 17.114C169.349 17.39 168.839 17.612 168.239 17.78C167.639 17.948 166.967 18.032 166.223 18.032ZM166.133 10.238C166.697 10.238 167.171 10.052 167.555 9.68C167.951 9.308 168.149 8.804 168.149 8.168C168.149 7.868 168.095 7.592 167.987 7.34C167.879 7.088 167.735 6.872 167.555 6.692C167.375 6.512 167.159 6.374 166.907 6.278C166.667 6.17 166.409 6.116 166.133 6.116C165.857 6.116 165.593 6.17 165.341 6.278C165.101 6.374 164.891 6.512 164.711 6.692C164.531 6.872 164.387 7.088 164.279 7.34C164.171 7.592 164.117 7.868 164.117 8.168C164.117 8.804 164.315 9.308 164.711 9.68C165.107 10.052 165.581 10.238 166.133 10.238ZM166.331 16.952C166.835 16.952 167.291 16.904 167.699 16.808C168.107 16.712 168.455 16.58 168.743 16.412C169.031 16.256 169.247 16.07 169.391 15.854C169.547 15.65 169.625 15.434 169.625 15.206C169.625 14.786 169.457 14.504 169.121 14.36C168.797 14.216 168.299 14.144 167.627 14.144H165.917C165.665 14.144 165.425 14.132 165.197 14.108C164.981 14.096 164.777 14.06 164.585 14C164.165 14.228 163.871 14.462 163.703 14.702C163.547 14.954 163.469 15.206 163.469 15.458C163.469 15.914 163.709 16.274 164.189 16.538C164.681 16.814 165.395 16.952 166.331 16.952ZM174.694 17.168L173.884 16.412C175.096 15.392 175.984 14.282 176.548 13.082C177.124 11.882 177.412 10.52 177.412 8.996C177.412 7.472 177.124 6.11 176.548 4.91C175.984 3.71 175.096 2.6 173.884 1.58L174.694 0.823999C175.942 1.796 176.926 2.966 177.646 4.334C178.378 5.702 178.744 7.256 178.744 8.996C178.744 10.736 178.378 12.29 177.646 13.658C176.926 15.026 175.942 16.196 174.694 17.168ZM201.211 16.736C200.647 16.736 200.155 16.694 199.735 16.61C199.315 16.538 198.967 16.412 198.691 16.232C198.415 16.052 198.211 15.806 198.079 15.494C197.947 15.194 197.881 14.81 197.881 14.342C197.881 14.018 197.887 13.712 197.899 13.424C197.923 13.124 197.941 12.836 197.953 12.56C197.977 12.284 197.995 12.008 198.007 11.732C198.031 11.456 198.043 11.168 198.043 10.868C198.043 10.688 198.007 10.52 197.935 10.364C197.863 10.196 197.731 10.046 197.539 9.914C197.347 9.782 197.077 9.674 196.729 9.59C196.393 9.506 195.961 9.464 195.433 9.464V8.528C195.961 8.528 196.393 8.486 196.729 8.402C197.077 8.318 197.347 8.21 197.539 8.078C197.731 7.946 197.863 7.802 197.935 7.646C198.007 7.478 198.043 7.304 198.043 7.124C198.043 6.548 198.013 5.984 197.953 5.432C197.905 4.868 197.881 4.274 197.881 3.65C197.881 3.182 197.947 2.798 198.079 2.498C198.211 2.186 198.415 1.94 198.691 1.76C198.967 1.58 199.315 1.454 199.735 1.382C200.155 1.298 200.647 1.256 201.211 1.256H202.309V2.102H201.373C200.917 2.102 200.539 2.132 200.239 2.192C199.951 2.252 199.723 2.348 199.555 2.48C199.399 2.612 199.291 2.786 199.231 3.002C199.171 3.206 199.141 3.452 199.141 3.74C199.141 4.256 199.159 4.79 199.195 5.342C199.231 5.882 199.249 6.434 199.249 6.998C199.249 7.586 199.129 8.036 198.889 8.348C198.661 8.648 198.235 8.852 197.611 8.96V9.032C198.235 9.14 198.661 9.35 198.889 9.662C199.129 9.962 199.249 10.406 199.249 10.994C199.249 11.606 199.231 12.164 199.195 12.668C199.159 13.172 199.141 13.7 199.141 14.252C199.141 14.54 199.171 14.786 199.231 14.99C199.291 15.206 199.399 15.38 199.555 15.512C199.723 15.644 199.951 15.74 200.239 15.8C200.539 15.86 200.917 15.89 201.373 15.89H202.309V16.736H201.211ZM28.5239 39.736C27.9599 39.736 27.4679 39.694 27.0479 39.61C26.6279 39.538 26.2799 39.412 26.0039 39.232C25.7279 39.052 25.5239 38.806 25.3919 38.494C25.2599 38.194 25.1939 37.81 25.1939 37.342C25.1939 37.018 25.1999 36.712 25.2119 36.424C25.2359 36.124 25.2539 35.836 25.2659 35.56C25.2899 35.284 25.3079 35.008 25.3199 34.732C25.3439 34.456 25.3559 34.168 25.3559 33.868C25.3559 33.688 25.3199 33.52 25.2479 33.364C25.1759 33.196 25.0439 33.046 24.8519 32.914C24.6599 32.782 24.3899 32.674 24.0419 32.59C23.7059 32.506 23.2739 32.464 22.7459 32.464V31.528C23.2739 31.528 23.7059 31.486 24.0419 31.402C24.3899 31.318 24.6599 31.21 24.8519 31.078C25.0439 30.946 25.1759 30.802 25.2479 30.646C25.3199 30.478 25.3559 30.304 25.3559 30.124C25.3559 29.548 25.3259 28.984 25.2659 28.432C25.2179 27.868 25.1939 27.274 25.1939 26.65C25.1939 26.182 25.2599 25.798 25.3919 25.498C25.5239 25.186 25.7279 24.94 26.0039 24.76C26.2799 24.58 26.6279 24.454 27.0479 24.382C27.4679 24.298 27.9599 24.256 28.5239 24.256H29.6219V25.102H28.6859C28.2299 25.102 27.8519 25.132 27.5519 25.192C27.2639 25.252 27.0359 25.348 26.8679 25.48C26.7119 25.612 26.6039 25.786 26.5439 26.002C26.4839 26.206 26.4539 26.452 26.4539 26.74C26.4539 27.256 26.4719 27.79 26.5079 28.342C26.5439 28.882 26.5619 29.434 26.5619 29.998C26.5619 30.586 26.4419 31.036 26.2019 31.348C25.9739 31.648 25.5479 31.852 24.9239 31.96V32.032C25.5479 32.14 25.9739 32.35 26.2019 32.662C26.4419 32.962 26.5619 33.406 26.5619 33.994C26.5619 34.606 26.5439 35.164 26.5079 35.668C26.4719 36.172 26.4539 36.7 26.4539 37.252C26.4539 37.54 26.4839 37.786 26.5439 37.99C26.6039 38.206 26.7119 38.38 26.8679 38.512C27.0359 38.644 27.2639 38.74 27.5519 38.8C27.8519 38.86 28.2299 38.89 28.6859 38.89H29.6219V39.736H28.5239ZM49.4979 60.216C48.5619 60.216 47.8479 59.952 47.3559 59.424C46.8639 58.896 46.6179 58.11 46.6179 57.066V48.39H43.5039V47.184H48.0939V57.174C48.0939 57.822 48.2499 58.29 48.5619 58.578C48.8739 58.854 49.2939 58.992 49.8219 58.992C50.3379 58.992 50.8839 58.86 51.4599 58.596L51.8379 59.694C51.4299 59.862 51.0579 59.988 50.7219 60.072C50.3859 60.168 49.9779 60.216 49.4979 60.216ZM58.9048 60.216C58.2448 60.216 57.6268 60.114 57.0508 59.91C56.4868 59.706 55.9888 59.406 55.5568 59.01C55.1368 58.614 54.8008 58.134 54.5488 57.57C54.3088 56.994 54.1888 56.34 54.1888 55.608C54.1888 54.9 54.3088 54.264 54.5488 53.7C54.8008 53.136 55.1308 52.656 55.5388 52.26C55.9588 51.864 56.4328 51.564 56.9608 51.36C57.5008 51.144 58.0648 51.036 58.6528 51.036C59.2768 51.036 59.8348 51.138 60.3268 51.342C60.8308 51.534 61.2508 51.81 61.5868 52.17C61.9348 52.53 62.1988 52.962 62.3788 53.466C62.5588 53.97 62.6488 54.528 62.6488 55.14C62.6488 55.308 62.6428 55.47 62.6308 55.626C62.6188 55.782 62.6008 55.92 62.5768 56.04H55.6828C55.7788 57.036 56.1388 57.786 56.7628 58.29C57.3988 58.782 58.1728 59.028 59.0848 59.028C59.6128 59.028 60.0868 58.956 60.5068 58.812C60.9388 58.656 61.3528 58.452 61.7488 58.2L62.2888 59.172C61.8568 59.46 61.3588 59.706 60.7948 59.91C60.2428 60.114 59.6128 60.216 58.9048 60.216ZM58.6888 52.206C58.3288 52.206 57.9808 52.266 57.6448 52.386C57.3208 52.506 57.0268 52.68 56.7628 52.908C56.4988 53.124 56.2768 53.4 56.0968 53.736C55.9168 54.072 55.7908 54.456 55.7188 54.888H61.2988C61.2388 53.988 60.9748 53.316 60.5068 52.872C60.0508 52.428 59.4448 52.206 58.6888 52.206ZM70.8498 60.216C70.2138 60.216 69.6798 60.132 69.2478 59.964C68.8158 59.784 68.4678 59.538 68.2038 59.226C67.9398 58.902 67.7478 58.518 67.6278 58.074C67.5198 57.63 67.4658 57.138 67.4658 56.598V52.458H64.9998V51.342L67.5198 51.252L67.7178 48.444H68.9418V51.252H73.2438V52.458H68.9418V56.616C68.9418 57.012 68.9778 57.36 69.0498 57.66C69.1218 57.948 69.2418 58.194 69.4098 58.398C69.5778 58.602 69.8058 58.758 70.0938 58.866C70.3818 58.962 70.7358 59.01 71.1558 59.01C71.5758 59.01 71.9538 58.974 72.2898 58.902C72.6258 58.83 72.9498 58.734 73.2618 58.614L73.5858 59.694C73.1898 59.838 72.7698 59.958 72.3258 60.054C71.8938 60.162 71.4018 60.216 70.8498 60.216ZM86.4958 60L89.8258 55.464L86.7478 51.252H88.3858L89.7718 53.178C89.9278 53.418 90.0898 53.664 90.2578 53.916C90.4378 54.168 90.6178 54.414 90.7978 54.654H90.8698C91.0378 54.414 91.2058 54.162 91.3738 53.898C91.5418 53.634 91.7038 53.382 91.8598 53.142L93.1738 51.252H94.7398L91.6258 55.59L94.9738 60H93.3538L91.8238 57.984C91.6438 57.732 91.4518 57.468 91.2478 57.192C91.0558 56.916 90.8638 56.652 90.6718 56.4H90.5998C90.4198 56.664 90.2398 56.928 90.0598 57.192C89.8798 57.444 89.6998 57.708 89.5198 57.984L88.0798 60H86.4958ZM108.46 52.692V51.576H116.2V52.692H108.46ZM108.46 56.526V55.41H116.2V56.526H108.46ZM134.096 60.216C133.232 60.216 132.434 60.084 131.702 59.82C130.97 59.544 130.334 59.22 129.794 58.848L130.478 57.876C130.982 58.236 131.534 58.524 132.134 58.74C132.746 58.956 133.46 59.064 134.276 59.064C135.02 59.064 135.572 58.932 135.932 58.668C136.304 58.392 136.49 58.068 136.49 57.696C136.49 57.528 136.46 57.372 136.4 57.228C136.34 57.084 136.208 56.946 136.004 56.814C135.812 56.682 135.536 56.556 135.176 56.436C134.816 56.316 134.342 56.196 133.754 56.076C132.614 55.836 131.756 55.518 131.18 55.122C130.616 54.714 130.334 54.18 130.334 53.52C130.334 53.172 130.412 52.848 130.568 52.548C130.724 52.236 130.952 51.972 131.252 51.756C131.564 51.528 131.942 51.354 132.386 51.234C132.842 51.102 133.37 51.036 133.97 51.036C134.642 51.036 135.29 51.15 135.914 51.378C136.538 51.594 137.066 51.852 137.498 52.152L136.778 53.106C136.37 52.83 135.92 52.608 135.428 52.44C134.936 52.272 134.408 52.188 133.844 52.188C133.1 52.188 132.578 52.314 132.278 52.566C131.978 52.818 131.828 53.112 131.828 53.448C131.828 53.832 132.026 54.126 132.422 54.33C132.818 54.522 133.466 54.714 134.366 54.906C135.098 55.062 135.698 55.23 136.166 55.41C136.634 55.578 137 55.77 137.264 55.986C137.54 56.202 137.726 56.442 137.822 56.706C137.93 56.97 137.984 57.27 137.984 57.606C137.984 57.966 137.9 58.302 137.732 58.614C137.564 58.926 137.312 59.202 136.976 59.442C136.652 59.682 136.244 59.868 135.752 60C135.272 60.144 134.72 60.216 134.096 60.216ZM144.709 53.772C144.301 53.772 143.953 53.634 143.665 53.358C143.389 53.082 143.251 52.716 143.251 52.26C143.251 51.804 143.389 51.438 143.665 51.162C143.953 50.874 144.301 50.73 144.709 50.73C145.117 50.73 145.459 50.874 145.735 51.162C146.023 51.438 146.167 51.804 146.167 52.26C146.167 52.716 146.023 53.082 145.735 53.358C145.459 53.634 145.117 53.772 144.709 53.772ZM143.269 63.834L142.855 62.898C143.599 62.562 144.157 62.154 144.529 61.674C144.901 61.206 145.099 60.612 145.123 59.892C145.063 59.916 145.003 59.928 144.943 59.928C144.895 59.928 144.841 59.928 144.781 59.928C144.397 59.928 144.067 59.82 143.791 59.604C143.515 59.376 143.377 59.034 143.377 58.578C143.377 58.134 143.521 57.798 143.809 57.57C144.097 57.33 144.433 57.21 144.817 57.21C145.357 57.21 145.759 57.42 146.023 57.84C146.299 58.248 146.437 58.806 146.437 59.514C146.437 60.57 146.155 61.458 145.591 62.178C145.039 62.91 144.265 63.462 143.269 63.834ZM43.8459 86.69V74.252H45.0699L45.1959 75.368H45.2499C45.6579 74.984 46.1259 74.666 46.6539 74.414C47.1939 74.162 47.7339 74.036 48.2739 74.036C48.8619 74.036 49.3779 74.144 49.8219 74.36C50.2779 74.564 50.6559 74.864 50.9559 75.26C51.2679 75.644 51.5019 76.112 51.6579 76.664C51.8139 77.204 51.8919 77.816 51.8919 78.5C51.8919 79.244 51.7839 79.91 51.5679 80.498C51.3519 81.074 51.0579 81.566 50.6859 81.974C50.3259 82.382 49.9059 82.694 49.4259 82.91C48.9459 83.114 48.4419 83.216 47.9139 83.216C47.5059 83.216 47.0619 83.12 46.5819 82.928C46.1139 82.724 45.6879 82.442 45.3039 82.082H45.2499L45.3219 83.738V86.69H43.8459ZM47.6619 81.974C48.4539 81.974 49.1019 81.668 49.6059 81.056C50.1099 80.444 50.3619 79.592 50.3619 78.5C50.3619 78.02 50.3139 77.582 50.2179 77.186C50.1219 76.79 49.9719 76.454 49.7679 76.178C49.5759 75.89 49.3239 75.668 49.0119 75.512C48.6999 75.356 48.3279 75.278 47.8959 75.278C47.5119 75.278 47.0979 75.386 46.6539 75.602C46.2219 75.806 45.7779 76.136 45.3219 76.592V80.948C45.7419 81.32 46.1619 81.584 46.5819 81.74C47.0019 81.896 47.3619 81.974 47.6619 81.974ZM55.5928 83V74.252H56.8168L56.9428 76.322H56.9968C57.4528 75.614 58.0108 75.056 58.6708 74.648C59.3428 74.24 60.0868 74.036 60.9028 74.036C61.2268 74.036 61.5268 74.066 61.8028 74.126C62.0788 74.174 62.3548 74.264 62.6308 74.396L62.2888 75.674C61.9768 75.566 61.7128 75.488 61.4968 75.44C61.2928 75.392 61.0168 75.368 60.6688 75.368C60.0088 75.368 59.3728 75.56 58.7608 75.944C58.1608 76.316 57.5968 76.958 57.0688 77.87V83H55.5928ZM69.4458 83V75.458H65.3778V74.252H70.9218V83H69.4458ZM70.0218 72.416C69.6858 72.416 69.4038 72.314 69.1758 72.11C68.9478 71.894 68.8338 71.612 68.8338 71.264C68.8338 70.916 68.9478 70.64 69.1758 70.436C69.4038 70.22 69.6858 70.112 70.0218 70.112C70.3578 70.112 70.6398 70.22 70.8678 70.436C71.0958 70.64 71.2098 70.916 71.2098 71.264C71.2098 71.612 71.0958 71.894 70.8678 72.11C70.6398 72.314 70.3578 72.416 70.0218 72.416ZM76.2248 83V74.252H77.4488L77.5748 75.746H77.6468C78.1028 75.254 78.5948 74.846 79.1228 74.522C79.6508 74.198 80.2568 74.036 80.9408 74.036C81.9848 74.036 82.7468 74.336 83.2268 74.936C83.7188 75.524 83.9648 76.4 83.9648 77.564V83H82.4888V77.762C82.4888 76.934 82.3328 76.322 82.0208 75.926C81.7088 75.518 81.1928 75.314 80.4728 75.314C80.2088 75.314 79.9628 75.35 79.7348 75.422C79.5188 75.482 79.3028 75.578 79.0868 75.71C78.8708 75.842 78.6488 76.01 78.4208 76.214C78.1928 76.406 77.9528 76.634 77.7008 76.898V83H76.2248ZM92.4358 83.216C91.7998 83.216 91.2658 83.132 90.8338 82.964C90.4018 82.784 90.0538 82.538 89.7898 82.226C89.5258 81.902 89.3338 81.518 89.2138 81.074C89.1058 80.63 89.0518 80.138 89.0518 79.598V75.458H86.5858V74.342L89.1058 74.252L89.3038 71.444H90.5278V74.252H94.8298V75.458H90.5278V79.616C90.5278 80.012 90.5638 80.36 90.6357 80.66C90.7078 80.948 90.8278 81.194 90.9958 81.398C91.1638 81.602 91.3918 81.758 91.6798 81.866C91.9678 81.962 92.3218 82.01 92.7418 82.01C93.1618 82.01 93.5398 81.974 93.8758 81.902C94.2118 81.83 94.5358 81.734 94.8477 81.614L95.1718 82.694C94.7758 82.838 94.3558 82.958 93.9118 83.054C93.4798 83.162 92.9878 83.216 92.4358 83.216ZM103.463 83.216C102.527 83.216 101.813 82.952 101.321 82.424C100.829 81.896 100.583 81.11 100.583 80.066V71.39H97.4687V70.184H102.059V80.174C102.059 80.822 102.215 81.29 102.527 81.578C102.839 81.854 103.259 81.992 103.787 81.992C104.303 81.992 104.849 81.86 105.425 81.596L105.803 82.694C105.395 82.862 105.023 82.988 104.687 83.072C104.351 83.168 103.943 83.216 103.463 83.216ZM108.604 83V74.252H109.828L109.954 75.746H110.026C110.482 75.254 110.974 74.846 111.502 74.522C112.03 74.198 112.636 74.036 113.32 74.036C114.364 74.036 115.126 74.336 115.606 74.936C116.098 75.524 116.344 76.4 116.344 77.564V83H114.868V77.762C114.868 76.934 114.712 76.322 114.4 75.926C114.088 75.518 113.572 75.314 112.852 75.314C112.588 75.314 112.342 75.35 112.114 75.422C111.898 75.482 111.682 75.578 111.466 75.71C111.25 75.842 111.028 76.01 110.8 76.214C110.572 76.406 110.332 76.634 110.08 76.898V83H108.604ZM122.619 78.824L122.439 72.632L122.403 70.94H123.843L123.807 72.632L123.627 78.824H122.619ZM123.123 83.216C122.763 83.216 122.451 83.09 122.187 82.838C121.935 82.586 121.809 82.244 121.809 81.812C121.809 81.392 121.935 81.062 122.187 80.822C122.451 80.57 122.763 80.444 123.123 80.444C123.483 80.444 123.789 80.57 124.041 80.822C124.305 81.062 124.437 81.392 124.437 81.812C124.437 82.244 124.305 82.586 124.041 82.838C123.789 83.09 123.483 83.216 123.123 83.216ZM136.31 86.168C135.062 85.196 134.072 84.026 133.34 82.658C132.62 81.29 132.26 79.736 132.26 77.996C132.26 76.256 132.62 74.702 133.34 73.334C134.072 71.966 135.062 70.796 136.31 69.824L137.12 70.58C135.908 71.6 135.014 72.71 134.438 73.91C133.874 75.11 133.592 76.472 133.592 77.996C133.592 79.52 133.874 80.882 134.438 82.082C135.014 83.282 135.908 84.392 137.12 85.412L136.31 86.168ZM142.153 76.664L141.703 72.614L141.667 70.634H143.647L143.611 72.614L143.161 76.664H142.153ZM146.275 76.664L145.825 72.614L145.789 70.634H147.769L147.733 72.614L147.283 76.664H146.275ZM154.278 76.394L153.72 78.194H157.248L156.69 76.394C156.486 75.734 156.282 75.08 156.078 74.432C155.886 73.772 155.7 73.1 155.52 72.416H155.448C155.256 73.1 155.064 73.772 154.872 74.432C154.68 75.08 154.482 75.734 154.278 76.394ZM150.678 83L154.656 71.192H156.348L160.326 83H158.742L157.626 79.4H153.342L152.208 83H150.678ZM163.253 86.762C162.821 86.762 162.437 86.702 162.101 86.582L162.407 85.412C162.527 85.448 162.653 85.478 162.785 85.502C162.929 85.526 163.067 85.538 163.199 85.538C163.811 85.538 164.309 85.358 164.693 84.998C165.077 84.65 165.377 84.206 165.593 83.666L165.863 83.018L161.777 74.252H163.271L165.413 79.094C165.581 79.478 165.755 79.892 165.935 80.336C166.127 80.78 166.313 81.212 166.493 81.632H166.565C166.721 81.212 166.877 80.786 167.033 80.354C167.201 79.91 167.357 79.49 167.501 79.094L169.409 74.252H170.813L166.961 83.72C166.793 84.152 166.601 84.554 166.385 84.926C166.169 85.298 165.911 85.616 165.611 85.88C165.311 86.156 164.963 86.372 164.567 86.528C164.183 86.684 163.745 86.762 163.253 86.762ZM177.628 83.216C176.968 83.216 176.35 83.114 175.774 82.91C175.21 82.706 174.712 82.406 174.28 82.01C173.86 81.614 173.524 81.134 173.272 80.57C173.032 79.994 172.912 79.34 172.912 78.608C172.912 77.9 173.032 77.264 173.272 76.7C173.524 76.136 173.854 75.656 174.262 75.26C174.682 74.864 175.156 74.564 175.684 74.36C176.224 74.144 176.788 74.036 177.376 74.036C178 74.036 178.558 74.138 179.05 74.342C179.554 74.534 179.974 74.81 180.31 75.17C180.658 75.53 180.922 75.962 181.102 76.466C181.282 76.97 181.372 77.528 181.372 78.14C181.372 78.308 181.366 78.47 181.354 78.626C181.342 78.782 181.324 78.92 181.3 79.04H174.406C174.502 80.036 174.862 80.786 175.486 81.29C176.122 81.782 176.896 82.028 177.808 82.028C178.336 82.028 178.81 81.956 179.23 81.812C179.662 81.656 180.076 81.452 180.472 81.2L181.012 82.172C180.58 82.46 180.082 82.706 179.518 82.91C178.966 83.114 178.336 83.216 177.628 83.216ZM177.412 75.206C177.052 75.206 176.704 75.266 176.368 75.386C176.044 75.506 175.75 75.68 175.486 75.908C175.222 76.124 175 76.4 174.82 76.736C174.64 77.072 174.514 77.456 174.442 77.888H180.022C179.962 76.988 179.698 76.316 179.23 75.872C178.774 75.428 178.168 75.206 177.412 75.206ZM186.44 86.834L186.026 85.898C186.77 85.562 187.328 85.154 187.7 84.674C188.072 84.206 188.27 83.612 188.294 82.892C188.234 82.916 188.174 82.928 188.114 82.928C188.066 82.928 188.012 82.928 187.952 82.928C187.568 82.928 187.238 82.82 186.962 82.604C186.686 82.376 186.548 82.034 186.548 81.578C186.548 81.134 186.692 80.798 186.98 80.57C187.268 80.33 187.604 80.21 187.988 80.21C188.528 80.21 188.93 80.42 189.194 80.84C189.47 81.248 189.608 81.806 189.608 82.514C189.608 83.57 189.326 84.458 188.762 85.178C188.21 85.91 187.436 86.462 186.44 86.834ZM212.004 85.736C211.44 85.736 210.948 85.694 210.528 85.61C210.108 85.538 209.76 85.412 209.484 85.232C209.208 85.052 209.004 84.806 208.872 84.494C208.74 84.194 208.674 83.81 208.674 83.342C208.674 83.018 208.68 82.712 208.692 82.424C208.716 82.124 208.734 81.836 208.746 81.56C208.77 81.284 208.788 81.008 208.8 80.732C208.824 80.456 208.836 80.168 208.836 79.868C208.836 79.688 208.8 79.52 208.728 79.364C208.656 79.196 208.524 79.046 208.332 78.914C208.14 78.782 207.87 78.674 207.522 78.59C207.186 78.506 206.754 78.464 206.226 78.464V77.528C206.754 77.528 207.186 77.486 207.522 77.402C207.87 77.318 208.14 77.21 208.332 77.078C208.524 76.946 208.656 76.802 208.728 76.646C208.8 76.478 208.836 76.304 208.836 76.124C208.836 75.548 208.806 74.984 208.746 74.432C208.698 73.868 208.674 73.274 208.674 72.65C208.674 72.182 208.74 71.798 208.872 71.498C209.004 71.186 209.208 70.94 209.484 70.76C209.76 70.58 210.108 70.454 210.528 70.382C210.948 70.298 211.44 70.256 212.004 70.256H213.102V71.102H212.166C211.71 71.102 211.332 71.132 211.032 71.192C210.744 71.252 210.516 71.348 210.348 71.48C210.192 71.612 210.084 71.786 210.024 72.002C209.964 72.206 209.934 72.452 209.934 72.74C209.934 73.256 209.952 73.79 209.988 74.342C210.024 74.882 210.042 75.434 210.042 75.998C210.042 76.586 209.922 77.036 209.682 77.348C209.454 77.648 209.028 77.852 208.404 77.96V78.032C209.028 78.14 209.454 78.35 209.682 78.662C209.922 78.962 210.042 79.406 210.042 79.994C210.042 80.606 210.024 81.164 209.988 81.668C209.952 82.172 209.934 82.7 209.934 83.252C209.934 83.54 209.964 83.786 210.024 83.99C210.084 84.206 210.192 84.38 210.348 84.512C210.516 84.644 210.744 84.74 211.032 84.8C211.332 84.86 211.71 84.89 212.166 84.89H213.102V85.736H212.004ZM216.641 85.736V84.89H217.559C218.015 84.89 218.387 84.86 218.675 84.8C218.975 84.74 219.209 84.644 219.377 84.512C219.545 84.38 219.659 84.206 219.719 83.99C219.779 83.786 219.809 83.54 219.809 83.252C219.809 82.7 219.791 82.172 219.755 81.668C219.719 81.164 219.701 80.606 219.701 79.994C219.701 79.406 219.815 78.962 220.043 78.662C220.271 78.35 220.697 78.14 221.321 78.032V77.96C220.697 77.852 220.271 77.648 220.043 77.348C219.815 77.036 219.701 76.586 219.701 75.998C219.701 75.434 219.719 74.882 219.755 74.342C219.791 73.79 219.809 73.256 219.809 72.74C219.809 72.452 219.779 72.206 219.719 72.002C219.659 71.786 219.545 71.612 219.377 71.48C219.209 71.348 218.975 71.252 218.675 71.192C218.387 71.132 218.015 71.102 217.559 71.102H216.641V70.256H217.739C218.303 70.256 218.789 70.298 219.197 70.382C219.617 70.454 219.965 70.58 220.241 70.76C220.517 70.94 220.721 71.186 220.853 71.498C220.985 71.798 221.051 72.182 221.051 72.65C221.051 73.274 221.021 73.868 220.961 74.432C220.913 74.984 220.889 75.548 220.889 76.124C220.889 76.304 220.925 76.478 220.997 76.646C221.069 76.802 221.201 76.946 221.393 77.078C221.585 77.21 221.849 77.318 222.185 77.402C222.533 77.486 222.971 77.528 223.499 77.528V78.464C222.971 78.464 222.533 78.506 222.185 78.59C221.849 78.674 221.585 78.782 221.393 78.914C221.201 79.046 221.069 79.196 220.997 79.364C220.925 79.52 220.889 79.688 220.889 79.868C220.889 80.168 220.895 80.456 220.907 80.732C220.931 81.008 220.949 81.284 220.961 81.56C220.985 81.836 221.003 82.124 221.015 82.424C221.039 82.712 221.051 83.018 221.051 83.342C221.051 83.81 220.985 84.194 220.853 84.494C220.721 84.806 220.517 85.052 220.241 85.232C219.965 85.412 219.617 85.538 219.197 85.61C218.789 85.694 218.303 85.736 217.739 85.736H216.641ZM230.548 78.824L230.368 72.632L230.332 70.94H231.772L231.736 72.632L231.556 78.824H230.548ZM231.052 83.216C230.692 83.216 230.38 83.09 230.116 82.838C229.864 82.586 229.738 82.244 229.738 81.812C229.738 81.392 229.864 81.062 230.116 80.822C230.38 80.57 230.692 80.444 231.052 80.444C231.412 80.444 231.718 80.57 231.97 80.822C232.234 81.062 232.366 81.392 232.366 81.812C232.366 82.244 232.234 82.586 231.97 82.838C231.718 83.09 231.412 83.216 231.052 83.216ZM239.289 76.664L238.839 72.614L238.803 70.634H240.783L240.747 72.614L240.297 76.664H239.289ZM243.411 76.664L242.961 72.614L242.925 70.634H244.905L244.869 72.614L244.419 76.664H243.411ZM251.198 86.834L250.784 85.898C251.528 85.562 252.086 85.154 252.458 84.674C252.83 84.206 253.028 83.612 253.052 82.892C252.992 82.916 252.932 82.928 252.872 82.928C252.824 82.928 252.77 82.928 252.71 82.928C252.326 82.928 251.996 82.82 251.72 82.604C251.444 82.376 251.306 82.034 251.306 81.578C251.306 81.134 251.45 80.798 251.738 80.57C252.026 80.33 252.362 80.21 252.746 80.21C253.286 80.21 253.688 80.42 253.952 80.84C254.228 81.248 254.366 81.806 254.366 82.514C254.366 83.57 254.084 84.458 253.52 85.178C252.968 85.91 252.194 86.462 251.198 86.834ZM269.976 83L273.306 78.464L270.228 74.252H271.866L273.252 76.178C273.408 76.418 273.57 76.664 273.738 76.916C273.918 77.168 274.098 77.414 274.278 77.654H274.35C274.518 77.414 274.686 77.162 274.854 76.898C275.022 76.634 275.184 76.382 275.34 76.142L276.654 74.252H278.22L275.106 78.59L278.454 83H276.834L275.304 80.984C275.124 80.732 274.932 80.468 274.728 80.192C274.536 79.916 274.344 79.652 274.152 79.4H274.08C273.9 79.664 273.72 79.928 273.54 80.192C273.36 80.444 273.18 80.708 273 80.984L271.56 83H269.976ZM282.623 86.168L281.813 85.412C283.025 84.392 283.913 83.282 284.477 82.082C285.053 80.882 285.341 79.52 285.341 77.996C285.341 76.472 285.053 75.11 284.477 73.91C283.913 72.71 283.025 71.6 281.813 70.58L282.623 69.824C283.871 70.796 284.855 71.966 285.575 73.334C286.307 74.702 286.673 76.256 286.673 77.996C286.673 79.736 286.307 81.29 285.575 82.658C284.855 84.026 283.871 85.196 282.623 86.168ZM295.81 76.772C295.402 76.772 295.054 76.634 294.766 76.358C294.49 76.082 294.352 75.716 294.352 75.26C294.352 74.804 294.49 74.438 294.766 74.162C295.054 73.874 295.402 73.73 295.81 73.73C296.218 73.73 296.56 73.874 296.836 74.162C297.124 74.438 297.268 74.804 297.268 75.26C297.268 75.716 297.124 76.082 296.836 76.358C296.56 76.634 296.218 76.772 295.81 76.772ZM294.37 86.834L293.956 85.898C294.7 85.562 295.258 85.154 295.63 84.674C296.002 84.206 296.2 83.612 296.224 82.892C296.164 82.916 296.104 82.928 296.044 82.928C295.996 82.928 295.942 82.928 295.882 82.928C295.498 82.928 295.168 82.82 294.892 82.604C294.616 82.376 294.478 82.034 294.478 81.578C294.478 81.134 294.622 80.798 294.91 80.57C295.198 80.33 295.534 80.21 295.918 80.21C296.458 80.21 296.86 80.42 297.124 80.84C297.4 81.248 297.538 81.806 297.538 82.514C297.538 83.57 297.256 84.458 296.692 85.178C296.14 85.91 295.366 86.462 294.37 86.834ZM22.3679 108.736V107.89H23.2859C23.7419 107.89 24.1139 107.86 24.4019 107.8C24.7019 107.74 24.9359 107.644 25.1039 107.512C25.2719 107.38 25.3859 107.206 25.4459 106.99C25.5059 106.786 25.5359 106.54 25.5359 106.252C25.5359 105.7 25.5179 105.172 25.4819 104.668C25.4459 104.164 25.4279 103.606 25.4279 102.994C25.4279 102.406 25.5419 101.962 25.7699 101.662C25.9979 101.35 26.4239 101.14 27.0479 101.032V100.96C26.4239 100.852 25.9979 100.648 25.7699 100.348C25.5419 100.036 25.4279 99.586 25.4279 98.998C25.4279 98.434 25.4459 97.882 25.4819 97.342C25.5179 96.79 25.5359 96.256 25.5359 95.74C25.5359 95.452 25.5059 95.206 25.4459 95.002C25.3859 94.786 25.2719 94.612 25.1039 94.48C24.9359 94.348 24.7019 94.252 24.4019 94.192C24.1139 94.132 23.7419 94.102 23.2859 94.102H22.3679V93.256H23.4659C24.0299 93.256 24.5159 93.298 24.9239 93.382C25.3439 93.454 25.6919 93.58 25.9679 93.76C26.2439 93.94 26.4479 94.186 26.5799 94.498C26.7119 94.798 26.7779 95.182 26.7779 95.65C26.7779 96.274 26.7479 96.868 26.6879 97.432C26.6399 97.984 26.6159 98.548 26.6159 99.124C26.6159 99.304 26.6519 99.478 26.7239 99.646C26.7959 99.802 26.9279 99.946 27.1199 100.078C27.3119 100.21 27.5759 100.318 27.9119 100.402C28.2599 100.486 28.6979 100.528 29.2259 100.528V101.464C28.6979 101.464 28.2599 101.506 27.9119 101.59C27.5759 101.674 27.3119 101.782 27.1199 101.914C26.9279 102.046 26.7959 102.196 26.7239 102.364C26.6519 102.52 26.6159 102.688 26.6159 102.868C26.6159 103.168 26.6219 103.456 26.6339 103.732C26.6579 104.008 26.6759 104.284 26.6879 104.56C26.7119 104.836 26.7299 105.124 26.7419 105.424C26.7659 105.712 26.7779 106.018 26.7779 106.342C26.7779 106.81 26.7119 107.194 26.5799 107.494C26.4479 107.806 26.2439 108.052 25.9679 108.232C25.6919 108.412 25.3439 108.538 24.9239 108.61C24.5159 108.694 24.0299 108.736 23.4659 108.736H22.3679ZM22.2599 132.69V120.252H23.4839L23.6099 121.368H23.6639C24.0719 120.984 24.5399 120.666 25.0679 120.414C25.6079 120.162 26.1479 120.036 26.6879 120.036C27.2759 120.036 27.7919 120.144 28.2359 120.36C28.6919 120.564 29.0699 120.864 29.3699 121.26C29.6819 121.644 29.9159 122.112 30.0719 122.664C30.2279 123.204 30.3059 123.816 30.3059 124.5C30.3059 125.244 30.1979 125.91 29.9819 126.498C29.7659 127.074 29.4719 127.566 29.0999 127.974C28.7399 128.382 28.3199 128.694 27.8399 128.91C27.3599 129.114 26.8559 129.216 26.3279 129.216C25.9199 129.216 25.4759 129.12 24.9959 128.928C24.5279 128.724 24.1019 128.442 23.7179 128.082H23.6639L23.7359 129.738V132.69H22.2599ZM26.0759 127.974C26.8679 127.974 27.5159 127.668 28.0199 127.056C28.5239 126.444 28.7759 125.592 28.7759 124.5C28.7759 124.02 28.7279 123.582 28.6319 123.186C28.5359 122.79 28.3859 122.454 28.1819 122.178C27.9899 121.89 27.7379 121.668 27.4259 121.512C27.1139 121.356 26.7419 121.278 26.3099 121.278C25.9259 121.278 25.5119 121.386 25.0679 121.602C24.6359 121.806 24.1919 122.136 23.7359 122.592V126.948C24.1559 127.32 24.5759 127.584 24.9959 127.74C25.4159 127.896 25.7759 127.974 26.0759 127.974ZM34.0069 129V120.252H35.2309L35.3569 122.322H35.4109C35.8669 121.614 36.4249 121.056 37.0849 120.648C37.7569 120.24 38.5009 120.036 39.3169 120.036C39.6409 120.036 39.9409 120.066 40.2169 120.126C40.4929 120.174 40.7689 120.264 41.0449 120.396L40.7029 121.674C40.3909 121.566 40.1269 121.488 39.9109 121.44C39.7069 121.392 39.4309 121.368 39.0829 121.368C38.4229 121.368 37.7869 121.56 37.1749 121.944C36.5749 122.316 36.0109 122.958 35.4829 123.87V129H34.0069ZM47.8599 129V121.458H43.7919V120.252H49.3359V129H47.8599ZM48.4359 118.416C48.0999 118.416 47.8179 118.314 47.5899 118.11C47.3619 117.894 47.2479 117.612 47.2479 117.264C47.2479 116.916 47.3619 116.64 47.5899 116.436C47.8179 116.22 48.0999 116.112 48.4359 116.112C48.7719 116.112 49.0539 116.22 49.2819 116.436C49.5099 116.64 49.6239 116.916 49.6239 117.264C49.6239 117.612 49.5099 117.894 49.2819 118.11C49.0539 118.314 48.7719 118.416 48.4359 118.416ZM54.6388 129V120.252H55.8628L55.9888 121.746H56.0608C56.5168 121.254 57.0088 120.846 57.5368 120.522C58.0648 120.198 58.6708 120.036 59.3548 120.036C60.3988 120.036 61.1608 120.336 61.6408 120.936C62.1328 121.524 62.3788 122.4 62.3788 123.564V129H60.9028V123.762C60.9028 122.934 60.7468 122.322 60.4348 121.926C60.1228 121.518 59.6068 121.314 58.8868 121.314C58.6228 121.314 58.3768 121.35 58.1488 121.422C57.9328 121.482 57.7168 121.578 57.5008 121.71C57.2848 121.842 57.0628 122.01 56.8348 122.214C56.6068 122.406 56.3668 122.634 56.1148 122.898V129H54.6388ZM70.8498 129.216C70.2138 129.216 69.6798 129.132 69.2478 128.964C68.8158 128.784 68.4678 128.538 68.2038 128.226C67.9398 127.902 67.7478 127.518 67.6278 127.074C67.5198 126.63 67.4658 126.138 67.4658 125.598V121.458H64.9998V120.342L67.5198 120.252L67.7178 117.444H68.9418V120.252H73.2438V121.458H68.9418V125.616C68.9418 126.012 68.9778 126.36 69.0498 126.66C69.1218 126.948 69.2418 127.194 69.4098 127.398C69.5778 127.602 69.8058 127.758 70.0938 127.866C70.3818 127.962 70.7358 128.01 71.1558 128.01C71.5758 128.01 71.9538 127.974 72.2898 127.902C72.6258 127.83 72.9498 127.734 73.2618 127.614L73.5858 128.694C73.1898 128.838 72.7698 128.958 72.3258 129.054C71.8938 129.162 71.4018 129.216 70.8498 129.216ZM81.8768 129.216C80.9408 129.216 80.2268 128.952 79.7348 128.424C79.2428 127.896 78.9968 127.11 78.9968 126.066V117.39H75.8828V116.184H80.4728V126.174C80.4728 126.822 80.6288 127.29 80.9408 127.578C81.2528 127.854 81.6728 127.992 82.2008 127.992C82.7168 127.992 83.2628 127.86 83.8388 127.596L84.2168 128.694C83.8088 128.862 83.4368 128.988 83.1008 129.072C82.7648 129.168 82.3568 129.216 81.8768 129.216ZM87.0178 129V120.252H88.2418L88.3678 121.746H88.4398C88.8958 121.254 89.3878 120.846 89.9158 120.522C90.4438 120.198 91.0498 120.036 91.7338 120.036C92.7778 120.036 93.5398 120.336 94.0198 120.936C94.5118 121.524 94.7578 122.4 94.7578 123.564V129H93.2818V123.762C93.2818 122.934 93.1258 122.322 92.8138 121.926C92.5018 121.518 91.9858 121.314 91.2658 121.314C91.0018 121.314 90.7558 121.35 90.5278 121.422C90.3118 121.482 90.0958 121.578 89.8798 121.71C89.6638 121.842 89.4418 122.01 89.2138 122.214C88.9858 122.406 88.7458 122.634 88.4938 122.898V129H87.0178ZM101.033 124.824L100.853 118.632L100.817 116.94H102.257L102.221 118.632L102.041 124.824H101.033ZM101.537 129.216C101.177 129.216 100.865 129.09 100.601 128.838C100.349 128.586 100.223 128.244 100.223 127.812C100.223 127.392 100.349 127.062 100.601 126.822C100.865 126.57 101.177 126.444 101.537 126.444C101.897 126.444 102.203 126.57 102.455 126.822C102.719 127.062 102.851 127.392 102.851 127.812C102.851 128.244 102.719 128.586 102.455 128.838C102.203 129.09 101.897 129.216 101.537 129.216ZM114.724 132.168C113.476 131.196 112.486 130.026 111.754 128.658C111.034 127.29 110.674 125.736 110.674 123.996C110.674 122.256 111.034 120.702 111.754 119.334C112.486 117.966 113.476 116.796 114.724 115.824L115.534 116.58C114.322 117.6 113.428 118.71 112.852 119.91C112.288 121.11 112.006 122.472 112.006 123.996C112.006 125.52 112.288 126.882 112.852 128.082C113.428 129.282 114.322 130.392 115.534 131.412L114.724 132.168ZM120.567 122.664L120.117 118.614L120.081 116.634H122.061L122.025 118.614L121.575 122.664H120.567ZM124.689 122.664L124.239 118.614L124.203 116.634H126.183L126.147 118.614L125.697 122.664H124.689ZM130.298 129V117.192H133.646C134.246 117.192 134.792 117.246 135.284 117.354C135.788 117.462 136.214 117.63 136.562 117.858C136.922 118.086 137.198 118.386 137.39 118.758C137.594 119.118 137.696 119.556 137.696 120.072C137.696 120.66 137.528 121.194 137.192 121.674C136.856 122.142 136.334 122.466 135.626 122.646V122.718C136.49 122.85 137.162 123.15 137.642 123.618C138.122 124.086 138.362 124.728 138.362 125.544C138.362 126.12 138.254 126.624 138.038 127.056C137.822 127.488 137.516 127.848 137.12 128.136C136.736 128.424 136.268 128.64 135.716 128.784C135.176 128.928 134.576 129 133.916 129H130.298ZM131.792 122.16H133.394C134.402 122.16 135.122 121.998 135.554 121.674C135.998 121.35 136.22 120.858 136.22 120.198C136.22 119.55 135.986 119.1 135.518 118.848C135.062 118.584 134.378 118.452 133.466 118.452H131.792V122.16ZM131.792 127.74H133.7C134.72 127.74 135.506 127.566 136.058 127.218C136.61 126.858 136.886 126.276 136.886 125.472C136.886 124.74 136.616 124.218 136.076 123.906C135.536 123.582 134.744 123.42 133.7 123.42H131.792V127.74ZM142.153 122.664L141.703 118.614L141.667 116.634H143.647L143.611 118.614L143.161 122.664H142.153ZM146.275 122.664L145.825 118.614L145.789 116.634H147.769L147.733 118.614L147.283 122.664H146.275ZM153.108 132.168L152.298 131.412C153.51 130.392 154.398 129.282 154.962 128.082C155.538 126.882 155.826 125.52 155.826 123.996C155.826 122.472 155.538 121.11 154.962 119.91C154.398 118.71 153.51 117.6 152.298 116.58L153.108 115.824C154.356 116.796 155.34 117.966 156.06 119.334C156.792 120.702 157.158 122.256 157.158 123.996C157.158 125.736 156.792 127.29 156.06 128.658C155.34 130.026 154.356 131.196 153.108 132.168ZM166.295 122.772C165.887 122.772 165.539 122.634 165.251 122.358C164.975 122.082 164.837 121.716 164.837 121.26C164.837 120.804 164.975 120.438 165.251 120.162C165.539 119.874 165.887 119.73 166.295 119.73C166.703 119.73 167.045 119.874 167.321 120.162C167.609 120.438 167.753 120.804 167.753 121.26C167.753 121.716 167.609 122.082 167.321 122.358C167.045 122.634 166.703 122.772 166.295 122.772ZM164.855 132.834L164.441 131.898C165.185 131.562 165.743 131.154 166.115 130.674C166.487 130.206 166.685 129.612 166.709 128.892C166.649 128.916 166.589 128.928 166.529 128.928C166.481 128.928 166.427 128.928 166.367 128.928C165.983 128.928 165.653 128.82 165.377 128.604C165.101 128.376 164.963 128.034 164.963 127.578C164.963 127.134 165.107 126.798 165.395 126.57C165.683 126.33 166.019 126.21 166.403 126.21C166.943 126.21 167.345 126.42 167.609 126.84C167.885 127.248 168.023 127.806 168.023 128.514C168.023 129.57 167.741 130.458 167.177 131.178C166.625 131.91 165.851 132.462 164.855 132.834ZM0.782 154.736V153.89H1.7C2.156 153.89 2.528 153.86 2.816 153.8C3.116 153.74 3.35 153.644 3.518 153.512C3.686 153.38 3.8 153.206 3.86 152.99C3.92 152.786 3.95 152.54 3.95 152.252C3.95 151.7 3.932 151.172 3.896 150.668C3.86 150.164 3.842 149.606 3.842 148.994C3.842 148.406 3.956 147.962 4.184 147.662C4.412 147.35 4.838 147.14 5.462 147.032V146.96C4.838 146.852 4.412 146.648 4.184 146.348C3.956 146.036 3.842 145.586 3.842 144.998C3.842 144.434 3.86 143.882 3.896 143.342C3.932 142.79 3.95 142.256 3.95 141.74C3.95 141.452 3.92 141.206 3.86 141.002C3.8 140.786 3.686 140.612 3.518 140.48C3.35 140.348 3.116 140.252 2.816 140.192C2.528 140.132 2.156 140.102 1.7 140.102H0.782V139.256H1.88C2.444 139.256 2.93 139.298 3.338 139.382C3.758 139.454 4.106 139.58 4.382 139.76C4.658 139.94 4.862 140.186 4.994 140.498C5.126 140.798 5.192 141.182 5.192 141.65C5.192 142.274 5.162 142.868 5.102 143.432C5.054 143.984 5.03 144.548 5.03 145.124C5.03 145.304 5.066 145.478 5.138 145.646C5.21 145.802 5.342 145.946 5.534 146.078C5.726 146.21 5.99 146.318 6.326 146.402C6.674 146.486 7.112 146.528 7.64 146.528V147.464C7.112 147.464 6.674 147.506 6.326 147.59C5.99 147.674 5.726 147.782 5.534 147.914C5.342 148.046 5.21 148.196 5.138 148.364C5.066 148.52 5.03 148.688 5.03 148.868C5.03 149.168 5.036 149.456 5.048 149.732C5.072 150.008 5.09 150.284 5.102 150.56C5.126 150.836 5.144 151.124 5.156 151.424C5.18 151.712 5.192 152.018 5.192 152.342C5.192 152.81 5.126 153.194 4.994 153.494C4.862 153.806 4.658 154.052 4.382 154.232C4.106 154.412 3.758 154.538 3.338 154.61C2.93 154.694 2.444 154.736 1.88 154.736H0.782ZM3.356 198V190.458H0.854V189.342L3.356 189.252V188.514C3.356 187.446 3.638 186.588 4.202 185.94C4.778 185.292 5.672 184.968 6.884 184.968C7.748 184.968 8.588 185.136 9.404 185.472L9.062 186.588C8.702 186.42 8.366 186.312 8.054 186.264C7.754 186.204 7.412 186.174 7.028 186.174C6.236 186.174 5.666 186.378 5.318 186.786C4.982 187.182 4.814 187.74 4.814 188.46V189.252H8.486V190.458H4.814V198H3.356ZM11.467 198V189.252H12.691L12.817 190.746H12.889C13.345 190.254 13.837 189.846 14.365 189.522C14.893 189.198 15.499 189.036 16.183 189.036C17.227 189.036 17.989 189.336 18.469 189.936C18.961 190.524 19.207 191.4 19.207 192.564V198H17.731V192.762C17.731 191.934 17.575 191.322 17.263 190.926C16.951 190.518 16.435 190.314 15.715 190.314C15.451 190.314 15.205 190.35 14.977 190.422C14.761 190.482 14.545 190.578 14.329 190.71C14.113 190.842 13.891 191.01 13.663 191.214C13.435 191.406 13.195 191.634 12.943 191.898V198H11.467ZM32.4229 198V189.252H33.6109L33.7369 190.404H33.7729C34.0009 189.996 34.2649 189.666 34.5649 189.414C34.8649 189.162 35.2669 189.036 35.7709 189.036C36.6229 189.036 37.1749 189.54 37.4269 190.548C37.6789 190.08 37.9549 189.714 38.2549 189.45C38.5669 189.174 38.9749 189.036 39.4789 189.036C40.0909 189.036 40.5649 189.27 40.9009 189.738C41.2489 190.194 41.4229 190.86 41.4229 191.736V198H39.9469V191.844C39.9469 190.824 39.6349 190.314 39.0109 190.314C38.6989 190.314 38.4469 190.428 38.2549 190.656C38.0629 190.872 37.8469 191.208 37.6069 191.664V198H36.2389V191.844C36.2389 191.34 36.1669 190.962 36.0229 190.71C35.8909 190.446 35.6629 190.314 35.3389 190.314C35.0269 190.314 34.7629 190.428 34.5469 190.656C34.3309 190.872 34.1149 191.208 33.8989 191.664V198H32.4229ZM46.5999 198.216C46.1919 198.216 45.8079 198.156 45.4479 198.036C45.0879 197.928 44.7699 197.772 44.4939 197.568C44.2299 197.352 44.0199 197.094 43.8639 196.794C43.7079 196.482 43.6299 196.128 43.6299 195.732C43.6299 195.24 43.7439 194.814 43.9719 194.454C44.2119 194.082 44.5839 193.764 45.0879 193.5C45.6039 193.236 46.2639 193.02 47.0679 192.852C47.8719 192.684 48.8379 192.552 49.9659 192.456C49.9539 192.156 49.9059 191.874 49.8219 191.61C49.7379 191.346 49.6059 191.118 49.4259 190.926C49.2459 190.722 49.0059 190.56 48.7059 190.44C48.4179 190.32 48.0639 190.26 47.6439 190.26C47.0679 190.26 46.5159 190.374 45.9879 190.602C45.4599 190.818 44.9919 191.052 44.5839 191.304L44.0079 190.296C44.2239 190.152 44.4759 190.008 44.7639 189.864C45.0639 189.708 45.3759 189.57 45.6999 189.45C46.0359 189.33 46.3899 189.234 46.7619 189.162C47.1339 189.078 47.5119 189.036 47.8959 189.036C49.0959 189.036 49.9839 189.366 50.5599 190.026C51.1479 190.674 51.4419 191.544 51.4419 192.636V198H50.2359L50.1099 196.812H50.0559C49.5639 197.196 49.0179 197.526 48.4179 197.802C47.8299 198.078 47.2239 198.216 46.5999 198.216ZM46.9959 197.028C47.4999 197.028 47.9919 196.92 48.4719 196.704C48.9639 196.476 49.4619 196.152 49.9659 195.732V193.428C49.0299 193.5 48.2439 193.602 47.6079 193.734C46.9839 193.866 46.4799 194.028 46.0959 194.22C45.7239 194.4 45.4599 194.61 45.3039 194.85C45.1479 195.078 45.0699 195.336 45.0699 195.624C45.0699 195.876 45.1239 196.092 45.2319 196.272C45.3399 196.44 45.4779 196.584 45.6459 196.704C45.8259 196.812 46.0299 196.896 46.2579 196.956C46.4979 197.004 46.7439 197.028 46.9959 197.028ZM58.6528 198V190.458H54.5848V189.252H60.1288V198H58.6528ZM59.2288 187.416C58.8928 187.416 58.6108 187.314 58.3828 187.11C58.1548 186.894 58.0408 186.612 58.0408 186.264C58.0408 185.916 58.1548 185.64 58.3828 185.436C58.6108 185.22 58.8928 185.112 59.2288 185.112C59.5648 185.112 59.8468 185.22 60.0748 185.436C60.3028 185.64 60.4168 185.916 60.4168 186.264C60.4168 186.612 60.3028 186.894 60.0748 187.11C59.8468 187.314 59.5648 187.416 59.2288 187.416ZM65.4318 198V189.252H66.6558L66.7818 190.746H66.8538C67.3098 190.254 67.8018 189.846 68.3298 189.522C68.8578 189.198 69.4638 189.036 70.1478 189.036C71.1918 189.036 71.9538 189.336 72.4338 189.936C72.9258 190.524 73.1718 191.4 73.1718 192.564V198H71.6958V192.762C71.6958 191.934 71.5398 191.322 71.2278 190.926C70.9158 190.518 70.3998 190.314 69.6798 190.314C69.4158 190.314 69.1698 190.35 68.9418 190.422C68.7258 190.482 68.5098 190.578 68.2938 190.71C68.0778 190.842 67.8558 191.01 67.6278 191.214C67.3998 191.406 67.1598 191.634 66.9078 191.898V198H65.4318ZM82.3448 201.168C81.0968 200.196 80.1068 199.026 79.3748 197.658C78.6548 196.29 78.2948 194.736 78.2948 192.996C78.2948 191.256 78.6548 189.702 79.3748 188.334C80.1068 186.966 81.0968 185.796 82.3448 184.824L83.1548 185.58C81.9428 186.6 81.0488 187.71 80.4728 188.91C79.9088 190.11 79.6268 191.472 79.6268 192.996C79.6268 194.52 79.9088 195.882 80.4728 197.082C81.0488 198.282 81.9428 199.392 83.1548 200.412L82.3448 201.168ZM88.3498 201.168L87.5398 200.412C88.7518 199.392 89.6398 198.282 90.2038 197.082C90.7798 195.882 91.0678 194.52 91.0678 192.996C91.0678 191.472 90.7798 190.11 90.2038 188.91C89.6398 187.71 88.7518 186.6 87.5398 185.58L88.3498 184.824C89.5978 185.796 90.5818 186.966 91.3018 188.334C92.0338 189.702 92.3998 191.256 92.3998 192.996C92.3998 194.736 92.0338 196.29 91.3018 197.658C90.5818 199.026 89.5978 200.196 88.3498 201.168ZM114.868 200.736C114.304 200.736 113.812 200.694 113.392 200.61C112.972 200.538 112.624 200.412 112.348 200.232C112.072 200.052 111.868 199.806 111.736 199.494C111.604 199.194 111.538 198.81 111.538 198.342C111.538 198.018 111.544 197.712 111.556 197.424C111.58 197.124 111.598 196.836 111.61 196.56C111.634 196.284 111.652 196.008 111.664 195.732C111.688 195.456 111.7 195.168 111.7 194.868C111.7 194.688 111.664 194.52 111.592 194.364C111.52 194.196 111.388 194.046 111.196 193.914C111.004 193.782 110.734 193.674 110.386 193.59C110.05 193.506 109.618 193.464 109.09 193.464V192.528C109.618 192.528 110.05 192.486 110.386 192.402C110.734 192.318 111.004 192.21 111.196 192.078C111.388 191.946 111.52 191.802 111.592 191.646C111.664 191.478 111.7 191.304 111.7 191.124C111.7 190.548 111.67 189.984 111.61 189.432C111.562 188.868 111.538 188.274 111.538 187.65C111.538 187.182 111.604 186.798 111.736 186.498C111.868 186.186 112.072 185.94 112.348 185.76C112.624 185.58 112.972 185.454 113.392 185.382C113.812 185.298 114.304 185.256 114.868 185.256H115.966V186.102H115.03C114.574 186.102 114.196 186.132 113.896 186.192C113.608 186.252 113.38 186.348 113.212 186.48C113.056 186.612 112.948 186.786 112.888 187.002C112.828 187.206 112.798 187.452 112.798 187.74C112.798 188.256 112.816 188.79 112.852 189.342C112.888 189.882 112.906 190.434 112.906 190.998C112.906 191.586 112.786 192.036 112.546 192.348C112.318 192.648 111.892 192.852 111.268 192.96V193.032C111.892 193.14 112.318 193.35 112.546 193.662C112.786 193.962 112.906 194.406 112.906 194.994C112.906 195.606 112.888 196.164 112.852 196.668C112.816 197.172 112.798 197.7 112.798 198.252C112.798 198.54 112.828 198.786 112.888 198.99C112.948 199.206 113.056 199.38 113.212 199.512C113.38 199.644 113.608 199.74 113.896 199.8C114.196 199.86 114.574 199.89 115.03 199.89H115.966V200.736H114.868ZM27.9119 221.216C26.9759 221.216 26.2619 220.952 25.7699 220.424C25.2779 219.896 25.0319 219.11 25.0319 218.066V209.39H21.9179V208.184H26.5079V218.174C26.5079 218.822 26.6639 219.29 26.9759 219.578C27.2879 219.854 27.7079 219.992 28.2359 219.992C28.7519 219.992 29.2979 219.86 29.8739 219.596L30.2519 220.694C29.8439 220.862 29.4719 220.988 29.1359 221.072C28.7999 221.168 28.3919 221.216 27.9119 221.216ZM37.3189 221.216C36.6589 221.216 36.0409 221.114 35.4649 220.91C34.9009 220.706 34.4029 220.406 33.9709 220.01C33.5509 219.614 33.2149 219.134 32.9629 218.57C32.7229 217.994 32.6029 217.34 32.6029 216.608C32.6029 215.9 32.7229 215.264 32.9629 214.7C33.2149 214.136 33.5449 213.656 33.9529 213.26C34.3729 212.864 34.8469 212.564 35.3749 212.36C35.9149 212.144 36.4789 212.036 37.0669 212.036C37.6909 212.036 38.2489 212.138 38.7409 212.342C39.2449 212.534 39.6649 212.81 40.0009 213.17C40.3489 213.53 40.6129 213.962 40.7929 214.466C40.9729 214.97 41.0629 215.528 41.0629 216.14C41.0629 216.308 41.0569 216.47 41.0449 216.626C41.0329 216.782 41.0149 216.92 40.9909 217.04H34.0969C34.1929 218.036 34.5529 218.786 35.1769 219.29C35.8129 219.782 36.5869 220.028 37.4989 220.028C38.0269 220.028 38.5009 219.956 38.9209 219.812C39.3529 219.656 39.7669 219.452 40.1629 219.2L40.7029 220.172C40.2709 220.46 39.7729 220.706 39.2089 220.91C38.6569 221.114 38.0269 221.216 37.3189 221.216ZM37.1029 213.206C36.7429 213.206 36.3949 213.266 36.0589 213.386C35.7349 213.506 35.4409 213.68 35.1769 213.908C34.9129 214.124 34.6909 214.4 34.5109 214.736C34.3309 215.072 34.2049 215.456 34.1329 215.888H39.7129C39.6529 214.988 39.3889 214.316 38.9209 213.872C38.4649 213.428 37.8589 213.206 37.1029 213.206ZM49.2639 221.216C48.6279 221.216 48.0939 221.132 47.6619 220.964C47.2299 220.784 46.8819 220.538 46.6179 220.226C46.3539 219.902 46.1619 219.518 46.0419 219.074C45.9339 218.63 45.8799 218.138 45.8799 217.598V213.458H43.4139V212.342L45.9339 212.252L46.1319 209.444H47.3559V212.252H51.6579V213.458H47.3559V217.616C47.3559 218.012 47.3919 218.36 47.4639 218.66C47.5359 218.948 47.6559 219.194 47.8239 219.398C47.9919 219.602 48.2199 219.758 48.5079 219.866C48.7959 219.962 49.1499 220.01 49.5699 220.01C49.9899 220.01 50.3679 219.974 50.7039 219.902C51.0399 219.83 51.3639 219.734 51.6759 219.614L51.9999 220.694C51.6039 220.838 51.1839 220.958 50.7399 221.054C50.3079 221.162 49.8159 221.216 49.2639 221.216ZM64.9098 221L68.2398 216.464L65.1618 212.252H66.7998L68.1858 214.178C68.3418 214.418 68.5038 214.664 68.6718 214.916C68.8518 215.168 69.0318 215.414 69.2118 215.654H69.2838C69.4518 215.414 69.6198 215.162 69.7878 214.898C69.9558 214.634 70.1178 214.382 70.2738 214.142L71.5878 212.252H73.1538L70.0398 216.59L73.3878 221H71.7678L70.2378 218.984C70.0578 218.732 69.8658 218.468 69.6618 218.192C69.4698 217.916 69.2778 217.652 69.0858 217.4H69.0138C68.8338 217.664 68.6538 217.928 68.4738 218.192C68.2938 218.444 68.1138 218.708 67.9338 218.984L66.4938 221H64.9098ZM86.8738 213.692V212.576H94.6138V213.692H86.8738ZM86.8738 217.526V216.41H94.6138V217.526H86.8738ZM112.42 221.216C111.556 221.216 110.758 221.06 110.026 220.748C109.306 220.436 108.676 220.01 108.136 219.47L109.036 218.426C109.48 218.87 109.996 219.23 110.584 219.506C111.172 219.77 111.808 219.902 112.492 219.902C113.308 219.902 113.938 219.728 114.382 219.38C114.838 219.032 115.066 218.582 115.066 218.03C115.066 217.718 115.012 217.454 114.904 217.238C114.796 217.022 114.646 216.836 114.454 216.68C114.262 216.524 114.034 216.386 113.77 216.266C113.518 216.146 113.242 216.02 112.942 215.888L111.25 215.15C110.95 215.03 110.65 214.886 110.35 214.718C110.05 214.55 109.774 214.346 109.522 214.106C109.282 213.866 109.084 213.584 108.928 213.26C108.772 212.924 108.694 212.54 108.694 212.108C108.694 211.664 108.79 211.25 108.982 210.866C109.174 210.482 109.438 210.152 109.774 209.876C110.122 209.588 110.53 209.366 110.998 209.21C111.478 209.054 112 208.976 112.564 208.976C113.308 208.976 113.992 209.114 114.616 209.39C115.24 209.654 115.768 210.002 116.2 210.434L115.408 211.406C115.024 211.058 114.598 210.788 114.13 210.596C113.662 210.392 113.122 210.29 112.51 210.29C111.826 210.29 111.274 210.446 110.854 210.758C110.434 211.058 110.224 211.478 110.224 212.018C110.224 212.306 110.284 212.552 110.404 212.756C110.536 212.948 110.698 213.122 110.89 213.278C111.094 213.422 111.322 213.548 111.574 213.656C111.826 213.764 112.078 213.872 112.33 213.98L113.986 214.7C114.346 214.844 114.682 215.012 114.994 215.204C115.318 215.384 115.594 215.6 115.822 215.852C116.062 216.092 116.248 216.38 116.38 216.716C116.524 217.04 116.596 217.418 116.596 217.85C116.596 218.318 116.5 218.756 116.308 219.164C116.116 219.572 115.84 219.932 115.48 220.244C115.12 220.544 114.682 220.784 114.166 220.964C113.65 221.132 113.068 221.216 112.42 221.216ZM124.815 221.216C124.179 221.216 123.645 221.132 123.213 220.964C122.781 220.784 122.433 220.538 122.169 220.226C121.905 219.902 121.713 219.518 121.593 219.074C121.485 218.63 121.431 218.138 121.431 217.598V213.458H118.965V212.342L121.485 212.252L121.683 209.444H122.907V212.252H127.209V213.458H122.907V217.616C122.907 218.012 122.943 218.36 123.015 218.66C123.087 218.948 123.207 219.194 123.375 219.398C123.543 219.602 123.771 219.758 124.059 219.866C124.347 219.962 124.701 220.01 125.121 220.01C125.541 220.01 125.919 219.974 126.255 219.902C126.591 219.83 126.915 219.734 127.227 219.614L127.551 220.694C127.155 220.838 126.735 220.958 126.291 221.054C125.859 221.162 125.367 221.216 124.815 221.216ZM131.144 221V212.252H132.368L132.494 214.322H132.548C133.004 213.614 133.562 213.056 134.222 212.648C134.894 212.24 135.638 212.036 136.454 212.036C136.778 212.036 137.078 212.066 137.354 212.126C137.63 212.174 137.906 212.264 138.182 212.396L137.84 213.674C137.528 213.566 137.264 213.488 137.048 213.44C136.844 213.392 136.568 213.368 136.22 213.368C135.56 213.368 134.924 213.56 134.312 213.944C133.712 214.316 133.148 214.958 132.62 215.87V221H131.144ZM144.997 221V213.458H140.929V212.252H146.473V221H144.997ZM145.573 210.416C145.237 210.416 144.955 210.314 144.727 210.11C144.499 209.894 144.385 209.612 144.385 209.264C144.385 208.916 144.499 208.64 144.727 208.436C144.955 208.22 145.237 208.112 145.573 208.112C145.909 208.112 146.191 208.22 146.419 208.436C146.647 208.64 146.761 208.916 146.761 209.264C146.761 209.612 146.647 209.894 146.419 210.11C146.191 210.314 145.909 210.416 145.573 210.416ZM151.776 221V212.252H153L153.126 213.746H153.198C153.654 213.254 154.146 212.846 154.674 212.522C155.202 212.198 155.808 212.036 156.492 212.036C157.536 212.036 158.298 212.336 158.778 212.936C159.27 213.524 159.516 214.4 159.516 215.564V221H158.04V215.762C158.04 214.934 157.884 214.322 157.572 213.926C157.26 213.518 156.744 213.314 156.024 213.314C155.76 213.314 155.514 213.35 155.286 213.422C155.07 213.482 154.854 213.578 154.638 213.71C154.422 213.842 154.2 214.01 153.972 214.214C153.744 214.406 153.504 214.634 153.252 214.898V221H151.776ZM166.223 225.032C164.939 225.032 163.943 224.822 163.235 224.402C162.539 223.982 162.191 223.382 162.191 222.602C162.191 222.254 162.311 221.912 162.551 221.576C162.803 221.24 163.163 220.934 163.631 220.658V220.586C163.391 220.454 163.181 220.274 163.001 220.046C162.821 219.818 162.731 219.518 162.731 219.146C162.731 218.87 162.821 218.588 163.001 218.3C163.181 218 163.439 217.736 163.775 217.508V217.436C163.475 217.208 163.217 216.908 163.001 216.536C162.797 216.152 162.695 215.696 162.695 215.168C162.695 214.688 162.785 214.256 162.965 213.872C163.157 213.488 163.409 213.164 163.721 212.9C164.033 212.624 164.393 212.414 164.801 212.27C165.221 212.114 165.665 212.036 166.133 212.036C166.613 212.036 167.045 212.108 167.429 212.252H171.047V213.458H168.779C168.983 213.662 169.157 213.92 169.301 214.232C169.445 214.544 169.517 214.874 169.517 215.222C169.517 215.69 169.427 216.11 169.247 216.482C169.079 216.854 168.839 217.172 168.527 217.436C168.227 217.688 167.867 217.886 167.447 218.03C167.039 218.162 166.601 218.228 166.133 218.228C165.905 218.228 165.659 218.204 165.395 218.156C165.143 218.096 164.897 218.012 164.657 217.904C164.201 218.192 163.973 218.528 163.973 218.912C163.973 219.26 164.129 219.518 164.441 219.686C164.765 219.842 165.215 219.92 165.791 219.92H167.753C168.881 219.92 169.715 220.076 170.255 220.388C170.807 220.7 171.083 221.228 171.083 221.972C171.083 222.38 170.969 222.77 170.741 223.142C170.513 223.514 170.189 223.838 169.769 224.114C169.349 224.39 168.839 224.612 168.239 224.78C167.639 224.948 166.967 225.032 166.223 225.032ZM166.133 217.238C166.697 217.238 167.171 217.052 167.555 216.68C167.951 216.308 168.149 215.804 168.149 215.168C168.149 214.868 168.095 214.592 167.987 214.34C167.879 214.088 167.735 213.872 167.555 213.692C167.375 213.512 167.159 213.374 166.907 213.278C166.667 213.17 166.409 213.116 166.133 213.116C165.857 213.116 165.593 213.17 165.341 213.278C165.101 213.374 164.891 213.512 164.711 213.692C164.531 213.872 164.387 214.088 164.279 214.34C164.171 214.592 164.117 214.868 164.117 215.168C164.117 215.804 164.315 216.308 164.711 216.68C165.107 217.052 165.581 217.238 166.133 217.238ZM166.331 223.952C166.835 223.952 167.291 223.904 167.699 223.808C168.107 223.712 168.455 223.58 168.743 223.412C169.031 223.256 169.247 223.07 169.391 222.854C169.547 222.65 169.625 222.434 169.625 222.206C169.625 221.786 169.457 221.504 169.121 221.36C168.797 221.216 168.299 221.144 167.627 221.144H165.917C165.665 221.144 165.425 221.132 165.197 221.108C164.981 221.096 164.777 221.06 164.585 221C164.165 221.228 163.871 221.462 163.703 221.702C163.547 221.954 163.469 222.206 163.469 222.458C163.469 222.914 163.709 223.274 164.189 223.538C164.681 223.814 165.395 223.952 166.331 223.952ZM177.088 214.772C176.68 214.772 176.332 214.634 176.044 214.358C175.768 214.082 175.63 213.716 175.63 213.26C175.63 212.804 175.768 212.438 176.044 212.162C176.332 211.874 176.68 211.73 177.088 211.73C177.496 211.73 177.838 211.874 178.114 212.162C178.402 212.438 178.546 212.804 178.546 213.26C178.546 213.716 178.402 214.082 178.114 214.358C177.838 214.634 177.496 214.772 177.088 214.772ZM177.088 221.216C176.68 221.216 176.332 221.078 176.044 220.802C175.768 220.526 175.63 220.16 175.63 219.704C175.63 219.248 175.768 218.882 176.044 218.606C176.332 218.318 176.68 218.174 177.088 218.174C177.496 218.174 177.838 218.318 178.114 218.606C178.402 218.882 178.546 219.248 178.546 219.704C178.546 220.16 178.402 220.526 178.114 220.802C177.838 221.078 177.496 221.216 177.088 221.216ZM187.88 214.772C187.472 214.772 187.124 214.634 186.836 214.358C186.56 214.082 186.422 213.716 186.422 213.26C186.422 212.804 186.56 212.438 186.836 212.162C187.124 211.874 187.472 211.73 187.88 211.73C188.288 211.73 188.63 211.874 188.906 212.162C189.194 212.438 189.338 212.804 189.338 213.26C189.338 213.716 189.194 214.082 188.906 214.358C188.63 214.634 188.288 214.772 187.88 214.772ZM187.88 221.216C187.472 221.216 187.124 221.078 186.836 220.802C186.56 220.526 186.422 220.16 186.422 219.704C186.422 219.248 186.56 218.882 186.836 218.606C187.124 218.318 187.472 218.174 187.88 218.174C188.288 218.174 188.63 218.318 188.906 218.606C189.194 218.882 189.338 219.248 189.338 219.704C189.338 220.16 189.194 220.526 188.906 220.802C188.63 221.078 188.288 221.216 187.88 221.216ZM197.629 221V213.458H195.127V212.342L197.629 212.252V211.514C197.629 210.446 197.911 209.588 198.475 208.94C199.051 208.292 199.945 207.968 201.157 207.968C202.021 207.968 202.861 208.136 203.677 208.472L203.335 209.588C202.975 209.42 202.639 209.312 202.327 209.264C202.027 209.204 201.685 209.174 201.301 209.174C200.509 209.174 199.939 209.378 199.591 209.786C199.255 210.182 199.087 210.74 199.087 211.46V212.252H202.759V213.458H199.087V221H197.629ZM206.694 221V212.252H207.918L208.044 214.322H208.098C208.554 213.614 209.112 213.056 209.772 212.648C210.444 212.24 211.188 212.036 212.004 212.036C212.328 212.036 212.628 212.066 212.904 212.126C213.18 212.174 213.456 212.264 213.732 212.396L213.39 213.674C213.078 213.566 212.814 213.488 212.598 213.44C212.394 213.392 212.118 213.368 211.77 213.368C211.11 213.368 210.474 213.56 209.862 213.944C209.262 214.316 208.698 214.958 208.17 215.87V221H206.694ZM220.259 221.216C219.683 221.216 219.131 221.114 218.603 220.91C218.087 220.706 217.631 220.412 217.235 220.028C216.839 219.632 216.521 219.152 216.281 218.588C216.053 218.012 215.939 217.364 215.939 216.644C215.939 215.912 216.053 215.264 216.281 214.7C216.521 214.124 216.839 213.638 217.235 213.242C217.631 212.846 218.087 212.546 218.603 212.342C219.131 212.138 219.683 212.036 220.259 212.036C220.835 212.036 221.381 212.138 221.897 212.342C222.425 212.546 222.887 212.846 223.283 213.242C223.679 213.638 223.991 214.124 224.219 214.7C224.459 215.264 224.579 215.912 224.579 216.644C224.579 217.364 224.459 218.012 224.219 218.588C223.991 219.152 223.679 219.632 223.283 220.028C222.887 220.412 222.425 220.706 221.897 220.91C221.381 221.114 220.835 221.216 220.259 221.216ZM220.259 219.992C220.679 219.992 221.057 219.914 221.393 219.758C221.741 219.59 222.035 219.362 222.275 219.074C222.527 218.774 222.719 218.42 222.851 218.012C222.983 217.604 223.049 217.148 223.049 216.644C223.049 216.14 222.983 215.684 222.851 215.276C222.719 214.856 222.527 214.496 222.275 214.196C222.035 213.896 221.741 213.668 221.393 213.512C221.057 213.344 220.679 213.26 220.259 213.26C219.839 213.26 219.455 213.344 219.107 213.512C218.771 213.668 218.477 213.896 218.225 214.196C217.985 214.496 217.799 214.856 217.667 215.276C217.535 215.684 217.469 216.14 217.469 216.644C217.469 217.148 217.535 217.604 217.667 218.012C217.799 218.42 217.985 218.774 218.225 219.074C218.477 219.362 218.771 219.59 219.107 219.758C219.455 219.914 219.839 219.992 220.259 219.992ZM226.696 221V212.252H227.884L228.01 213.404H228.046C228.274 212.996 228.538 212.666 228.838 212.414C229.138 212.162 229.54 212.036 230.044 212.036C230.896 212.036 231.448 212.54 231.7 213.548C231.952 213.08 232.228 212.714 232.528 212.45C232.84 212.174 233.248 212.036 233.752 212.036C234.364 212.036 234.838 212.27 235.174 212.738C235.522 213.194 235.696 213.86 235.696 214.736V221H234.22V214.844C234.22 213.824 233.908 213.314 233.284 213.314C232.972 213.314 232.72 213.428 232.528 213.656C232.336 213.872 232.12 214.208 231.88 214.664V221H230.512V214.844C230.512 214.34 230.44 213.962 230.296 213.71C230.164 213.446 229.936 213.314 229.612 213.314C229.3 213.314 229.036 213.428 228.82 213.656C228.604 213.872 228.388 214.208 228.172 214.664V221H226.696ZM244.239 224.168C242.991 223.196 242.001 222.026 241.269 220.658C240.549 219.29 240.189 217.736 240.189 215.996C240.189 214.256 240.549 212.702 241.269 211.334C242.001 209.966 242.991 208.796 244.239 207.824L245.049 208.58C243.837 209.6 242.943 210.71 242.367 211.91C241.803 213.11 241.521 214.472 241.521 215.996C241.521 217.52 241.803 218.882 242.367 220.082C242.943 221.282 243.837 222.392 245.049 223.412L244.239 224.168ZM250.082 214.664L249.632 210.614L249.596 208.634H251.576L251.54 210.614L251.09 214.664H250.082ZM254.204 214.664L253.754 210.614L253.718 208.634H255.698L255.662 210.614L255.212 214.664H254.204ZM260.083 221L258.175 212.252H259.651L260.695 217.328C260.779 217.748 260.851 218.15 260.911 218.534C260.971 218.918 261.031 219.32 261.091 219.74H261.163C261.223 219.32 261.295 218.918 261.379 218.534C261.475 218.138 261.571 217.736 261.667 217.328L262.747 212.792H264.223L265.267 217.328C265.363 217.748 265.459 218.15 265.555 218.534C265.663 218.918 265.747 219.32 265.807 219.74H265.879C265.951 219.32 266.011 218.918 266.059 218.534C266.119 218.15 266.191 217.748 266.275 217.328L267.319 212.252H268.687L266.815 221H264.907L263.899 216.824C263.755 216.212 263.611 215.348 263.467 214.232H263.395C263.251 215.348 263.107 216.212 262.963 216.824L261.991 221H260.083ZM274.224 221.216C273.648 221.216 273.096 221.114 272.568 220.91C272.052 220.706 271.596 220.412 271.2 220.028C270.804 219.632 270.486 219.152 270.246 218.588C270.018 218.012 269.904 217.364 269.904 216.644C269.904 215.912 270.018 215.264 270.246 214.7C270.486 214.124 270.804 213.638 271.2 213.242C271.596 212.846 272.052 212.546 272.568 212.342C273.096 212.138 273.648 212.036 274.224 212.036C274.8 212.036 275.346 212.138 275.862 212.342C276.39 212.546 276.852 212.846 277.248 213.242C277.644 213.638 277.956 214.124 278.184 214.7C278.424 215.264 278.544 215.912 278.544 216.644C278.544 217.364 278.424 218.012 278.184 218.588C277.956 219.152 277.644 219.632 277.248 220.028C276.852 220.412 276.39 220.706 275.862 220.91C275.346 221.114 274.8 221.216 274.224 221.216ZM274.224 219.992C274.644 219.992 275.022 219.914 275.358 219.758C275.706 219.59 276 219.362 276.24 219.074C276.492 218.774 276.684 218.42 276.816 218.012C276.948 217.604 277.014 217.148 277.014 216.644C277.014 216.14 276.948 215.684 276.816 215.276C276.684 214.856 276.492 214.496 276.24 214.196C276 213.896 275.706 213.668 275.358 213.512C275.022 213.344 274.644 213.26 274.224 213.26C273.804 213.26 273.42 213.344 273.072 213.512C272.736 213.668 272.442 213.896 272.19 214.196C271.95 214.496 271.764 214.856 271.632 215.276C271.5 215.684 271.434 216.14 271.434 216.644C271.434 217.148 271.5 217.604 271.632 218.012C271.764 218.42 271.95 218.774 272.19 219.074C272.442 219.362 272.736 219.59 273.072 219.758C273.42 219.914 273.804 219.992 274.224 219.992ZM282.245 221V212.252H283.469L283.595 214.322H283.649C284.105 213.614 284.663 213.056 285.323 212.648C285.995 212.24 286.739 212.036 287.555 212.036C287.879 212.036 288.179 212.066 288.455 212.126C288.731 212.174 289.007 212.264 289.283 212.396L288.941 213.674C288.629 213.566 288.365 213.488 288.149 213.44C287.945 213.392 287.669 213.368 287.321 213.368C286.661 213.368 286.025 213.56 285.413 213.944C284.813 214.316 284.249 214.958 283.721 215.87V221H282.245ZM297.736 221.216C296.8 221.216 296.086 220.952 295.594 220.424C295.102 219.896 294.856 219.11 294.856 218.066V209.39H291.742V208.184H296.332V218.174C296.332 218.822 296.488 219.29 296.8 219.578C297.112 219.854 297.532 219.992 298.06 219.992C298.576 219.992 299.122 219.86 299.698 219.596L300.076 220.694C299.668 220.862 299.296 220.988 298.96 221.072C298.624 221.168 298.216 221.216 297.736 221.216ZM306.081 221.216C305.505 221.216 304.983 221.114 304.515 220.91C304.059 220.706 303.663 220.412 303.327 220.028C302.991 219.632 302.733 219.152 302.553 218.588C302.373 218.024 302.283 217.376 302.283 216.644C302.283 215.936 302.391 215.3 302.607 214.736C302.835 214.16 303.129 213.674 303.489 213.278C303.861 212.882 304.287 212.576 304.767 212.36C305.247 212.144 305.745 212.036 306.261 212.036C306.789 212.036 307.257 212.138 307.665 212.342C308.085 212.534 308.487 212.81 308.871 213.17H308.925L308.853 211.55V208.184H310.329V221H309.105L308.979 219.848H308.925C308.565 220.22 308.133 220.544 307.629 220.82C307.137 221.084 306.621 221.216 306.081 221.216ZM306.387 219.974C307.251 219.974 308.073 219.536 308.853 218.66V214.304C308.457 213.932 308.067 213.668 307.683 213.512C307.311 213.356 306.933 213.278 306.549 213.278C306.165 213.278 305.805 213.362 305.469 213.53C305.145 213.686 304.857 213.914 304.605 214.214C304.365 214.502 304.173 214.85 304.029 215.258C303.885 215.666 303.813 216.122 303.813 216.626C303.813 217.682 304.035 218.504 304.479 219.092C304.935 219.68 305.571 219.974 306.387 219.974ZM314.84 214.664L314.39 210.614L314.354 208.634H316.334L316.298 210.614L315.848 214.664H314.84ZM318.962 214.664L318.512 210.614L318.476 208.634H320.456L320.42 210.614L319.97 214.664H318.962ZM325.795 224.168L324.985 223.412C326.197 222.392 327.085 221.282 327.649 220.082C328.225 218.882 328.513 217.52 328.513 215.996C328.513 214.472 328.225 213.11 327.649 211.91C327.085 210.71 326.197 209.6 324.985 208.58L325.795 207.824C327.043 208.796 328.027 209.966 328.747 211.334C329.479 212.702 329.845 214.256 329.845 215.996C329.845 217.736 329.479 219.29 328.747 220.658C328.027 222.026 327.043 223.196 325.795 224.168ZM338.982 214.772C338.574 214.772 338.226 214.634 337.938 214.358C337.662 214.082 337.524 213.716 337.524 213.26C337.524 212.804 337.662 212.438 337.938 212.162C338.226 211.874 338.574 211.73 338.982 211.73C339.39 211.73 339.732 211.874 340.008 212.162C340.296 212.438 340.44 212.804 340.44 213.26C340.44 213.716 340.296 214.082 340.008 214.358C339.732 214.634 339.39 214.772 338.982 214.772ZM337.542 224.834L337.128 223.898C337.872 223.562 338.43 223.154 338.802 222.674C339.174 222.206 339.372 221.612 339.396 220.892C339.336 220.916 339.276 220.928 339.216 220.928C339.168 220.928 339.114 220.928 339.054 220.928C338.67 220.928 338.34 220.82 338.064 220.604C337.788 220.376 337.65 220.034 337.65 219.578C337.65 219.134 337.794 218.798 338.082 218.57C338.37 218.33 338.706 218.21 339.09 218.21C339.63 218.21 340.032 218.42 340.296 218.84C340.572 219.248 340.71 219.806 340.71 220.514C340.71 221.57 340.428 222.458 339.864 223.178C339.312 223.91 338.538 224.462 337.542 224.834ZM24.9419 244V236.458H22.4399V235.342L24.9419 235.252V234.514C24.9419 233.446 25.2239 232.588 25.7879 231.94C26.3639 231.292 27.2579 230.968 28.4699 230.968C29.3339 230.968 30.1739 231.136 30.9899 231.472L30.6479 232.588C30.2879 232.42 29.9519 232.312 29.6399 232.264C29.3399 232.204 28.9979 232.174 28.6139 232.174C27.8219 232.174 27.2519 232.378 26.9039 232.786C26.5679 233.182 26.3999 233.74 26.3999 234.46V235.252H30.0719V236.458H26.3999V244H24.9419ZM39.1729 247.168C37.9249 246.196 36.9349 245.026 36.2029 243.658C35.4829 242.29 35.1229 240.736 35.1229 238.996C35.1229 237.256 35.4829 235.702 36.2029 234.334C36.9349 232.966 37.9249 231.796 39.1729 230.824L39.9829 231.58C38.7709 232.6 37.8769 233.71 37.3009 234.91C36.7369 236.11 36.4549 237.472 36.4549 238.996C36.4549 240.52 36.7369 241.882 37.3009 243.082C37.8769 244.282 38.7709 245.392 39.9829 246.412L39.1729 247.168ZM46.4559 244.216C45.9279 244.216 45.4479 244.138 45.0159 243.982C44.5839 243.814 44.2119 243.586 43.8999 243.298C43.5999 243.01 43.3599 242.668 43.1799 242.272C43.0119 241.864 42.9279 241.42 42.9279 240.94C42.9279 240.556 42.9879 240.202 43.1079 239.878C43.2279 239.554 43.3899 239.26 43.5939 238.996C43.8099 238.72 44.0499 238.468 44.3139 238.24C44.5779 238 44.8539 237.772 45.1419 237.556C44.8899 237.064 44.6919 236.584 44.5479 236.116C44.4159 235.636 44.3499 235.186 44.3499 234.766C44.3499 234.37 44.4099 234.004 44.5299 233.668C44.6619 233.332 44.8359 233.038 45.0519 232.786C45.2799 232.534 45.5499 232.336 45.8619 232.192C46.1859 232.048 46.5459 231.976 46.9419 231.976C47.6739 231.976 48.2379 232.192 48.6339 232.624C49.0299 233.056 49.2279 233.62 49.2279 234.316C49.2279 234.7 49.1499 235.048 48.9939 235.36C48.8499 235.672 48.6579 235.972 48.4179 236.26C48.1779 236.536 47.9079 236.8 47.6079 237.052C47.3079 237.292 47.0019 237.532 46.6899 237.772C47.0739 238.384 47.5119 238.972 48.0039 239.536C48.5079 240.1 49.0299 240.616 49.5699 241.084C49.9059 240.604 50.1939 240.082 50.4339 239.518C50.6859 238.942 50.8959 238.312 51.0639 237.628H52.4319C52.2159 238.408 51.9519 239.152 51.6399 239.86C51.3279 240.568 50.9559 241.234 50.5239 241.858C51.2439 242.41 51.9219 242.788 52.5579 242.992L52.1439 244.216C51.3639 243.976 50.5419 243.526 49.6779 242.866C49.2459 243.286 48.7659 243.616 48.2379 243.856C47.7219 244.096 47.1279 244.216 46.4559 244.216ZM45.6279 234.748C45.6279 235.072 45.6759 235.408 45.7719 235.756C45.8679 236.104 45.9999 236.458 46.1679 236.818C46.4199 236.638 46.6539 236.458 46.8699 236.278C47.0979 236.086 47.2959 235.894 47.4639 235.702C47.6439 235.498 47.7819 235.288 47.8779 235.072C47.9739 234.844 48.0219 234.598 48.0219 234.334C48.0219 233.986 47.9379 233.686 47.7699 233.434C47.6139 233.17 47.3379 233.038 46.9419 233.038C46.5219 233.038 46.1979 233.2 45.9699 233.524C45.7419 233.848 45.6279 234.256 45.6279 234.748ZM46.6359 243.028C47.0079 243.028 47.3679 242.944 47.7159 242.776C48.0639 242.608 48.3939 242.38 48.7059 242.092C48.1299 241.588 47.5839 241.036 47.0679 240.436C46.5639 239.836 46.1079 239.212 45.6999 238.564C45.3159 238.9 44.9979 239.254 44.7459 239.626C44.4939 239.986 44.3679 240.394 44.3679 240.85C44.3679 241.174 44.4279 241.474 44.5479 241.75C44.6679 242.014 44.8299 242.242 45.0339 242.434C45.2379 242.626 45.4779 242.776 45.7539 242.884C46.0299 242.98 46.3239 243.028 46.6359 243.028ZM54.1168 244L57.4468 239.464L54.3688 235.252H56.0068L57.3928 237.178C57.5488 237.418 57.7108 237.664 57.8788 237.916C58.0588 238.168 58.2388 238.414 58.4188 238.654H58.4908C58.6588 238.414 58.8268 238.162 58.9948 237.898C59.1628 237.634 59.3248 237.382 59.4808 237.142L60.7948 235.252H62.3608L59.2468 239.59L62.5948 244H60.9748L59.4448 241.984C59.2648 241.732 59.0728 241.468 58.8688 241.192C58.6768 240.916 58.4848 240.652 58.2928 240.4H58.2208C58.0408 240.664 57.8608 240.928 57.6808 241.192C57.5008 241.444 57.3208 241.708 57.1408 241.984L55.7008 244H54.1168ZM66.7638 247.168L65.9538 246.412C67.1658 245.392 68.0538 244.282 68.6178 243.082C69.1938 241.882 69.4818 240.52 69.4818 238.996C69.4818 237.472 69.1938 236.11 68.6178 234.91C68.0538 233.71 67.1658 232.6 65.9538 231.58L66.7638 230.824C68.0118 231.796 68.9958 232.966 69.7158 234.334C70.4478 235.702 70.8138 237.256 70.8138 238.996C70.8138 240.736 70.4478 242.29 69.7158 243.658C68.9958 245.026 68.0118 246.196 66.7638 247.168ZM79.9508 237.772C79.5428 237.772 79.1948 237.634 78.9068 237.358C78.6308 237.082 78.4928 236.716 78.4928 236.26C78.4928 235.804 78.6308 235.438 78.9068 235.162C79.1948 234.874 79.5428 234.73 79.9508 234.73C80.3588 234.73 80.7008 234.874 80.9768 235.162C81.2648 235.438 81.4088 235.804 81.4088 236.26C81.4088 236.716 81.2648 237.082 80.9768 237.358C80.7008 237.634 80.3588 237.772 79.9508 237.772ZM78.5108 247.834L78.0968 246.898C78.8408 246.562 79.3988 246.154 79.7708 245.674C80.1428 245.206 80.3408 244.612 80.3648 243.892C80.3048 243.916 80.2448 243.928 80.1848 243.928C80.1368 243.928 80.0828 243.928 80.0228 243.928C79.6388 243.928 79.3088 243.82 79.0328 243.604C78.7568 243.376 78.6188 243.034 78.6188 242.578C78.6188 242.134 78.7628 241.798 79.0508 241.57C79.3388 241.33 79.6748 241.21 80.0588 241.21C80.5988 241.21 81.0008 241.42 81.2648 241.84C81.5408 242.248 81.6788 242.806 81.6788 243.514C81.6788 244.57 81.3968 245.458 80.8328 246.178C80.2808 246.91 79.5068 247.462 78.5108 247.834ZM22.2599 270.69V258.252H23.4839L23.6099 259.368H23.6639C24.0719 258.984 24.5399 258.666 25.0679 258.414C25.6079 258.162 26.1479 258.036 26.6879 258.036C27.2759 258.036 27.7919 258.144 28.2359 258.36C28.6919 258.564 29.0699 258.864 29.3699 259.26C29.6819 259.644 29.9159 260.112 30.0719 260.664C30.2279 261.204 30.3059 261.816 30.3059 262.5C30.3059 263.244 30.1979 263.91 29.9819 264.498C29.7659 265.074 29.4719 265.566 29.0999 265.974C28.7399 266.382 28.3199 266.694 27.8399 266.91C27.3599 267.114 26.8559 267.216 26.3279 267.216C25.9199 267.216 25.4759 267.12 24.9959 266.928C24.5279 266.724 24.1019 266.442 23.7179 266.082H23.6639L23.7359 267.738V270.69H22.2599ZM26.0759 265.974C26.8679 265.974 27.5159 265.668 28.0199 265.056C28.5239 264.444 28.7759 263.592 28.7759 262.5C28.7759 262.02 28.7279 261.582 28.6319 261.186C28.5359 260.79 28.3859 260.454 28.1819 260.178C27.9899 259.89 27.7379 259.668 27.4259 259.512C27.1139 259.356 26.7419 259.278 26.3099 259.278C25.9259 259.278 25.5119 259.386 25.0679 259.602C24.6359 259.806 24.1919 260.136 23.7359 260.592V264.948C24.1559 265.32 24.5759 265.584 24.9959 265.74C25.4159 265.896 25.7759 265.974 26.0759 265.974ZM34.0069 267V258.252H35.2309L35.3569 260.322H35.4109C35.8669 259.614 36.4249 259.056 37.0849 258.648C37.7569 258.24 38.5009 258.036 39.3169 258.036C39.6409 258.036 39.9409 258.066 40.2169 258.126C40.4929 258.174 40.7689 258.264 41.0449 258.396L40.7029 259.674C40.3909 259.566 40.1269 259.488 39.9109 259.44C39.7069 259.392 39.4309 259.368 39.0829 259.368C38.4229 259.368 37.7869 259.56 37.1749 259.944C36.5749 260.316 36.0109 260.958 35.4829 261.87V267H34.0069ZM47.8599 267V259.458H43.7919V258.252H49.3359V267H47.8599ZM48.4359 256.416C48.0999 256.416 47.8179 256.314 47.5899 256.11C47.3619 255.894 47.2479 255.612 47.2479 255.264C47.2479 254.916 47.3619 254.64 47.5899 254.436C47.8179 254.22 48.0999 254.112 48.4359 254.112C48.7719 254.112 49.0539 254.22 49.2819 254.436C49.5099 254.64 49.6239 254.916 49.6239 255.264C49.6239 255.612 49.5099 255.894 49.2819 256.11C49.0539 256.314 48.7719 256.416 48.4359 256.416ZM54.6388 267V258.252H55.8628L55.9888 259.746H56.0608C56.5168 259.254 57.0088 258.846 57.5368 258.522C58.0648 258.198 58.6708 258.036 59.3548 258.036C60.3988 258.036 61.1608 258.336 61.6408 258.936C62.1328 259.524 62.3788 260.4 62.3788 261.564V267H60.9028V261.762C60.9028 260.934 60.7468 260.322 60.4348 259.926C60.1228 259.518 59.6068 259.314 58.8868 259.314C58.6228 259.314 58.3768 259.35 58.1488 259.422C57.9328 259.482 57.7168 259.578 57.5008 259.71C57.2848 259.842 57.0628 260.01 56.8348 260.214C56.6068 260.406 56.3668 260.634 56.1148 260.898V267H54.6388ZM70.8498 267.216C70.2138 267.216 69.6798 267.132 69.2478 266.964C68.8158 266.784 68.4678 266.538 68.2038 266.226C67.9398 265.902 67.7478 265.518 67.6278 265.074C67.5198 264.63 67.4658 264.138 67.4658 263.598V259.458H64.9998V258.342L67.5198 258.252L67.7178 255.444H68.9418V258.252H73.2438V259.458H68.9418V263.616C68.9418 264.012 68.9778 264.36 69.0498 264.66C69.1218 264.948 69.2418 265.194 69.4098 265.398C69.5778 265.602 69.8058 265.758 70.0938 265.866C70.3818 265.962 70.7358 266.01 71.1558 266.01C71.5758 266.01 71.9538 265.974 72.2898 265.902C72.6258 265.83 72.9498 265.734 73.2618 265.614L73.5858 266.694C73.1898 266.838 72.7698 266.958 72.3258 267.054C71.8938 267.162 71.4018 267.216 70.8498 267.216ZM81.8768 267.216C80.9408 267.216 80.2268 266.952 79.7348 266.424C79.2428 265.896 78.9968 265.11 78.9968 264.066V255.39H75.8828V254.184H80.4728V264.174C80.4728 264.822 80.6288 265.29 80.9408 265.578C81.2528 265.854 81.6728 265.992 82.2008 265.992C82.7168 265.992 83.2628 265.86 83.8388 265.596L84.2168 266.694C83.8088 266.862 83.4368 266.988 83.1008 267.072C82.7648 267.168 82.3568 267.216 81.8768 267.216ZM87.0178 267V258.252H88.2418L88.3678 259.746H88.4398C88.8958 259.254 89.3878 258.846 89.9158 258.522C90.4438 258.198 91.0498 258.036 91.7338 258.036C92.7778 258.036 93.5398 258.336 94.0198 258.936C94.5118 259.524 94.7578 260.4 94.7578 261.564V267H93.2818V261.762C93.2818 260.934 93.1258 260.322 92.8138 259.926C92.5018 259.518 91.9858 259.314 91.2658 259.314C91.0018 259.314 90.7558 259.35 90.5278 259.422C90.3118 259.482 90.0958 259.578 89.8798 259.71C89.6638 259.842 89.4418 260.01 89.2138 260.214C88.9858 260.406 88.7458 260.634 88.4938 260.898V267H87.0178ZM101.033 262.824L100.853 256.632L100.817 254.94H102.257L102.221 256.632L102.041 262.824H101.033ZM101.537 267.216C101.177 267.216 100.865 267.09 100.601 266.838C100.349 266.586 100.223 266.244 100.223 265.812C100.223 265.392 100.349 265.062 100.601 264.822C100.865 264.57 101.177 264.444 101.537 264.444C101.897 264.444 102.203 264.57 102.455 264.822C102.719 265.062 102.851 265.392 102.851 265.812C102.851 266.244 102.719 266.586 102.455 266.838C102.203 267.09 101.897 267.216 101.537 267.216ZM114.724 270.168C113.476 269.196 112.486 268.026 111.754 266.658C111.034 265.29 110.674 263.736 110.674 261.996C110.674 260.256 111.034 258.702 111.754 257.334C112.486 255.966 113.476 254.796 114.724 253.824L115.534 254.58C114.322 255.6 113.428 256.71 112.852 257.91C112.288 259.11 112.006 260.472 112.006 261.996C112.006 263.52 112.288 264.882 112.852 266.082C113.428 267.282 114.322 268.392 115.534 269.412L114.724 270.168ZM120.567 260.664L120.117 256.614L120.081 254.634H122.061L122.025 256.614L121.575 260.664H120.567ZM124.689 260.664L124.239 256.614L124.203 254.634H126.183L126.147 256.614L125.697 260.664H124.689ZM134.834 267.216C134.102 267.216 133.424 267.078 132.8 266.802C132.176 266.526 131.63 266.13 131.162 265.614C130.706 265.086 130.346 264.444 130.082 263.688C129.818 262.92 129.686 262.056 129.686 261.096C129.686 260.148 129.818 259.296 130.082 258.54C130.346 257.784 130.712 257.142 131.18 256.614C131.648 256.086 132.206 255.684 132.854 255.408C133.502 255.12 134.21 254.976 134.978 254.976C135.686 254.976 136.31 255.12 136.85 255.408C137.402 255.696 137.852 256.032 138.2 256.416L137.354 257.37C137.042 257.046 136.694 256.788 136.31 256.596C135.926 256.392 135.482 256.29 134.978 256.29C134.414 256.29 133.898 256.404 133.43 256.632C132.974 256.848 132.584 257.166 132.26 257.586C131.936 257.994 131.684 258.492 131.504 259.08C131.324 259.668 131.234 260.328 131.234 261.06C131.234 261.804 131.324 262.476 131.504 263.076C131.684 263.664 131.936 264.168 132.26 264.588C132.584 265.008 132.974 265.332 133.43 265.56C133.898 265.788 134.414 265.902 134.978 265.902C135.518 265.902 135.998 265.788 136.418 265.56C136.85 265.332 137.258 265.008 137.642 264.588L138.488 265.506C138.02 266.046 137.492 266.466 136.904 266.766C136.316 267.066 135.626 267.216 134.834 267.216ZM142.153 260.664L141.703 256.614L141.667 254.634H143.647L143.611 256.614L143.161 260.664H142.153ZM146.275 260.664L145.825 256.614L145.789 254.634H147.769L147.733 256.614L147.283 260.664H146.275ZM153.108 270.168L152.298 269.412C153.51 268.392 154.398 267.282 154.962 266.082C155.538 264.882 155.826 263.52 155.826 261.996C155.826 260.472 155.538 259.11 154.962 257.91C154.398 256.71 153.51 255.6 152.298 254.58L153.108 253.824C154.356 254.796 155.34 255.966 156.06 257.334C156.792 258.702 157.158 260.256 157.158 261.996C157.158 263.736 156.792 265.29 156.06 266.658C155.34 268.026 154.356 269.196 153.108 270.168ZM166.295 260.772C165.887 260.772 165.539 260.634 165.251 260.358C164.975 260.082 164.837 259.716 164.837 259.26C164.837 258.804 164.975 258.438 165.251 258.162C165.539 257.874 165.887 257.73 166.295 257.73C166.703 257.73 167.045 257.874 167.321 258.162C167.609 258.438 167.753 258.804 167.753 259.26C167.753 259.716 167.609 260.082 167.321 260.358C167.045 260.634 166.703 260.772 166.295 260.772ZM164.855 270.834L164.441 269.898C165.185 269.562 165.743 269.154 166.115 268.674C166.487 268.206 166.685 267.612 166.709 266.892C166.649 266.916 166.589 266.928 166.529 266.928C166.481 266.928 166.427 266.928 166.367 266.928C165.983 266.928 165.653 266.82 165.377 266.604C165.101 266.376 164.963 266.034 164.963 265.578C164.963 265.134 165.107 264.798 165.395 264.57C165.683 264.33 166.019 264.21 166.403 264.21C166.943 264.21 167.345 264.42 167.609 264.84C167.885 265.248 168.023 265.806 168.023 266.514C168.023 267.57 167.741 268.458 167.177 269.178C166.625 269.91 165.851 270.462 164.855 270.834ZM0.782 292.736V291.89H1.7C2.156 291.89 2.528 291.86 2.816 291.8C3.116 291.74 3.35 291.644 3.518 291.512C3.686 291.38 3.8 291.206 3.86 290.99C3.92 290.786 3.95 290.54 3.95 290.252C3.95 289.7 3.932 289.172 3.896 288.668C3.86 288.164 3.842 287.606 3.842 286.994C3.842 286.406 3.956 285.962 4.184 285.662C4.412 285.35 4.838 285.14 5.462 285.032V284.96C4.838 284.852 4.412 284.648 4.184 284.348C3.956 284.036 3.842 283.586 3.842 282.998C3.842 282.434 3.86 281.882 3.896 281.342C3.932 280.79 3.95 280.256 3.95 279.74C3.95 279.452 3.92 279.206 3.86 279.002C3.8 278.786 3.686 278.612 3.518 278.48C3.35 278.348 3.116 278.252 2.816 278.192C2.528 278.132 2.156 278.102 1.7 278.102H0.782V277.256H1.88C2.444 277.256 2.93 277.298 3.338 277.382C3.758 277.454 4.106 277.58 4.382 277.76C4.658 277.94 4.862 278.186 4.994 278.498C5.126 278.798 5.192 279.182 5.192 279.65C5.192 280.274 5.162 280.868 5.102 281.432C5.054 281.984 5.03 282.548 5.03 283.124C5.03 283.304 5.066 283.478 5.138 283.646C5.21 283.802 5.342 283.946 5.534 284.078C5.726 284.21 5.99 284.318 6.326 284.402C6.674 284.486 7.112 284.528 7.64 284.528V285.464C7.112 285.464 6.674 285.506 6.326 285.59C5.99 285.674 5.726 285.782 5.534 285.914C5.342 286.046 5.21 286.196 5.138 286.364C5.066 286.52 5.03 286.688 5.03 286.868C5.03 287.168 5.036 287.456 5.048 287.732C5.072 288.008 5.09 288.284 5.102 288.56C5.126 288.836 5.144 289.124 5.156 289.424C5.18 289.712 5.192 290.018 5.192 290.342C5.192 290.81 5.126 291.194 4.994 291.494C4.862 291.806 4.658 292.052 4.382 292.232C4.106 292.412 3.758 292.538 3.338 292.61C2.93 292.694 2.444 292.736 1.88 292.736H0.782Z" fill="black"/>
</svg>
