<svg width="378" height="253" viewBox="0 0 378 253" fill="none" xmlns="http://www.w3.org/2000/svg">
<path d="M4.356 18V10.458H1.854V9.342L4.356 9.252V8.514C4.356 7.446 4.638 6.588 5.202 5.94C5.778 5.292 6.672 4.968 7.884 4.968C8.748 4.968 9.588 5.136 10.404 5.472L10.062 6.588C9.702 6.42 9.366 6.312 9.054 6.264C8.754 6.204 8.412 6.174 8.028 6.174C7.236 6.174 6.666 6.378 6.318 6.786C5.982 7.182 5.814 7.74 5.814 8.46V9.252H9.486V10.458H5.814V18H4.356ZM12.467 18V9.252H13.691L13.817 10.746H13.889C14.345 10.254 14.837 9.846 15.365 9.522C15.893 9.198 16.499 9.036 17.183 9.036C18.227 9.036 18.989 9.336 19.469 9.936C19.961 10.524 20.207 11.4 20.207 12.564V18H18.731V12.762C18.731 11.934 18.575 11.322 18.263 10.926C17.951 10.518 17.435 10.314 16.715 10.314C16.451 10.314 16.205 10.35 15.977 10.422C15.761 10.482 15.545 10.578 15.329 10.71C15.113 10.842 14.891 11.01 14.663 11.214C14.435 11.406 14.195 11.634 13.943 11.898V18H12.467ZM36.7349 18V10.458H34.2329V9.342L36.7349 9.252V8.514C36.7349 7.446 37.0169 6.588 37.5809 5.94C38.1569 5.292 39.0509 4.968 40.2629 4.968C41.1269 4.968 41.9669 5.136 42.7829 5.472L42.4409 6.588C42.0809 6.42 41.7449 6.312 41.4329 6.264C41.1329 6.204 40.7909 6.174 40.4069 6.174C39.6149 6.174 39.0449 6.378 38.6969 6.786C38.3609 7.182 38.1929 7.74 38.1929 8.46V9.252H41.8649V10.458H38.1929V18H36.7349ZM50.9659 21.168C49.7179 20.196 48.7279 19.026 47.9959 17.658C47.2759 16.29 46.9159 14.736 46.9159 12.996C46.9159 11.256 47.2759 9.702 47.9959 8.334C48.7279 6.966 49.7179 5.796 50.9659 4.824L51.7759 5.58C50.5639 6.6 49.6699 7.71 49.0939 8.91C48.5299 10.11 48.2479 11.472 48.2479 12.996C48.2479 14.52 48.5299 15.882 49.0939 17.082C49.6699 18.282 50.5639 19.392 51.7759 20.412L50.9659 21.168ZM59.5448 18.216C58.6808 18.216 57.8828 18.084 57.1508 17.82C56.4188 17.544 55.7828 17.22 55.2428 16.848L55.9268 15.876C56.4308 16.236 56.9828 16.524 57.5828 16.74C58.1948 16.956 58.9088 17.064 59.7248 17.064C60.4688 17.064 61.0208 16.932 61.3808 16.668C61.7528 16.392 61.9388 16.068 61.9388 15.696C61.9388 15.528 61.9088 15.372 61.8488 15.228C61.7888 15.084 61.6568 14.946 61.4528 14.814C61.2608 14.682 60.9848 14.556 60.6248 14.436C60.2648 14.316 59.7908 14.196 59.2028 14.076C58.0628 13.836 57.2048 13.518 56.6288 13.122C56.0648 12.714 55.7828 12.18 55.7828 11.52C55.7828 11.172 55.8608 10.848 56.0168 10.548C56.1728 10.236 56.4008 9.972 56.7008 9.756C57.0128 9.528 57.3908 9.354 57.8348 9.234C58.2908 9.102 58.8188 9.036 59.4188 9.036C60.0908 9.036 60.7388 9.15 61.3628 9.378C61.9868 9.594 62.5148 9.852 62.9468 10.152L62.2268 11.106C61.8188 10.83 61.3688 10.608 60.8768 10.44C60.3848 10.272 59.8568 10.188 59.2928 10.188C58.5488 10.188 58.0268 10.314 57.7268 10.566C57.4268 10.818 57.2768 11.112 57.2768 11.448C57.2768 11.832 57.4748 12.126 57.8708 12.33C58.2668 12.522 58.9148 12.714 59.8148 12.906C60.5468 13.062 61.1468 13.23 61.6148 13.41C62.0828 13.578 62.4488 13.77 62.7128 13.986C62.9888 14.202 63.1748 14.442 63.2708 14.706C63.3788 14.97 63.4328 15.27 63.4328 15.606C63.4328 15.966 63.3488 16.302 63.1808 16.614C63.0128 16.926 62.7608 17.202 62.4248 17.442C62.1008 17.682 61.6928 17.868 61.2008 18C60.7208 18.144 60.1688 18.216 59.5448 18.216ZM80.9508 11.772C80.5428 11.772 80.1948 11.634 79.9068 11.358C79.6308 11.082 79.4928 10.716 79.4928 10.26C79.4928 9.804 79.6308 9.438 79.9068 9.162C80.1948 8.874 80.5428 8.73 80.9508 8.73C81.3588 8.73 81.7008 8.874 81.9768 9.162C82.2648 9.438 82.4088 9.804 82.4088 10.26C82.4088 10.716 82.2648 11.082 81.9768 11.358C81.7008 11.634 81.3588 11.772 80.9508 11.772ZM80.9508 18.216C80.5428 18.216 80.1948 18.078 79.9068 17.802C79.6308 17.526 79.4928 17.16 79.4928 16.704C79.4928 16.248 79.6308 15.882 79.9068 15.606C80.1948 15.318 80.5428 15.174 80.9508 15.174C81.3588 15.174 81.7008 15.318 81.9768 15.606C82.2648 15.882 82.4088 16.248 82.4088 16.704C82.4088 17.16 82.2648 17.526 81.9768 17.802C81.7008 18.078 81.3588 18.216 80.9508 18.216ZM101.421 18.216C100.893 18.216 100.413 18.138 99.9807 17.982C99.5487 17.814 99.1767 17.586 98.8647 17.298C98.5647 17.01 98.3247 16.668 98.1447 16.272C97.9767 15.864 97.8927 15.42 97.8927 14.94C97.8927 14.556 97.9527 14.202 98.0727 13.878C98.1927 13.554 98.3547 13.26 98.5587 12.996C98.7747 12.72 99.0147 12.468 99.2787 12.24C99.5427 12 99.8187 11.772 100.107 11.556C99.8547 11.064 99.6567 10.584 99.5127 10.116C99.3807 9.636 99.3147 9.186 99.3147 8.766C99.3147 8.37 99.3747 8.004 99.4947 7.668C99.6267 7.332 99.8007 7.038 100.017 6.786C100.245 6.534 100.515 6.336 100.827 6.192C101.151 6.048 101.511 5.976 101.907 5.976C102.639 5.976 103.203 6.192 103.599 6.624C103.995 7.056 104.193 7.62 104.193 8.316C104.193 8.7 104.115 9.048 103.959 9.36C103.815 9.672 103.623 9.972 103.383 10.26C103.143 10.536 102.873 10.8 102.573 11.052C102.273 11.292 101.967 11.532 101.655 11.772C102.039 12.384 102.477 12.972 102.969 13.536C103.473 14.1 103.995 14.616 104.535 15.084C104.871 14.604 105.159 14.082 105.399 13.518C105.651 12.942 105.861 12.312 106.029 11.628H107.397C107.181 12.408 106.917 13.152 106.605 13.86C106.293 14.568 105.921 15.234 105.489 15.858C106.209 16.41 106.887 16.788 107.523 16.992L107.109 18.216C106.329 17.976 105.507 17.526 104.643 16.866C104.211 17.286 103.731 17.616 103.203 17.856C102.687 18.096 102.093 18.216 101.421 18.216ZM100.593 8.748C100.593 9.072 100.641 9.408 100.737 9.756C100.833 10.104 100.965 10.458 101.133 10.818C101.385 10.638 101.619 10.458 101.835 10.278C102.063 10.086 102.261 9.894 102.429 9.702C102.609 9.498 102.747 9.288 102.843 9.072C102.939 8.844 102.987 8.598 102.987 8.334C102.987 7.986 102.903 7.686 102.735 7.434C102.579 7.17 102.303 7.038 101.907 7.038C101.487 7.038 101.163 7.2 100.935 7.524C100.707 7.848 100.593 8.256 100.593 8.748ZM101.601 17.028C101.973 17.028 102.333 16.944 102.681 16.776C103.029 16.608 103.359 16.38 103.671 16.092C103.095 15.588 102.549 15.036 102.033 14.436C101.529 13.836 101.073 13.212 100.665 12.564C100.281 12.9 99.9627 13.254 99.7107 13.626C99.4587 13.986 99.3327 14.394 99.3327 14.85C99.3327 15.174 99.3927 15.474 99.5127 15.75C99.6327 16.014 99.7947 16.242 99.9987 16.434C100.203 16.626 100.443 16.776 100.719 16.884C100.995 16.98 101.289 17.028 101.601 17.028ZM113.42 18.216C112.556 18.216 111.758 18.06 111.026 17.748C110.306 17.436 109.676 17.01 109.136 16.47L110.036 15.426C110.48 15.87 110.996 16.23 111.584 16.506C112.172 16.77 112.808 16.902 113.492 16.902C114.308 16.902 114.938 16.728 115.382 16.38C115.838 16.032 116.066 15.582 116.066 15.03C116.066 14.718 116.012 14.454 115.904 14.238C115.796 14.022 115.646 13.836 115.454 13.68C115.262 13.524 115.034 13.386 114.77 13.266C114.518 13.146 114.242 13.02 113.942 12.888L112.25 12.15C111.95 12.03 111.65 11.886 111.35 11.718C111.05 11.55 110.774 11.346 110.522 11.106C110.282 10.866 110.084 10.584 109.928 10.26C109.772 9.924 109.694 9.54 109.694 9.108C109.694 8.664 109.79 8.25 109.982 7.866C110.174 7.482 110.438 7.152 110.774 6.876C111.122 6.588 111.53 6.366 111.998 6.21C112.478 6.054 113 5.976 113.564 5.976C114.308 5.976 114.992 6.114 115.616 6.39C116.24 6.654 116.768 7.002 117.2 7.434L116.408 8.406C116.024 8.058 115.598 7.788 115.13 7.596C114.662 7.392 114.122 7.29 113.51 7.29C112.826 7.29 112.274 7.446 111.854 7.758C111.434 8.058 111.224 8.478 111.224 9.018C111.224 9.306 111.284 9.552 111.404 9.756C111.536 9.948 111.698 10.122 111.89 10.278C112.094 10.422 112.322 10.548 112.574 10.656C112.826 10.764 113.078 10.872 113.33 10.98L114.986 11.7C115.346 11.844 115.682 12.012 115.994 12.204C116.318 12.384 116.594 12.6 116.822 12.852C117.062 13.092 117.248 13.38 117.38 13.716C117.524 14.04 117.596 14.418 117.596 14.85C117.596 15.318 117.5 15.756 117.308 16.164C117.116 16.572 116.84 16.932 116.48 17.244C116.12 17.544 115.682 17.784 115.166 17.964C114.65 18.132 114.068 18.216 113.42 18.216ZM125.815 18.216C125.179 18.216 124.645 18.132 124.213 17.964C123.781 17.784 123.433 17.538 123.169 17.226C122.905 16.902 122.713 16.518 122.593 16.074C122.485 15.63 122.431 15.138 122.431 14.598V10.458H119.965V9.342L122.485 9.252L122.683 6.444H123.907V9.252H128.209V10.458H123.907V14.616C123.907 15.012 123.943 15.36 124.015 15.66C124.087 15.948 124.207 16.194 124.375 16.398C124.543 16.602 124.771 16.758 125.059 16.866C125.347 16.962 125.701 17.01 126.121 17.01C126.541 17.01 126.919 16.974 127.255 16.902C127.591 16.83 127.915 16.734 128.227 16.614L128.551 17.694C128.155 17.838 127.735 17.958 127.291 18.054C126.859 18.162 126.367 18.216 125.815 18.216ZM132.144 18V9.252H133.368L133.494 11.322H133.548C134.004 10.614 134.562 10.056 135.222 9.648C135.894 9.24 136.638 9.036 137.454 9.036C137.778 9.036 138.078 9.066 138.354 9.126C138.63 9.174 138.906 9.264 139.182 9.396L138.84 10.674C138.528 10.566 138.264 10.488 138.048 10.44C137.844 10.392 137.568 10.368 137.22 10.368C136.56 10.368 135.924 10.56 135.312 10.944C134.712 11.316 134.148 11.958 133.62 12.87V18H132.144ZM145.997 18V10.458H141.929V9.252H147.473V18H145.997ZM146.573 7.416C146.237 7.416 145.955 7.314 145.727 7.11C145.499 6.894 145.385 6.612 145.385 6.264C145.385 5.916 145.499 5.64 145.727 5.436C145.955 5.22 146.237 5.112 146.573 5.112C146.909 5.112 147.191 5.22 147.419 5.436C147.647 5.64 147.761 5.916 147.761 6.264C147.761 6.612 147.647 6.894 147.419 7.11C147.191 7.314 146.909 7.416 146.573 7.416ZM152.776 18V9.252H154L154.126 10.746H154.198C154.654 10.254 155.146 9.846 155.674 9.522C156.202 9.198 156.808 9.036 157.492 9.036C158.536 9.036 159.298 9.336 159.778 9.936C160.27 10.524 160.516 11.4 160.516 12.564V18H159.04V12.762C159.04 11.934 158.884 11.322 158.572 10.926C158.26 10.518 157.744 10.314 157.024 10.314C156.76 10.314 156.514 10.35 156.286 10.422C156.07 10.482 155.854 10.578 155.638 10.71C155.422 10.842 155.2 11.01 154.972 11.214C154.744 11.406 154.504 11.634 154.252 11.898V18H152.776ZM167.223 22.032C165.939 22.032 164.943 21.822 164.235 21.402C163.539 20.982 163.191 20.382 163.191 19.602C163.191 19.254 163.311 18.912 163.551 18.576C163.803 18.24 164.163 17.934 164.631 17.658V17.586C164.391 17.454 164.181 17.274 164.001 17.046C163.821 16.818 163.731 16.518 163.731 16.146C163.731 15.87 163.821 15.588 164.001 15.3C164.181 15 164.439 14.736 164.775 14.508V14.436C164.475 14.208 164.217 13.908 164.001 13.536C163.797 13.152 163.695 12.696 163.695 12.168C163.695 11.688 163.785 11.256 163.965 10.872C164.157 10.488 164.409 10.164 164.721 9.9C165.033 9.624 165.393 9.414 165.801 9.27C166.221 9.114 166.665 9.036 167.133 9.036C167.613 9.036 168.045 9.108 168.429 9.252H172.047V10.458H169.779C169.983 10.662 170.157 10.92 170.301 11.232C170.445 11.544 170.517 11.874 170.517 12.222C170.517 12.69 170.427 13.11 170.247 13.482C170.079 13.854 169.839 14.172 169.527 14.436C169.227 14.688 168.867 14.886 168.447 15.03C168.039 15.162 167.601 15.228 167.133 15.228C166.905 15.228 166.659 15.204 166.395 15.156C166.143 15.096 165.897 15.012 165.657 14.904C165.201 15.192 164.973 15.528 164.973 15.912C164.973 16.26 165.129 16.518 165.441 16.686C165.765 16.842 166.215 16.92 166.791 16.92H168.753C169.881 16.92 170.715 17.076 171.255 17.388C171.807 17.7 172.083 18.228 172.083 18.972C172.083 19.38 171.969 19.77 171.741 20.142C171.513 20.514 171.189 20.838 170.769 21.114C170.349 21.39 169.839 21.612 169.239 21.78C168.639 21.948 167.967 22.032 167.223 22.032ZM167.133 14.238C167.697 14.238 168.171 14.052 168.555 13.68C168.951 13.308 169.149 12.804 169.149 12.168C169.149 11.868 169.095 11.592 168.987 11.34C168.879 11.088 168.735 10.872 168.555 10.692C168.375 10.512 168.159 10.374 167.907 10.278C167.667 10.17 167.409 10.116 167.133 10.116C166.857 10.116 166.593 10.17 166.341 10.278C166.101 10.374 165.891 10.512 165.711 10.692C165.531 10.872 165.387 11.088 165.279 11.34C165.171 11.592 165.117 11.868 165.117 12.168C165.117 12.804 165.315 13.308 165.711 13.68C166.107 14.052 166.581 14.238 167.133 14.238ZM167.331 20.952C167.835 20.952 168.291 20.904 168.699 20.808C169.107 20.712 169.455 20.58 169.743 20.412C170.031 20.256 170.247 20.07 170.391 19.854C170.547 19.65 170.625 19.434 170.625 19.206C170.625 18.786 170.457 18.504 170.121 18.36C169.797 18.216 169.299 18.144 168.627 18.144H166.917C166.665 18.144 166.425 18.132 166.197 18.108C165.981 18.096 165.777 18.06 165.585 18C165.165 18.228 164.871 18.462 164.703 18.702C164.547 18.954 164.469 19.206 164.469 19.458C164.469 19.914 164.709 20.274 165.189 20.538C165.681 20.814 166.395 20.952 167.331 20.952ZM175.694 21.168L174.884 20.412C176.096 19.392 176.984 18.282 177.548 17.082C178.124 15.882 178.412 14.52 178.412 12.996C178.412 11.472 178.124 10.11 177.548 8.91C176.984 7.71 176.096 6.6 174.884 5.58L175.694 4.824C176.942 5.796 177.926 6.966 178.646 8.334C179.378 9.702 179.744 11.256 179.744 12.996C179.744 14.736 179.378 16.29 178.646 17.658C177.926 19.026 176.942 20.196 175.694 21.168ZM202.211 20.736C201.647 20.736 201.155 20.694 200.735 20.61C200.315 20.538 199.967 20.412 199.691 20.232C199.415 20.052 199.211 19.806 199.079 19.494C198.947 19.194 198.881 18.81 198.881 18.342C198.881 18.018 198.887 17.712 198.899 17.424C198.923 17.124 198.941 16.836 198.953 16.56C198.977 16.284 198.995 16.008 199.007 15.732C199.031 15.456 199.043 15.168 199.043 14.868C199.043 14.688 199.007 14.52 198.935 14.364C198.863 14.196 198.731 14.046 198.539 13.914C198.347 13.782 198.077 13.674 197.729 13.59C197.393 13.506 196.961 13.464 196.433 13.464V12.528C196.961 12.528 197.393 12.486 197.729 12.402C198.077 12.318 198.347 12.21 198.539 12.078C198.731 11.946 198.863 11.802 198.935 11.646C199.007 11.478 199.043 11.304 199.043 11.124C199.043 10.548 199.013 9.984 198.953 9.432C198.905 8.868 198.881 8.274 198.881 7.65C198.881 7.182 198.947 6.798 199.079 6.498C199.211 6.186 199.415 5.94 199.691 5.76C199.967 5.58 200.315 5.454 200.735 5.382C201.155 5.298 201.647 5.256 202.211 5.256H203.309V6.102H202.373C201.917 6.102 201.539 6.132 201.239 6.192C200.951 6.252 200.723 6.348 200.555 6.48C200.399 6.612 200.291 6.786 200.231 7.002C200.171 7.206 200.141 7.452 200.141 7.74C200.141 8.256 200.159 8.79 200.195 9.342C200.231 9.882 200.249 10.434 200.249 10.998C200.249 11.586 200.129 12.036 199.889 12.348C199.661 12.648 199.235 12.852 198.611 12.96V13.032C199.235 13.14 199.661 13.35 199.889 13.662C200.129 13.962 200.249 14.406 200.249 14.994C200.249 15.606 200.231 16.164 200.195 16.668C200.159 17.172 200.141 17.7 200.141 18.252C200.141 18.54 200.171 18.786 200.231 18.99C200.291 19.206 200.399 19.38 200.555 19.512C200.723 19.644 200.951 19.74 201.239 19.8C201.539 19.86 201.917 19.89 202.373 19.89H203.309V20.736H202.211ZM23.2599 44.69V32.252H24.4839L24.6099 33.368H24.6639C25.0719 32.984 25.5399 32.666 26.0679 32.414C26.6079 32.162 27.1479 32.036 27.6879 32.036C28.2759 32.036 28.7919 32.144 29.2359 32.36C29.6919 32.564 30.0699 32.864 30.3699 33.26C30.6819 33.644 30.9159 34.112 31.0719 34.664C31.2279 35.204 31.3059 35.816 31.3059 36.5C31.3059 37.244 31.1979 37.91 30.9819 38.498C30.7659 39.074 30.4719 39.566 30.0999 39.974C29.7399 40.382 29.3199 40.694 28.8399 40.91C28.3599 41.114 27.8559 41.216 27.3279 41.216C26.9199 41.216 26.4759 41.12 25.9959 40.928C25.5279 40.724 25.1019 40.442 24.7179 40.082H24.6639L24.7359 41.738V44.69H23.2599ZM27.0759 39.974C27.8679 39.974 28.5159 39.668 29.0199 39.056C29.5239 38.444 29.7759 37.592 29.7759 36.5C29.7759 36.02 29.7279 35.582 29.6319 35.186C29.5359 34.79 29.3859 34.454 29.1819 34.178C28.9899 33.89 28.7379 33.668 28.4259 33.512C28.1139 33.356 27.7419 33.278 27.3099 33.278C26.9259 33.278 26.5119 33.386 26.0679 33.602C25.6359 33.806 25.1919 34.136 24.7359 34.592V38.948C25.1559 39.32 25.5759 39.584 25.9959 39.74C26.4159 39.896 26.7759 39.974 27.0759 39.974ZM35.0069 41V32.252H36.2309L36.3569 34.322H36.4109C36.8669 33.614 37.4249 33.056 38.0849 32.648C38.7569 32.24 39.5009 32.036 40.3169 32.036C40.6409 32.036 40.9409 32.066 41.2169 32.126C41.4929 32.174 41.7689 32.264 42.0449 32.396L41.7029 33.674C41.3909 33.566 41.1269 33.488 40.9109 33.44C40.7069 33.392 40.4309 33.368 40.0829 33.368C39.4229 33.368 38.7869 33.56 38.1749 33.944C37.5749 34.316 37.0109 34.958 36.4829 35.87V41H35.0069ZM48.8599 41V33.458H44.7919V32.252H50.3359V41H48.8599ZM49.4359 30.416C49.0999 30.416 48.8179 30.314 48.5899 30.11C48.3619 29.894 48.2479 29.612 48.2479 29.264C48.2479 28.916 48.3619 28.64 48.5899 28.436C48.8179 28.22 49.0999 28.112 49.4359 28.112C49.7719 28.112 50.0539 28.22 50.2819 28.436C50.5099 28.64 50.6239 28.916 50.6239 29.264C50.6239 29.612 50.5099 29.894 50.2819 30.11C50.0539 30.314 49.7719 30.416 49.4359 30.416ZM55.6388 41V32.252H56.8628L56.9888 33.746H57.0608C57.5168 33.254 58.0088 32.846 58.5368 32.522C59.0648 32.198 59.6708 32.036 60.3548 32.036C61.3988 32.036 62.1608 32.336 62.6408 32.936C63.1328 33.524 63.3788 34.4 63.3788 35.564V41H61.9028V35.762C61.9028 34.934 61.7468 34.322 61.4348 33.926C61.1228 33.518 60.6068 33.314 59.8868 33.314C59.6228 33.314 59.3768 33.35 59.1488 33.422C58.9328 33.482 58.7168 33.578 58.5008 33.71C58.2848 33.842 58.0628 34.01 57.8348 34.214C57.6068 34.406 57.3668 34.634 57.1148 34.898V41H55.6388ZM71.8498 41.216C71.2138 41.216 70.6798 41.132 70.2478 40.964C69.8158 40.784 69.4678 40.538 69.2038 40.226C68.9398 39.902 68.7478 39.518 68.6278 39.074C68.5198 38.63 68.4658 38.138 68.4658 37.598V33.458H65.9998V32.342L68.5198 32.252L68.7178 29.444H69.9418V32.252H74.2438V33.458H69.9418V37.616C69.9418 38.012 69.9778 38.36 70.0498 38.66C70.1218 38.948 70.2418 39.194 70.4098 39.398C70.5778 39.602 70.8058 39.758 71.0938 39.866C71.3818 39.962 71.7358 40.01 72.1558 40.01C72.5758 40.01 72.9538 39.974 73.2898 39.902C73.6258 39.83 73.9498 39.734 74.2618 39.614L74.5858 40.694C74.1898 40.838 73.7698 40.958 73.3258 41.054C72.8938 41.162 72.4018 41.216 71.8498 41.216ZM82.8768 41.216C81.9408 41.216 81.2268 40.952 80.7348 40.424C80.2428 39.896 79.9968 39.11 79.9968 38.066V29.39H76.8828V28.184H81.4728V38.174C81.4728 38.822 81.6288 39.29 81.9408 39.578C82.2528 39.854 82.6728 39.992 83.2008 39.992C83.7168 39.992 84.2628 39.86 84.8388 39.596L85.2168 40.694C84.8088 40.862 84.4368 40.988 84.1008 41.072C83.7648 41.168 83.3568 41.216 82.8768 41.216ZM88.0178 41V32.252H89.2418L89.3678 33.746H89.4398C89.8958 33.254 90.3878 32.846 90.9158 32.522C91.4438 32.198 92.0498 32.036 92.7338 32.036C93.7778 32.036 94.5398 32.336 95.0198 32.936C95.5118 33.524 95.7578 34.4 95.7578 35.564V41H94.2818V35.762C94.2818 34.934 94.1258 34.322 93.8138 33.926C93.5018 33.518 92.9858 33.314 92.2658 33.314C92.0018 33.314 91.7558 33.35 91.5278 33.422C91.3118 33.482 91.0958 33.578 90.8798 33.71C90.6638 33.842 90.4418 34.01 90.2138 34.214C89.9858 34.406 89.7458 34.634 89.4938 34.898V41H88.0178ZM102.033 36.824L101.853 30.632L101.817 28.94H103.257L103.221 30.632L103.041 36.824H102.033ZM102.537 41.216C102.177 41.216 101.865 41.09 101.601 40.838C101.349 40.586 101.223 40.244 101.223 39.812C101.223 39.392 101.349 39.062 101.601 38.822C101.865 38.57 102.177 38.444 102.537 38.444C102.897 38.444 103.203 38.57 103.455 38.822C103.719 39.062 103.851 39.392 103.851 39.812C103.851 40.244 103.719 40.586 103.455 40.838C103.203 41.09 102.897 41.216 102.537 41.216ZM115.724 44.168C114.476 43.196 113.486 42.026 112.754 40.658C112.034 39.29 111.674 37.736 111.674 35.996C111.674 34.256 112.034 32.702 112.754 31.334C113.486 29.966 114.476 28.796 115.724 27.824L116.534 28.58C115.322 29.6 114.428 30.71 113.852 31.91C113.288 33.11 113.006 34.472 113.006 35.996C113.006 37.52 113.288 38.882 113.852 40.082C114.428 41.282 115.322 42.392 116.534 43.412L115.724 44.168ZM121.567 34.664L121.117 30.614L121.081 28.634H123.061L123.025 30.614L122.575 34.664H121.567ZM125.689 34.664L125.239 30.614L125.203 28.634H127.183L127.147 30.614L126.697 34.664H125.689ZM137.454 43.736C136.89 43.736 136.398 43.694 135.978 43.61C135.558 43.538 135.21 43.412 134.934 43.232C134.658 43.052 134.454 42.806 134.322 42.494C134.19 42.194 134.124 41.81 134.124 41.342C134.124 41.018 134.13 40.712 134.142 40.424C134.166 40.124 134.184 39.836 134.196 39.56C134.22 39.284 134.238 39.008 134.25 38.732C134.274 38.456 134.286 38.168 134.286 37.868C134.286 37.688 134.25 37.52 134.178 37.364C134.106 37.196 133.974 37.046 133.782 36.914C133.59 36.782 133.32 36.674 132.972 36.59C132.636 36.506 132.204 36.464 131.676 36.464V35.528C132.204 35.528 132.636 35.486 132.972 35.402C133.32 35.318 133.59 35.21 133.782 35.078C133.974 34.946 134.106 34.802 134.178 34.646C134.25 34.478 134.286 34.304 134.286 34.124C134.286 33.548 134.256 32.984 134.196 32.432C134.148 31.868 134.124 31.274 134.124 30.65C134.124 30.182 134.19 29.798 134.322 29.498C134.454 29.186 134.658 28.94 134.934 28.76C135.21 28.58 135.558 28.454 135.978 28.382C136.398 28.298 136.89 28.256 137.454 28.256H138.552V29.102H137.616C137.16 29.102 136.782 29.132 136.482 29.192C136.194 29.252 135.966 29.348 135.798 29.48C135.642 29.612 135.534 29.786 135.474 30.002C135.414 30.206 135.384 30.452 135.384 30.74C135.384 31.256 135.402 31.79 135.438 32.342C135.474 32.882 135.492 33.434 135.492 33.998C135.492 34.586 135.372 35.036 135.132 35.348C134.904 35.648 134.478 35.852 133.854 35.96V36.032C134.478 36.14 134.904 36.35 135.132 36.662C135.372 36.962 135.492 37.406 135.492 37.994C135.492 38.606 135.474 39.164 135.438 39.668C135.402 40.172 135.384 40.7 135.384 41.252C135.384 41.54 135.414 41.786 135.474 41.99C135.534 42.206 135.642 42.38 135.798 42.512C135.966 42.644 136.194 42.74 136.482 42.8C136.782 42.86 137.16 42.89 137.616 42.89H138.552V43.736H137.454ZM142.091 43.736V42.89H143.009C143.465 42.89 143.837 42.86 144.125 42.8C144.425 42.74 144.659 42.644 144.827 42.512C144.995 42.38 145.109 42.206 145.169 41.99C145.229 41.786 145.259 41.54 145.259 41.252C145.259 40.7 145.241 40.172 145.205 39.668C145.169 39.164 145.151 38.606 145.151 37.994C145.151 37.406 145.265 36.962 145.493 36.662C145.721 36.35 146.147 36.14 146.771 36.032V35.96C146.147 35.852 145.721 35.648 145.493 35.348C145.265 35.036 145.151 34.586 145.151 33.998C145.151 33.434 145.169 32.882 145.205 32.342C145.241 31.79 145.259 31.256 145.259 30.74C145.259 30.452 145.229 30.206 145.169 30.002C145.109 29.786 144.995 29.612 144.827 29.48C144.659 29.348 144.425 29.252 144.125 29.192C143.837 29.132 143.465 29.102 143.009 29.102H142.091V28.256H143.189C143.753 28.256 144.239 28.298 144.647 28.382C145.067 28.454 145.415 28.58 145.691 28.76C145.967 28.94 146.171 29.186 146.303 29.498C146.435 29.798 146.501 30.182 146.501 30.65C146.501 31.274 146.471 31.868 146.411 32.432C146.363 32.984 146.339 33.548 146.339 34.124C146.339 34.304 146.375 34.478 146.447 34.646C146.519 34.802 146.651 34.946 146.843 35.078C147.035 35.21 147.299 35.318 147.635 35.402C147.983 35.486 148.421 35.528 148.949 35.528V36.464C148.421 36.464 147.983 36.506 147.635 36.59C147.299 36.674 147.035 36.782 146.843 36.914C146.651 37.046 146.519 37.196 146.447 37.364C146.375 37.52 146.339 37.688 146.339 37.868C146.339 38.168 146.345 38.456 146.357 38.732C146.381 39.008 146.399 39.284 146.411 39.56C146.435 39.836 146.453 40.124 146.465 40.424C146.489 40.712 146.501 41.018 146.501 41.342C146.501 41.81 146.435 42.194 146.303 42.494C146.171 42.806 145.967 43.052 145.691 43.232C145.415 43.412 145.067 43.538 144.647 43.61C144.239 43.694 143.753 43.736 143.189 43.736H142.091ZM153.946 34.664L153.496 30.614L153.46 28.634H155.44L155.404 30.614L154.954 34.664H153.946ZM158.068 34.664L157.618 30.614L157.582 28.634H159.562L159.526 30.614L159.076 34.664H158.068ZM165.855 44.834L165.441 43.898C166.185 43.562 166.743 43.154 167.115 42.674C167.487 42.206 167.685 41.612 167.709 40.892C167.649 40.916 167.589 40.928 167.529 40.928C167.481 40.928 167.427 40.928 167.367 40.928C166.983 40.928 166.653 40.82 166.377 40.604C166.101 40.376 165.963 40.034 165.963 39.578C165.963 39.134 166.107 38.798 166.395 38.57C166.683 38.33 167.019 38.21 167.403 38.21C167.943 38.21 168.345 38.42 168.609 38.84C168.885 39.248 169.023 39.806 169.023 40.514C169.023 41.57 168.741 42.458 168.177 43.178C167.625 43.91 166.851 44.462 165.855 44.834ZM186.72 39.002L185.964 38.462L187.908 35.492L184.992 34.232L185.28 33.404L188.286 34.394L188.448 30.992H189.312L189.474 34.394L192.48 33.404L192.768 34.232L189.852 35.492L191.796 38.462L191.04 39.002L188.88 36.14L186.72 39.002ZM199.853 41.216C198.989 41.216 198.191 41.084 197.459 40.82C196.727 40.544 196.091 40.22 195.551 39.848L196.235 38.876C196.739 39.236 197.291 39.524 197.891 39.74C198.503 39.956 199.217 40.064 200.033 40.064C200.777 40.064 201.329 39.932 201.689 39.668C202.061 39.392 202.247 39.068 202.247 38.696C202.247 38.528 202.217 38.372 202.157 38.228C202.097 38.084 201.965 37.946 201.761 37.814C201.569 37.682 201.293 37.556 200.933 37.436C200.573 37.316 200.099 37.196 199.511 37.076C198.371 36.836 197.513 36.518 196.937 36.122C196.373 35.714 196.091 35.18 196.091 34.52C196.091 34.172 196.169 33.848 196.325 33.548C196.481 33.236 196.709 32.972 197.009 32.756C197.321 32.528 197.699 32.354 198.143 32.234C198.599 32.102 199.127 32.036 199.727 32.036C200.399 32.036 201.047 32.15 201.671 32.378C202.295 32.594 202.823 32.852 203.255 33.152L202.535 34.106C202.127 33.83 201.677 33.608 201.185 33.44C200.693 33.272 200.165 33.188 199.601 33.188C198.857 33.188 198.335 33.314 198.035 33.566C197.735 33.818 197.585 34.112 197.585 34.448C197.585 34.832 197.783 35.126 198.179 35.33C198.575 35.522 199.223 35.714 200.123 35.906C200.855 36.062 201.455 36.23 201.923 36.41C202.391 36.578 202.757 36.77 203.021 36.986C203.297 37.202 203.483 37.442 203.579 37.706C203.687 37.97 203.741 38.27 203.741 38.606C203.741 38.966 203.657 39.302 203.489 39.614C203.321 39.926 203.069 40.202 202.733 40.442C202.409 40.682 202.001 40.868 201.509 41C201.029 41.144 200.477 41.216 199.853 41.216ZM208.072 44.168L207.262 43.412C208.474 42.392 209.362 41.282 209.926 40.082C210.502 38.882 210.79 37.52 210.79 35.996C210.79 34.472 210.502 33.11 209.926 31.91C209.362 30.71 208.474 29.6 207.262 28.58L208.072 27.824C209.32 28.796 210.304 29.966 211.024 31.334C211.756 32.702 212.122 34.256 212.122 35.996C212.122 37.736 211.756 39.29 211.024 40.658C210.304 42.026 209.32 43.196 208.072 44.168ZM221.259 34.772C220.851 34.772 220.503 34.634 220.215 34.358C219.939 34.082 219.801 33.716 219.801 33.26C219.801 32.804 219.939 32.438 220.215 32.162C220.503 31.874 220.851 31.73 221.259 31.73C221.667 31.73 222.009 31.874 222.285 32.162C222.573 32.438 222.717 32.804 222.717 33.26C222.717 33.716 222.573 34.082 222.285 34.358C222.009 34.634 221.667 34.772 221.259 34.772ZM219.819 44.834L219.405 43.898C220.149 43.562 220.707 43.154 221.079 42.674C221.451 42.206 221.649 41.612 221.673 40.892C221.613 40.916 221.553 40.928 221.493 40.928C221.445 40.928 221.391 40.928 221.331 40.928C220.947 40.928 220.617 40.82 220.341 40.604C220.065 40.376 219.927 40.034 219.927 39.578C219.927 39.134 220.071 38.798 220.359 38.57C220.647 38.33 220.983 38.21 221.367 38.21C221.907 38.21 222.309 38.42 222.573 38.84C222.849 39.248 222.987 39.806 222.987 40.514C222.987 41.57 222.705 42.458 222.141 43.178C221.589 43.91 220.815 44.462 219.819 44.834ZM239.227 43.88L245.131 28.22H246.463L240.559 43.88H239.227ZM250.02 43.88L255.924 28.22H257.256L251.352 43.88H250.02ZM274 34.394L273.442 36.194H276.97L276.412 34.394C276.208 33.734 276.004 33.08 275.8 32.432C275.608 31.772 275.422 31.1 275.242 30.416H275.17C274.978 31.1 274.786 31.772 274.594 32.432C274.402 33.08 274.204 33.734 274 34.394ZM270.4 41L274.378 29.192H276.07L280.048 41H278.464L277.348 37.4H273.064L271.93 41H270.4ZM23.2599 67.69V55.252H24.4839L24.6099 56.368H24.6639C25.0719 55.984 25.5399 55.666 26.0679 55.414C26.6079 55.162 27.1479 55.036 27.6879 55.036C28.2759 55.036 28.7919 55.144 29.2359 55.36C29.6919 55.564 30.0699 55.864 30.3699 56.26C30.6819 56.644 30.9159 57.112 31.0719 57.664C31.2279 58.204 31.3059 58.816 31.3059 59.5C31.3059 60.244 31.1979 60.91 30.9819 61.498C30.7659 62.074 30.4719 62.566 30.0999 62.974C29.7399 63.382 29.3199 63.694 28.8399 63.91C28.3599 64.114 27.8559 64.216 27.3279 64.216C26.9199 64.216 26.4759 64.12 25.9959 63.928C25.5279 63.724 25.1019 63.442 24.7179 63.082H24.6639L24.7359 64.738V67.69H23.2599ZM27.0759 62.974C27.8679 62.974 28.5159 62.668 29.0199 62.056C29.5239 61.444 29.7759 60.592 29.7759 59.5C29.7759 59.02 29.7279 58.582 29.6319 58.186C29.5359 57.79 29.3859 57.454 29.1819 57.178C28.9899 56.89 28.7379 56.668 28.4259 56.512C28.1139 56.356 27.7419 56.278 27.3099 56.278C26.9259 56.278 26.5119 56.386 26.0679 56.602C25.6359 56.806 25.1919 57.136 24.7359 57.592V61.948C25.1559 62.32 25.5759 62.584 25.9959 62.74C26.4159 62.896 26.7759 62.974 27.0759 62.974ZM35.0069 64V55.252H36.2309L36.3569 57.322H36.4109C36.8669 56.614 37.4249 56.056 38.0849 55.648C38.7569 55.24 39.5009 55.036 40.3169 55.036C40.6409 55.036 40.9409 55.066 41.2169 55.126C41.4929 55.174 41.7689 55.264 42.0449 55.396L41.7029 56.674C41.3909 56.566 41.1269 56.488 40.9109 56.44C40.7069 56.392 40.4309 56.368 40.0829 56.368C39.4229 56.368 38.7869 56.56 38.1749 56.944C37.5749 57.316 37.0109 57.958 36.4829 58.87V64H35.0069ZM48.8599 64V56.458H44.7919V55.252H50.3359V64H48.8599ZM49.4359 53.416C49.0999 53.416 48.8179 53.314 48.5899 53.11C48.3619 52.894 48.2479 52.612 48.2479 52.264C48.2479 51.916 48.3619 51.64 48.5899 51.436C48.8179 51.22 49.0999 51.112 49.4359 51.112C49.7719 51.112 50.0539 51.22 50.2819 51.436C50.5099 51.64 50.6239 51.916 50.6239 52.264C50.6239 52.612 50.5099 52.894 50.2819 53.11C50.0539 53.314 49.7719 53.416 49.4359 53.416ZM55.6388 64V55.252H56.8628L56.9888 56.746H57.0608C57.5168 56.254 58.0088 55.846 58.5368 55.522C59.0648 55.198 59.6708 55.036 60.3548 55.036C61.3988 55.036 62.1608 55.336 62.6408 55.936C63.1328 56.524 63.3788 57.4 63.3788 58.564V64H61.9028V58.762C61.9028 57.934 61.7468 57.322 61.4348 56.926C61.1228 56.518 60.6068 56.314 59.8868 56.314C59.6228 56.314 59.3768 56.35 59.1488 56.422C58.9328 56.482 58.7168 56.578 58.5008 56.71C58.2848 56.842 58.0628 57.01 57.8348 57.214C57.6068 57.406 57.3668 57.634 57.1148 57.898V64H55.6388ZM71.8498 64.216C71.2138 64.216 70.6798 64.132 70.2478 63.964C69.8158 63.784 69.4678 63.538 69.2038 63.226C68.9398 62.902 68.7478 62.518 68.6278 62.074C68.5198 61.63 68.4658 61.138 68.4658 60.598V56.458H65.9998V55.342L68.5198 55.252L68.7178 52.444H69.9418V55.252H74.2438V56.458H69.9418V60.616C69.9418 61.012 69.9778 61.36 70.0498 61.66C70.1218 61.948 70.2418 62.194 70.4098 62.398C70.5778 62.602 70.8058 62.758 71.0938 62.866C71.3818 62.962 71.7358 63.01 72.1558 63.01C72.5758 63.01 72.9538 62.974 73.2898 62.902C73.6258 62.83 73.9498 62.734 74.2618 62.614L74.5858 63.694C74.1898 63.838 73.7698 63.958 73.3258 64.054C72.8938 64.162 72.4018 64.216 71.8498 64.216ZM82.8768 64.216C81.9408 64.216 81.2268 63.952 80.7348 63.424C80.2428 62.896 79.9968 62.11 79.9968 61.066V52.39H76.8828V51.184H81.4728V61.174C81.4728 61.822 81.6288 62.29 81.9408 62.578C82.2528 62.854 82.6728 62.992 83.2008 62.992C83.7168 62.992 84.2628 62.86 84.8388 62.596L85.2168 63.694C84.8088 63.862 84.4368 63.988 84.1008 64.072C83.7648 64.168 83.3568 64.216 82.8768 64.216ZM88.0178 64V55.252H89.2418L89.3678 56.746H89.4398C89.8958 56.254 90.3878 55.846 90.9158 55.522C91.4438 55.198 92.0498 55.036 92.7338 55.036C93.7778 55.036 94.5398 55.336 95.0198 55.936C95.5118 56.524 95.7578 57.4 95.7578 58.564V64H94.2818V58.762C94.2818 57.934 94.1258 57.322 93.8138 56.926C93.5018 56.518 92.9858 56.314 92.2658 56.314C92.0018 56.314 91.7558 56.35 91.5278 56.422C91.3118 56.482 91.0958 56.578 90.8798 56.71C90.6638 56.842 90.4418 57.01 90.2138 57.214C89.9858 57.406 89.7458 57.634 89.4938 57.898V64H88.0178ZM102.033 59.824L101.853 53.632L101.817 51.94H103.257L103.221 53.632L103.041 59.824H102.033ZM102.537 64.216C102.177 64.216 101.865 64.09 101.601 63.838C101.349 63.586 101.223 63.244 101.223 62.812C101.223 62.392 101.349 62.062 101.601 61.822C101.865 61.57 102.177 61.444 102.537 61.444C102.897 61.444 103.203 61.57 103.455 61.822C103.719 62.062 103.851 62.392 103.851 62.812C103.851 63.244 103.719 63.586 103.455 63.838C103.203 64.09 102.897 64.216 102.537 64.216ZM115.724 67.168C114.476 66.196 113.486 65.026 112.754 63.658C112.034 62.29 111.674 60.736 111.674 58.996C111.674 57.256 112.034 55.702 112.754 54.334C113.486 52.966 114.476 51.796 115.724 50.824L116.534 51.58C115.322 52.6 114.428 53.71 113.852 54.91C113.288 56.11 113.006 57.472 113.006 58.996C113.006 60.52 113.288 61.882 113.852 63.082C114.428 64.282 115.322 65.392 116.534 66.412L115.724 67.168ZM121.567 57.664L121.117 53.614L121.081 51.634H123.061L123.025 53.614L122.575 57.664H121.567ZM125.689 57.664L125.239 53.614L125.203 51.634H127.183L127.147 53.614L126.697 57.664H125.689ZM130.938 64V52.192H132.45V57.142H137.382V52.192H138.894V64H137.382V58.438H132.45V64H130.938ZM146.249 64.216C145.589 64.216 144.971 64.114 144.395 63.91C143.831 63.706 143.333 63.406 142.901 63.01C142.481 62.614 142.145 62.134 141.893 61.57C141.653 60.994 141.533 60.34 141.533 59.608C141.533 58.9 141.653 58.264 141.893 57.7C142.145 57.136 142.475 56.656 142.883 56.26C143.303 55.864 143.777 55.564 144.305 55.36C144.845 55.144 145.409 55.036 145.997 55.036C146.621 55.036 147.179 55.138 147.671 55.342C148.175 55.534 148.595 55.81 148.931 56.17C149.279 56.53 149.543 56.962 149.723 57.466C149.903 57.97 149.993 58.528 149.993 59.14C149.993 59.308 149.987 59.47 149.975 59.626C149.963 59.782 149.945 59.92 149.921 60.04H143.027C143.123 61.036 143.483 61.786 144.107 62.29C144.743 62.782 145.517 63.028 146.429 63.028C146.957 63.028 147.431 62.956 147.851 62.812C148.283 62.656 148.697 62.452 149.093 62.2L149.633 63.172C149.201 63.46 148.703 63.706 148.139 63.91C147.587 64.114 146.957 64.216 146.249 64.216ZM146.033 56.206C145.673 56.206 145.325 56.266 144.989 56.386C144.665 56.506 144.371 56.68 144.107 56.908C143.843 57.124 143.621 57.4 143.441 57.736C143.261 58.072 143.135 58.456 143.063 58.888H148.643C148.583 57.988 148.319 57.316 147.851 56.872C147.395 56.428 146.789 56.206 146.033 56.206ZM158.428 64.216C157.492 64.216 156.778 63.952 156.286 63.424C155.794 62.896 155.548 62.11 155.548 61.066V52.39H152.434V51.184H157.024V61.174C157.024 61.822 157.18 62.29 157.492 62.578C157.804 62.854 158.224 62.992 158.752 62.992C159.268 62.992 159.814 62.86 160.39 62.596L160.768 63.694C160.36 63.862 159.988 63.988 159.652 64.072C159.316 64.168 158.908 64.216 158.428 64.216ZM169.221 64.216C168.285 64.216 167.571 63.952 167.079 63.424C166.587 62.896 166.341 62.11 166.341 61.066V52.39H163.227V51.184H167.817V61.174C167.817 61.822 167.973 62.29 168.285 62.578C168.597 62.854 169.017 62.992 169.545 62.992C170.061 62.992 170.607 62.86 171.183 62.596L171.561 63.694C171.153 63.862 170.781 63.988 170.445 64.072C170.109 64.168 169.701 64.216 169.221 64.216ZM178.088 64.216C177.512 64.216 176.96 64.114 176.432 63.91C175.916 63.706 175.46 63.412 175.063 63.028C174.668 62.632 174.35 62.152 174.11 61.588C173.882 61.012 173.768 60.364 173.768 59.644C173.768 58.912 173.882 58.264 174.11 57.7C174.35 57.124 174.668 56.638 175.063 56.242C175.46 55.846 175.916 55.546 176.432 55.342C176.96 55.138 177.512 55.036 178.088 55.036C178.664 55.036 179.21 55.138 179.726 55.342C180.254 55.546 180.716 55.846 181.112 56.242C181.508 56.638 181.82 57.124 182.048 57.7C182.288 58.264 182.408 58.912 182.408 59.644C182.408 60.364 182.288 61.012 182.048 61.588C181.82 62.152 181.508 62.632 181.112 63.028C180.716 63.412 180.254 63.706 179.726 63.91C179.21 64.114 178.664 64.216 178.088 64.216ZM178.088 62.992C178.508 62.992 178.886 62.914 179.222 62.758C179.57 62.59 179.864 62.362 180.104 62.074C180.356 61.774 180.548 61.42 180.68 61.012C180.812 60.604 180.878 60.148 180.878 59.644C180.878 59.14 180.812 58.684 180.68 58.276C180.548 57.856 180.356 57.496 180.104 57.196C179.864 56.896 179.57 56.668 179.222 56.512C178.886 56.344 178.508 56.26 178.088 56.26C177.668 56.26 177.284 56.344 176.936 56.512C176.6 56.668 176.306 56.896 176.054 57.196C175.814 57.496 175.628 57.856 175.496 58.276C175.364 58.684 175.298 59.14 175.298 59.644C175.298 60.148 175.364 60.604 175.496 61.012C175.628 61.42 175.814 61.774 176.054 62.074C176.306 62.362 176.6 62.59 176.936 62.758C177.284 62.914 177.668 62.992 178.088 62.992ZM188.376 59.824L188.196 53.632L188.16 51.94H189.6L189.564 53.632L189.384 59.824H188.376ZM188.88 64.216C188.52 64.216 188.208 64.09 187.944 63.838C187.692 63.586 187.566 63.244 187.566 62.812C187.566 62.392 187.692 62.062 187.944 61.822C188.208 61.57 188.52 61.444 188.88 61.444C189.24 61.444 189.546 61.57 189.798 61.822C190.062 62.062 190.194 62.392 190.194 62.812C190.194 63.244 190.062 63.586 189.798 63.838C189.546 64.09 189.24 64.216 188.88 64.216ZM197.117 57.664L196.667 53.614L196.631 51.634H198.611L198.575 53.614L198.125 57.664H197.117ZM201.239 57.664L200.789 53.614L200.753 51.634H202.733L202.697 53.614L202.247 57.664H201.239ZM208.072 67.168L207.262 66.412C208.474 65.392 209.362 64.282 209.926 63.082C210.502 61.882 210.79 60.52 210.79 58.996C210.79 57.472 210.502 56.11 209.926 54.91C209.362 53.71 208.474 52.6 207.262 51.58L208.072 50.824C209.32 51.796 210.304 52.966 211.024 54.334C211.756 55.702 212.122 57.256 212.122 58.996C212.122 60.736 211.756 62.29 211.024 63.658C210.304 65.026 209.32 66.196 208.072 67.168ZM221.259 57.772C220.851 57.772 220.503 57.634 220.215 57.358C219.939 57.082 219.801 56.716 219.801 56.26C219.801 55.804 219.939 55.438 220.215 55.162C220.503 54.874 220.851 54.73 221.259 54.73C221.667 54.73 222.009 54.874 222.285 55.162C222.573 55.438 222.717 55.804 222.717 56.26C222.717 56.716 222.573 57.082 222.285 57.358C222.009 57.634 221.667 57.772 221.259 57.772ZM219.819 67.834L219.405 66.898C220.149 66.562 220.707 66.154 221.079 65.674C221.451 65.206 221.649 64.612 221.673 63.892C221.613 63.916 221.553 63.928 221.493 63.928C221.445 63.928 221.391 63.928 221.331 63.928C220.947 63.928 220.617 63.82 220.341 63.604C220.065 63.376 219.927 63.034 219.927 62.578C219.927 62.134 220.071 61.798 220.359 61.57C220.647 61.33 220.983 61.21 221.367 61.21C221.907 61.21 222.309 61.42 222.573 61.84C222.849 62.248 222.987 62.806 222.987 63.514C222.987 64.57 222.705 65.458 222.141 66.178C221.589 66.91 220.815 67.462 219.819 67.834ZM239.227 66.88L245.131 51.22H246.463L240.559 66.88H239.227ZM250.02 66.88L255.924 51.22H257.256L251.352 66.88H250.02ZM271.606 64V52.192H274.954C275.554 52.192 276.1 52.246 276.592 52.354C277.096 52.462 277.522 52.63 277.87 52.858C278.23 53.086 278.506 53.386 278.698 53.758C278.902 54.118 279.004 54.556 279.004 55.072C279.004 55.66 278.836 56.194 278.5 56.674C278.164 57.142 277.642 57.466 276.934 57.646V57.718C277.798 57.85 278.47 58.15 278.95 58.618C279.43 59.086 279.67 59.728 279.67 60.544C279.67 61.12 279.562 61.624 279.346 62.056C279.13 62.488 278.824 62.848 278.428 63.136C278.044 63.424 277.576 63.64 277.024 63.784C276.484 63.928 275.884 64 275.224 64H271.606ZM273.1 57.16H274.702C275.71 57.16 276.43 56.998 276.862 56.674C277.306 56.35 277.528 55.858 277.528 55.198C277.528 54.55 277.294 54.1 276.826 53.848C276.37 53.584 275.686 53.452 274.774 53.452H273.1V57.16ZM273.1 62.74H275.008C276.028 62.74 276.814 62.566 277.366 62.218C277.918 61.858 278.194 61.276 278.194 60.472C278.194 59.74 277.924 59.218 277.384 58.906C276.844 58.582 276.052 58.42 275.008 58.42H273.1V62.74ZM1.782 89.736V88.89H2.7C3.156 88.89 3.528 88.86 3.816 88.8C4.116 88.74 4.35 88.644 4.518 88.512C4.686 88.38 4.8 88.206 4.86 87.99C4.92 87.786 4.95 87.54 4.95 87.252C4.95 86.7 4.932 86.172 4.896 85.668C4.86 85.164 4.842 84.606 4.842 83.994C4.842 83.406 4.956 82.962 5.184 82.662C5.412 82.35 5.838 82.14 6.462 82.032V81.96C5.838 81.852 5.412 81.648 5.184 81.348C4.956 81.036 4.842 80.586 4.842 79.998C4.842 79.434 4.86 78.882 4.896 78.342C4.932 77.79 4.95 77.256 4.95 76.74C4.95 76.452 4.92 76.206 4.86 76.002C4.8 75.786 4.686 75.612 4.518 75.48C4.35 75.348 4.116 75.252 3.816 75.192C3.528 75.132 3.156 75.102 2.7 75.102H1.782V74.256H2.88C3.444 74.256 3.93 74.298 4.338 74.382C4.758 74.454 5.106 74.58 5.382 74.76C5.658 74.94 5.862 75.186 5.994 75.498C6.126 75.798 6.192 76.182 6.192 76.65C6.192 77.274 6.162 77.868 6.102 78.432C6.054 78.984 6.03 79.548 6.03 80.124C6.03 80.304 6.066 80.478 6.138 80.646C6.21 80.802 6.342 80.946 6.534 81.078C6.726 81.21 6.99 81.318 7.326 81.402C7.674 81.486 8.112 81.528 8.64 81.528V82.464C8.112 82.464 7.674 82.506 7.326 82.59C6.99 82.674 6.726 82.782 6.534 82.914C6.342 83.046 6.21 83.196 6.138 83.364C6.066 83.52 6.03 83.688 6.03 83.868C6.03 84.168 6.036 84.456 6.048 84.732C6.072 85.008 6.09 85.284 6.102 85.56C6.126 85.836 6.144 86.124 6.156 86.424C6.18 86.712 6.192 87.018 6.192 87.342C6.192 87.81 6.126 88.194 5.994 88.494C5.862 88.806 5.658 89.052 5.382 89.232C5.106 89.412 4.758 89.538 4.338 89.61C3.93 89.694 3.444 89.736 2.88 89.736H1.782ZM4.356 133V125.458H1.854V124.342L4.356 124.252V123.514C4.356 122.446 4.638 121.588 5.202 120.94C5.778 120.292 6.672 119.968 7.884 119.968C8.748 119.968 9.588 120.136 10.404 120.472L10.062 121.588C9.702 121.42 9.366 121.312 9.054 121.264C8.754 121.204 8.412 121.174 8.028 121.174C7.236 121.174 6.666 121.378 6.318 121.786C5.982 122.182 5.814 122.74 5.814 123.46V124.252H9.486V125.458H5.814V133H4.356ZM12.467 133V124.252H13.691L13.817 125.746H13.889C14.345 125.254 14.837 124.846 15.365 124.522C15.893 124.198 16.499 124.036 17.183 124.036C18.227 124.036 18.989 124.336 19.469 124.936C19.961 125.524 20.207 126.4 20.207 127.564V133H18.731V127.762C18.731 126.934 18.575 126.322 18.263 125.926C17.951 125.518 17.435 125.314 16.715 125.314C16.451 125.314 16.205 125.35 15.977 125.422C15.761 125.482 15.545 125.578 15.329 125.71C15.113 125.842 14.891 126.01 14.663 126.214C14.435 126.406 14.195 126.634 13.943 126.898V133H12.467ZM33.4229 133V124.252H34.6109L34.7369 125.404H34.7729C35.0009 124.996 35.2649 124.666 35.5649 124.414C35.8649 124.162 36.2669 124.036 36.7709 124.036C37.6229 124.036 38.1749 124.54 38.4269 125.548C38.6789 125.08 38.9549 124.714 39.2549 124.45C39.5669 124.174 39.9749 124.036 40.4789 124.036C41.0909 124.036 41.5649 124.27 41.9009 124.738C42.2489 125.194 42.4229 125.86 42.4229 126.736V133H40.9469V126.844C40.9469 125.824 40.6349 125.314 40.0109 125.314C39.6989 125.314 39.4469 125.428 39.2549 125.656C39.0629 125.872 38.8469 126.208 38.6069 126.664V133H37.2389V126.844C37.2389 126.34 37.1669 125.962 37.0229 125.71C36.8909 125.446 36.6629 125.314 36.3389 125.314C36.0269 125.314 35.7629 125.428 35.5469 125.656C35.3309 125.872 35.1149 126.208 34.8989 126.664V133H33.4229ZM47.5999 133.216C47.1919 133.216 46.8079 133.156 46.4479 133.036C46.0879 132.928 45.7699 132.772 45.4939 132.568C45.2299 132.352 45.0199 132.094 44.8639 131.794C44.7079 131.482 44.6299 131.128 44.6299 130.732C44.6299 130.24 44.7439 129.814 44.9719 129.454C45.2119 129.082 45.5839 128.764 46.0879 128.5C46.6039 128.236 47.2639 128.02 48.0679 127.852C48.8719 127.684 49.8379 127.552 50.9659 127.456C50.9539 127.156 50.9059 126.874 50.8219 126.61C50.7379 126.346 50.6059 126.118 50.4259 125.926C50.2459 125.722 50.0059 125.56 49.7059 125.44C49.4179 125.32 49.0639 125.26 48.6439 125.26C48.0679 125.26 47.5159 125.374 46.9879 125.602C46.4599 125.818 45.9919 126.052 45.5839 126.304L45.0079 125.296C45.2239 125.152 45.4759 125.008 45.7639 124.864C46.0639 124.708 46.3759 124.57 46.6999 124.45C47.0359 124.33 47.3899 124.234 47.7619 124.162C48.1339 124.078 48.5119 124.036 48.8959 124.036C50.0959 124.036 50.9839 124.366 51.5599 125.026C52.1479 125.674 52.4419 126.544 52.4419 127.636V133H51.2359L51.1099 131.812H51.0559C50.5639 132.196 50.0179 132.526 49.4179 132.802C48.8299 133.078 48.2239 133.216 47.5999 133.216ZM47.9959 132.028C48.4999 132.028 48.9919 131.92 49.4719 131.704C49.9639 131.476 50.4619 131.152 50.9659 130.732V128.428C50.0299 128.5 49.2439 128.602 48.6079 128.734C47.9839 128.866 47.4799 129.028 47.0959 129.22C46.7239 129.4 46.4599 129.61 46.3039 129.85C46.1479 130.078 46.0699 130.336 46.0699 130.624C46.0699 130.876 46.1239 131.092 46.2319 131.272C46.3399 131.44 46.4779 131.584 46.6459 131.704C46.8259 131.812 47.0299 131.896 47.2579 131.956C47.4979 132.004 47.7439 132.028 47.9959 132.028ZM59.6528 133V125.458H55.5848V124.252H61.1288V133H59.6528ZM60.2288 122.416C59.8928 122.416 59.6108 122.314 59.3828 122.11C59.1548 121.894 59.0408 121.612 59.0408 121.264C59.0408 120.916 59.1548 120.64 59.3828 120.436C59.6108 120.22 59.8928 120.112 60.2288 120.112C60.5648 120.112 60.8468 120.22 61.0748 120.436C61.3028 120.64 61.4168 120.916 61.4168 121.264C61.4168 121.612 61.3028 121.894 61.0748 122.11C60.8468 122.314 60.5648 122.416 60.2288 122.416ZM66.4318 133V124.252H67.6558L67.7818 125.746H67.8538C68.3098 125.254 68.8018 124.846 69.3298 124.522C69.8578 124.198 70.4638 124.036 71.1478 124.036C72.1918 124.036 72.9538 124.336 73.4338 124.936C73.9258 125.524 74.1718 126.4 74.1718 127.564V133H72.6958V127.762C72.6958 126.934 72.5398 126.322 72.2278 125.926C71.9158 125.518 71.3998 125.314 70.6798 125.314C70.4158 125.314 70.1698 125.35 69.9418 125.422C69.7258 125.482 69.5098 125.578 69.2938 125.71C69.0778 125.842 68.8558 126.01 68.6278 126.214C68.3998 126.406 68.1598 126.634 67.9078 126.898V133H66.4318ZM83.3448 136.168C82.0968 135.196 81.1068 134.026 80.3748 132.658C79.6548 131.29 79.2948 129.736 79.2948 127.996C79.2948 126.256 79.6548 124.702 80.3748 123.334C81.1068 121.966 82.0968 120.796 83.3448 119.824L84.1548 120.58C82.9428 121.6 82.0488 122.71 81.4728 123.91C80.9088 125.11 80.6268 126.472 80.6268 127.996C80.6268 129.52 80.9088 130.882 81.4728 132.082C82.0488 133.282 82.9428 134.392 84.1548 135.412L83.3448 136.168ZM89.3498 136.168L88.5398 135.412C89.7518 134.392 90.6398 133.282 91.2038 132.082C91.7798 130.882 92.0678 129.52 92.0678 127.996C92.0678 126.472 91.7798 125.11 91.2038 123.91C90.6398 122.71 89.7518 121.6 88.5398 120.58L89.3498 119.824C90.5978 120.796 91.5818 121.966 92.3018 123.334C93.0338 124.702 93.3998 126.256 93.3998 127.996C93.3998 129.736 93.0338 131.29 92.3018 132.658C91.5818 134.026 90.5978 135.196 89.3498 136.168ZM115.868 135.736C115.304 135.736 114.812 135.694 114.392 135.61C113.972 135.538 113.624 135.412 113.348 135.232C113.072 135.052 112.868 134.806 112.736 134.494C112.604 134.194 112.538 133.81 112.538 133.342C112.538 133.018 112.544 132.712 112.556 132.424C112.58 132.124 112.598 131.836 112.61 131.56C112.634 131.284 112.652 131.008 112.664 130.732C112.688 130.456 112.7 130.168 112.7 129.868C112.7 129.688 112.664 129.52 112.592 129.364C112.52 129.196 112.388 129.046 112.196 128.914C112.004 128.782 111.734 128.674 111.386 128.59C111.05 128.506 110.618 128.464 110.09 128.464V127.528C110.618 127.528 111.05 127.486 111.386 127.402C111.734 127.318 112.004 127.21 112.196 127.078C112.388 126.946 112.52 126.802 112.592 126.646C112.664 126.478 112.7 126.304 112.7 126.124C112.7 125.548 112.67 124.984 112.61 124.432C112.562 123.868 112.538 123.274 112.538 122.65C112.538 122.182 112.604 121.798 112.736 121.498C112.868 121.186 113.072 120.94 113.348 120.76C113.624 120.58 113.972 120.454 114.392 120.382C114.812 120.298 115.304 120.256 115.868 120.256H116.966V121.102H116.03C115.574 121.102 115.196 121.132 114.896 121.192C114.608 121.252 114.38 121.348 114.212 121.48C114.056 121.612 113.948 121.786 113.888 122.002C113.828 122.206 113.798 122.452 113.798 122.74C113.798 123.256 113.816 123.79 113.852 124.342C113.888 124.882 113.906 125.434 113.906 125.998C113.906 126.586 113.786 127.036 113.546 127.348C113.318 127.648 112.892 127.852 112.268 127.96V128.032C112.892 128.14 113.318 128.35 113.546 128.662C113.786 128.962 113.906 129.406 113.906 129.994C113.906 130.606 113.888 131.164 113.852 131.668C113.816 132.172 113.798 132.7 113.798 133.252C113.798 133.54 113.828 133.786 113.888 133.99C113.948 134.206 114.056 134.38 114.212 134.512C114.38 134.644 114.608 134.74 114.896 134.8C115.196 134.86 115.574 134.89 116.03 134.89H116.966V135.736H115.868ZM28.9119 156.216C27.9759 156.216 27.2619 155.952 26.7699 155.424C26.2779 154.896 26.0319 154.11 26.0319 153.066V144.39H22.9179V143.184H27.5079V153.174C27.5079 153.822 27.6639 154.29 27.9759 154.578C28.2879 154.854 28.7079 154.992 29.2359 154.992C29.7519 154.992 30.2979 154.86 30.8739 154.596L31.2519 155.694C30.8439 155.862 30.4719 155.988 30.1359 156.072C29.7999 156.168 29.3919 156.216 28.9119 156.216ZM38.3189 156.216C37.6589 156.216 37.0409 156.114 36.4649 155.91C35.9009 155.706 35.4029 155.406 34.9709 155.01C34.5509 154.614 34.2149 154.134 33.9629 153.57C33.7229 152.994 33.6029 152.34 33.6029 151.608C33.6029 150.9 33.7229 150.264 33.9629 149.7C34.2149 149.136 34.5449 148.656 34.9529 148.26C35.3729 147.864 35.8469 147.564 36.3749 147.36C36.9149 147.144 37.4789 147.036 38.0669 147.036C38.6909 147.036 39.2489 147.138 39.7409 147.342C40.2449 147.534 40.6649 147.81 41.0009 148.17C41.3489 148.53 41.6129 148.962 41.7929 149.466C41.9729 149.97 42.0629 150.528 42.0629 151.14C42.0629 151.308 42.0569 151.47 42.0449 151.626C42.0329 151.782 42.0149 151.92 41.9909 152.04H35.0969C35.1929 153.036 35.5529 153.786 36.1769 154.29C36.8129 154.782 37.5869 155.028 38.4989 155.028C39.0269 155.028 39.5009 154.956 39.9209 154.812C40.3529 154.656 40.7669 154.452 41.1629 154.2L41.7029 155.172C41.2709 155.46 40.7729 155.706 40.2089 155.91C39.6569 156.114 39.0269 156.216 38.3189 156.216ZM38.1029 148.206C37.7429 148.206 37.3949 148.266 37.0589 148.386C36.7349 148.506 36.4409 148.68 36.1769 148.908C35.9129 149.124 35.6909 149.4 35.5109 149.736C35.3309 150.072 35.2049 150.456 35.1329 150.888H40.7129C40.6529 149.988 40.3889 149.316 39.9209 148.872C39.4649 148.428 38.8589 148.206 38.1029 148.206ZM50.2639 156.216C49.6279 156.216 49.0939 156.132 48.6619 155.964C48.2299 155.784 47.8819 155.538 47.6179 155.226C47.3539 154.902 47.1619 154.518 47.0419 154.074C46.9339 153.63 46.8799 153.138 46.8799 152.598V148.458H44.4139V147.342L46.9339 147.252L47.1319 144.444H48.3559V147.252H52.6579V148.458H48.3559V152.616C48.3559 153.012 48.3919 153.36 48.4639 153.66C48.5359 153.948 48.6559 154.194 48.8239 154.398C48.9919 154.602 49.2199 154.758 49.5079 154.866C49.7959 154.962 50.1499 155.01 50.5699 155.01C50.9899 155.01 51.3679 154.974 51.7039 154.902C52.0399 154.83 52.3639 154.734 52.6759 154.614L52.9999 155.694C52.6039 155.838 52.1839 155.958 51.7399 156.054C51.3079 156.162 50.8159 156.216 50.2639 156.216ZM65.9098 156L69.2398 151.464L66.1618 147.252H67.7998L69.1858 149.178C69.3418 149.418 69.5038 149.664 69.6718 149.916C69.8518 150.168 70.0318 150.414 70.2118 150.654H70.2838C70.4518 150.414 70.6198 150.162 70.7878 149.898C70.9558 149.634 71.1178 149.382 71.2738 149.142L72.5878 147.252H74.1538L71.0398 151.59L74.3878 156H72.7678L71.2378 153.984C71.0578 153.732 70.8658 153.468 70.6618 153.192C70.4698 152.916 70.2778 152.652 70.0858 152.4H70.0138C69.8338 152.664 69.6538 152.928 69.4738 153.192C69.2938 153.444 69.1138 153.708 68.9338 153.984L67.4938 156H65.9098ZM87.8738 148.692V147.576H95.6138V148.692H87.8738ZM87.8738 152.526V151.41H95.6138V152.526H87.8738ZM113.42 156.216C112.556 156.216 111.758 156.06 111.026 155.748C110.306 155.436 109.676 155.01 109.136 154.47L110.036 153.426C110.48 153.87 110.996 154.23 111.584 154.506C112.172 154.77 112.808 154.902 113.492 154.902C114.308 154.902 114.938 154.728 115.382 154.38C115.838 154.032 116.066 153.582 116.066 153.03C116.066 152.718 116.012 152.454 115.904 152.238C115.796 152.022 115.646 151.836 115.454 151.68C115.262 151.524 115.034 151.386 114.77 151.266C114.518 151.146 114.242 151.02 113.942 150.888L112.25 150.15C111.95 150.03 111.65 149.886 111.35 149.718C111.05 149.55 110.774 149.346 110.522 149.106C110.282 148.866 110.084 148.584 109.928 148.26C109.772 147.924 109.694 147.54 109.694 147.108C109.694 146.664 109.79 146.25 109.982 145.866C110.174 145.482 110.438 145.152 110.774 144.876C111.122 144.588 111.53 144.366 111.998 144.21C112.478 144.054 113 143.976 113.564 143.976C114.308 143.976 114.992 144.114 115.616 144.39C116.24 144.654 116.768 145.002 117.2 145.434L116.408 146.406C116.024 146.058 115.598 145.788 115.13 145.596C114.662 145.392 114.122 145.29 113.51 145.29C112.826 145.29 112.274 145.446 111.854 145.758C111.434 146.058 111.224 146.478 111.224 147.018C111.224 147.306 111.284 147.552 111.404 147.756C111.536 147.948 111.698 148.122 111.89 148.278C112.094 148.422 112.322 148.548 112.574 148.656C112.826 148.764 113.078 148.872 113.33 148.98L114.986 149.7C115.346 149.844 115.682 150.012 115.994 150.204C116.318 150.384 116.594 150.6 116.822 150.852C117.062 151.092 117.248 151.38 117.38 151.716C117.524 152.04 117.596 152.418 117.596 152.85C117.596 153.318 117.5 153.756 117.308 154.164C117.116 154.572 116.84 154.932 116.48 155.244C116.12 155.544 115.682 155.784 115.166 155.964C114.65 156.132 114.068 156.216 113.42 156.216ZM125.815 156.216C125.179 156.216 124.645 156.132 124.213 155.964C123.781 155.784 123.433 155.538 123.169 155.226C122.905 154.902 122.713 154.518 122.593 154.074C122.485 153.63 122.431 153.138 122.431 152.598V148.458H119.965V147.342L122.485 147.252L122.683 144.444H123.907V147.252H128.209V148.458H123.907V152.616C123.907 153.012 123.943 153.36 124.015 153.66C124.087 153.948 124.207 154.194 124.375 154.398C124.543 154.602 124.771 154.758 125.059 154.866C125.347 154.962 125.701 155.01 126.121 155.01C126.541 155.01 126.919 154.974 127.255 154.902C127.591 154.83 127.915 154.734 128.227 154.614L128.551 155.694C128.155 155.838 127.735 155.958 127.291 156.054C126.859 156.162 126.367 156.216 125.815 156.216ZM132.144 156V147.252H133.368L133.494 149.322H133.548C134.004 148.614 134.562 148.056 135.222 147.648C135.894 147.24 136.638 147.036 137.454 147.036C137.778 147.036 138.078 147.066 138.354 147.126C138.63 147.174 138.906 147.264 139.182 147.396L138.84 148.674C138.528 148.566 138.264 148.488 138.048 148.44C137.844 148.392 137.568 148.368 137.22 148.368C136.56 148.368 135.924 148.56 135.312 148.944C134.712 149.316 134.148 149.958 133.62 150.87V156H132.144ZM145.997 156V148.458H141.929V147.252H147.473V156H145.997ZM146.573 145.416C146.237 145.416 145.955 145.314 145.727 145.11C145.499 144.894 145.385 144.612 145.385 144.264C145.385 143.916 145.499 143.64 145.727 143.436C145.955 143.22 146.237 143.112 146.573 143.112C146.909 143.112 147.191 143.22 147.419 143.436C147.647 143.64 147.761 143.916 147.761 144.264C147.761 144.612 147.647 144.894 147.419 145.11C147.191 145.314 146.909 145.416 146.573 145.416ZM152.776 156V147.252H154L154.126 148.746H154.198C154.654 148.254 155.146 147.846 155.674 147.522C156.202 147.198 156.808 147.036 157.492 147.036C158.536 147.036 159.298 147.336 159.778 147.936C160.27 148.524 160.516 149.4 160.516 150.564V156H159.04V150.762C159.04 149.934 158.884 149.322 158.572 148.926C158.26 148.518 157.744 148.314 157.024 148.314C156.76 148.314 156.514 148.35 156.286 148.422C156.07 148.482 155.854 148.578 155.638 148.71C155.422 148.842 155.2 149.01 154.972 149.214C154.744 149.406 154.504 149.634 154.252 149.898V156H152.776ZM167.223 160.032C165.939 160.032 164.943 159.822 164.235 159.402C163.539 158.982 163.191 158.382 163.191 157.602C163.191 157.254 163.311 156.912 163.551 156.576C163.803 156.24 164.163 155.934 164.631 155.658V155.586C164.391 155.454 164.181 155.274 164.001 155.046C163.821 154.818 163.731 154.518 163.731 154.146C163.731 153.87 163.821 153.588 164.001 153.3C164.181 153 164.439 152.736 164.775 152.508V152.436C164.475 152.208 164.217 151.908 164.001 151.536C163.797 151.152 163.695 150.696 163.695 150.168C163.695 149.688 163.785 149.256 163.965 148.872C164.157 148.488 164.409 148.164 164.721 147.9C165.033 147.624 165.393 147.414 165.801 147.27C166.221 147.114 166.665 147.036 167.133 147.036C167.613 147.036 168.045 147.108 168.429 147.252H172.047V148.458H169.779C169.983 148.662 170.157 148.92 170.301 149.232C170.445 149.544 170.517 149.874 170.517 150.222C170.517 150.69 170.427 151.11 170.247 151.482C170.079 151.854 169.839 152.172 169.527 152.436C169.227 152.688 168.867 152.886 168.447 153.03C168.039 153.162 167.601 153.228 167.133 153.228C166.905 153.228 166.659 153.204 166.395 153.156C166.143 153.096 165.897 153.012 165.657 152.904C165.201 153.192 164.973 153.528 164.973 153.912C164.973 154.26 165.129 154.518 165.441 154.686C165.765 154.842 166.215 154.92 166.791 154.92H168.753C169.881 154.92 170.715 155.076 171.255 155.388C171.807 155.7 172.083 156.228 172.083 156.972C172.083 157.38 171.969 157.77 171.741 158.142C171.513 158.514 171.189 158.838 170.769 159.114C170.349 159.39 169.839 159.612 169.239 159.78C168.639 159.948 167.967 160.032 167.223 160.032ZM167.133 152.238C167.697 152.238 168.171 152.052 168.555 151.68C168.951 151.308 169.149 150.804 169.149 150.168C169.149 149.868 169.095 149.592 168.987 149.34C168.879 149.088 168.735 148.872 168.555 148.692C168.375 148.512 168.159 148.374 167.907 148.278C167.667 148.17 167.409 148.116 167.133 148.116C166.857 148.116 166.593 148.17 166.341 148.278C166.101 148.374 165.891 148.512 165.711 148.692C165.531 148.872 165.387 149.088 165.279 149.34C165.171 149.592 165.117 149.868 165.117 150.168C165.117 150.804 165.315 151.308 165.711 151.68C166.107 152.052 166.581 152.238 167.133 152.238ZM167.331 158.952C167.835 158.952 168.291 158.904 168.699 158.808C169.107 158.712 169.455 158.58 169.743 158.412C170.031 158.256 170.247 158.07 170.391 157.854C170.547 157.65 170.625 157.434 170.625 157.206C170.625 156.786 170.457 156.504 170.121 156.36C169.797 156.216 169.299 156.144 168.627 156.144H166.917C166.665 156.144 166.425 156.132 166.197 156.108C165.981 156.096 165.777 156.06 165.585 156C165.165 156.228 164.871 156.462 164.703 156.702C164.547 156.954 164.469 157.206 164.469 157.458C164.469 157.914 164.709 158.274 165.189 158.538C165.681 158.814 166.395 158.952 167.331 158.952ZM178.088 149.772C177.68 149.772 177.332 149.634 177.044 149.358C176.768 149.082 176.63 148.716 176.63 148.26C176.63 147.804 176.768 147.438 177.044 147.162C177.332 146.874 177.68 146.73 178.088 146.73C178.496 146.73 178.838 146.874 179.114 147.162C179.402 147.438 179.546 147.804 179.546 148.26C179.546 148.716 179.402 149.082 179.114 149.358C178.838 149.634 178.496 149.772 178.088 149.772ZM178.088 156.216C177.68 156.216 177.332 156.078 177.044 155.802C176.768 155.526 176.63 155.16 176.63 154.704C176.63 154.248 176.768 153.882 177.044 153.606C177.332 153.318 177.68 153.174 178.088 153.174C178.496 153.174 178.838 153.318 179.114 153.606C179.402 153.882 179.546 154.248 179.546 154.704C179.546 155.16 179.402 155.526 179.114 155.802C178.838 156.078 178.496 156.216 178.088 156.216ZM188.88 149.772C188.472 149.772 188.124 149.634 187.836 149.358C187.56 149.082 187.422 148.716 187.422 148.26C187.422 147.804 187.56 147.438 187.836 147.162C188.124 146.874 188.472 146.73 188.88 146.73C189.288 146.73 189.63 146.874 189.906 147.162C190.194 147.438 190.338 147.804 190.338 148.26C190.338 148.716 190.194 149.082 189.906 149.358C189.63 149.634 189.288 149.772 188.88 149.772ZM188.88 156.216C188.472 156.216 188.124 156.078 187.836 155.802C187.56 155.526 187.422 155.16 187.422 154.704C187.422 154.248 187.56 153.882 187.836 153.606C188.124 153.318 188.472 153.174 188.88 153.174C189.288 153.174 189.63 153.318 189.906 153.606C190.194 153.882 190.338 154.248 190.338 154.704C190.338 155.16 190.194 155.526 189.906 155.802C189.63 156.078 189.288 156.216 188.88 156.216ZM198.629 156V148.458H196.127V147.342L198.629 147.252V146.514C198.629 145.446 198.911 144.588 199.475 143.94C200.051 143.292 200.945 142.968 202.157 142.968C203.021 142.968 203.861 143.136 204.677 143.472L204.335 144.588C203.975 144.42 203.639 144.312 203.327 144.264C203.027 144.204 202.685 144.174 202.301 144.174C201.509 144.174 200.939 144.378 200.591 144.786C200.255 145.182 200.087 145.74 200.087 146.46V147.252H203.759V148.458H200.087V156H198.629ZM207.694 156V147.252H208.918L209.044 149.322H209.098C209.554 148.614 210.112 148.056 210.772 147.648C211.444 147.24 212.188 147.036 213.004 147.036C213.328 147.036 213.628 147.066 213.904 147.126C214.18 147.174 214.456 147.264 214.732 147.396L214.39 148.674C214.078 148.566 213.814 148.488 213.598 148.44C213.394 148.392 213.118 148.368 212.77 148.368C212.11 148.368 211.474 148.56 210.862 148.944C210.262 149.316 209.698 149.958 209.17 150.87V156H207.694ZM221.259 156.216C220.683 156.216 220.131 156.114 219.603 155.91C219.087 155.706 218.631 155.412 218.235 155.028C217.839 154.632 217.521 154.152 217.281 153.588C217.053 153.012 216.939 152.364 216.939 151.644C216.939 150.912 217.053 150.264 217.281 149.7C217.521 149.124 217.839 148.638 218.235 148.242C218.631 147.846 219.087 147.546 219.603 147.342C220.131 147.138 220.683 147.036 221.259 147.036C221.835 147.036 222.381 147.138 222.897 147.342C223.425 147.546 223.887 147.846 224.283 148.242C224.679 148.638 224.991 149.124 225.219 149.7C225.459 150.264 225.579 150.912 225.579 151.644C225.579 152.364 225.459 153.012 225.219 153.588C224.991 154.152 224.679 154.632 224.283 155.028C223.887 155.412 223.425 155.706 222.897 155.91C222.381 156.114 221.835 156.216 221.259 156.216ZM221.259 154.992C221.679 154.992 222.057 154.914 222.393 154.758C222.741 154.59 223.035 154.362 223.275 154.074C223.527 153.774 223.719 153.42 223.851 153.012C223.983 152.604 224.049 152.148 224.049 151.644C224.049 151.14 223.983 150.684 223.851 150.276C223.719 149.856 223.527 149.496 223.275 149.196C223.035 148.896 222.741 148.668 222.393 148.512C222.057 148.344 221.679 148.26 221.259 148.26C220.839 148.26 220.455 148.344 220.107 148.512C219.771 148.668 219.477 148.896 219.225 149.196C218.985 149.496 218.799 149.856 218.667 150.276C218.535 150.684 218.469 151.14 218.469 151.644C218.469 152.148 218.535 152.604 218.667 153.012C218.799 153.42 218.985 153.774 219.225 154.074C219.477 154.362 219.771 154.59 220.107 154.758C220.455 154.914 220.839 154.992 221.259 154.992ZM227.696 156V147.252H228.884L229.01 148.404H229.046C229.274 147.996 229.538 147.666 229.838 147.414C230.138 147.162 230.54 147.036 231.044 147.036C231.896 147.036 232.448 147.54 232.7 148.548C232.952 148.08 233.228 147.714 233.528 147.45C233.84 147.174 234.248 147.036 234.752 147.036C235.364 147.036 235.838 147.27 236.174 147.738C236.522 148.194 236.696 148.86 236.696 149.736V156H235.22V149.844C235.22 148.824 234.908 148.314 234.284 148.314C233.972 148.314 233.72 148.428 233.528 148.656C233.336 148.872 233.12 149.208 232.88 149.664V156H231.512V149.844C231.512 149.34 231.44 148.962 231.296 148.71C231.164 148.446 230.936 148.314 230.612 148.314C230.3 148.314 230.036 148.428 229.82 148.656C229.604 148.872 229.388 149.208 229.172 149.664V156H227.696ZM245.239 159.168C243.991 158.196 243.001 157.026 242.269 155.658C241.549 154.29 241.189 152.736 241.189 150.996C241.189 149.256 241.549 147.702 242.269 146.334C243.001 144.966 243.991 143.796 245.239 142.824L246.049 143.58C244.837 144.6 243.943 145.71 243.367 146.91C242.803 148.11 242.521 149.472 242.521 150.996C242.521 152.52 242.803 153.882 243.367 155.082C243.943 156.282 244.837 157.392 246.049 158.412L245.239 159.168ZM251.082 149.664L250.632 145.614L250.596 143.634H252.576L252.54 145.614L252.09 149.664H251.082ZM255.204 149.664L254.754 145.614L254.718 143.634H256.698L256.662 145.614L256.212 149.664H255.204ZM261.083 156V144.192H268.391V145.452H262.595V149.16H267.491V150.438H262.595V154.722H268.571V156H261.083ZM271.876 156V144.192H279.184V145.452H273.388V149.16H278.284V150.438H273.388V154.722H279.364V156H271.876ZM286.935 156.216C286.203 156.216 285.525 156.078 284.901 155.802C284.277 155.526 283.731 155.13 283.263 154.614C282.807 154.086 282.447 153.444 282.183 152.688C281.919 151.92 281.787 151.056 281.787 150.096C281.787 149.148 281.919 148.296 282.183 147.54C282.447 146.784 282.813 146.142 283.281 145.614C283.749 145.086 284.307 144.684 284.955 144.408C285.603 144.12 286.311 143.976 287.079 143.976C287.787 143.976 288.411 144.12 288.951 144.408C289.503 144.696 289.953 145.032 290.301 145.416L289.455 146.37C289.143 146.046 288.795 145.788 288.411 145.596C288.027 145.392 287.583 145.29 287.079 145.29C286.515 145.29 285.999 145.404 285.531 145.632C285.075 145.848 284.685 146.166 284.361 146.586C284.037 146.994 283.785 147.492 283.605 148.08C283.425 148.668 283.335 149.328 283.335 150.06C283.335 150.804 283.425 151.476 283.605 152.076C283.785 152.664 284.037 153.168 284.361 153.588C284.685 154.008 285.075 154.332 285.531 154.56C285.999 154.788 286.515 154.902 287.079 154.902C287.619 154.902 288.099 154.788 288.519 154.56C288.951 154.332 289.359 154.008 289.743 153.588L290.589 154.506C290.121 155.046 289.593 155.466 289.005 155.766C288.417 156.066 287.727 156.216 286.935 156.216ZM296.9 156.216C296.036 156.216 295.238 156.06 294.506 155.748C293.786 155.436 293.156 155.01 292.616 154.47L293.516 153.426C293.96 153.87 294.476 154.23 295.064 154.506C295.652 154.77 296.288 154.902 296.972 154.902C297.788 154.902 298.418 154.728 298.862 154.38C299.318 154.032 299.546 153.582 299.546 153.03C299.546 152.718 299.492 152.454 299.384 152.238C299.276 152.022 299.126 151.836 298.934 151.68C298.742 151.524 298.514 151.386 298.25 151.266C297.998 151.146 297.722 151.02 297.422 150.888L295.73 150.15C295.43 150.03 295.13 149.886 294.83 149.718C294.53 149.55 294.254 149.346 294.002 149.106C293.762 148.866 293.564 148.584 293.408 148.26C293.252 147.924 293.174 147.54 293.174 147.108C293.174 146.664 293.27 146.25 293.462 145.866C293.654 145.482 293.918 145.152 294.254 144.876C294.602 144.588 295.01 144.366 295.478 144.21C295.958 144.054 296.48 143.976 297.044 143.976C297.788 143.976 298.472 144.114 299.096 144.39C299.72 144.654 300.248 145.002 300.68 145.434L299.888 146.406C299.504 146.058 299.078 145.788 298.61 145.596C298.142 145.392 297.602 145.29 296.99 145.29C296.306 145.29 295.754 145.446 295.334 145.758C294.914 146.058 294.704 146.478 294.704 147.018C294.704 147.306 294.764 147.552 294.884 147.756C295.016 147.948 295.178 148.122 295.37 148.278C295.574 148.422 295.802 148.548 296.054 148.656C296.306 148.764 296.558 148.872 296.81 148.98L298.466 149.7C298.826 149.844 299.162 150.012 299.474 150.204C299.798 150.384 300.074 150.6 300.302 150.852C300.542 151.092 300.728 151.38 300.86 151.716C301.004 152.04 301.076 152.418 301.076 152.85C301.076 153.318 300.98 153.756 300.788 154.164C300.596 154.572 300.32 154.932 299.96 155.244C299.6 155.544 299.162 155.784 298.646 155.964C298.13 156.132 297.548 156.216 296.9 156.216ZM319.62 156V152.832H313.698V151.842L319.44 144.516H321.024V151.644H322.806V152.832H321.024V156H319.62ZM315.336 151.644H319.62V148.08C319.632 147.768 319.644 147.432 319.656 147.072C319.668 146.7 319.686 146.358 319.71 146.046H319.62C319.44 146.322 319.248 146.604 319.044 146.892C318.84 147.168 318.642 147.444 318.45 147.72L315.336 151.644ZM328.847 150.42C329.303 150.42 329.789 150.3 330.305 150.06C330.821 149.82 331.313 149.43 331.781 148.89C331.661 147.762 331.349 146.91 330.845 146.334C330.353 145.758 329.681 145.47 328.829 145.47C328.481 145.47 328.157 145.53 327.857 145.65C327.569 145.77 327.317 145.944 327.101 146.172C326.885 146.388 326.711 146.652 326.579 146.964C326.459 147.276 326.399 147.618 326.399 147.99C326.399 148.782 326.603 149.388 327.011 149.808C327.431 150.216 328.043 150.42 328.847 150.42ZM328.415 156.216C327.707 156.216 327.089 156.102 326.561 155.874C326.045 155.646 325.595 155.358 325.211 155.01L326.039 154.074C326.327 154.35 326.669 154.572 327.065 154.74C327.461 154.908 327.881 154.992 328.325 154.992C328.781 154.992 329.213 154.908 329.621 154.74C330.041 154.572 330.407 154.296 330.719 153.912C331.043 153.516 331.301 153.006 331.493 152.382C331.685 151.758 331.793 150.984 331.817 150.06C331.349 150.516 330.833 150.876 330.269 151.14C329.717 151.404 329.147 151.536 328.559 151.536C328.031 151.536 327.545 151.464 327.101 151.32C326.669 151.164 326.297 150.942 325.985 150.654C325.673 150.354 325.427 149.982 325.247 149.538C325.079 149.094 324.995 148.578 324.995 147.99C324.995 147.438 325.097 146.94 325.301 146.496C325.505 146.04 325.781 145.65 326.129 145.326C326.489 145.002 326.897 144.75 327.353 144.57C327.821 144.39 328.307 144.3 328.811 144.3C329.435 144.3 330.017 144.414 330.557 144.642C331.097 144.87 331.565 145.218 331.961 145.686C332.357 146.142 332.663 146.718 332.879 147.414C333.107 148.098 333.221 148.902 333.221 149.826C333.221 150.978 333.083 151.962 332.807 152.778C332.543 153.582 332.189 154.242 331.745 154.758C331.301 155.262 330.791 155.634 330.215 155.874C329.639 156.102 329.039 156.216 328.415 156.216ZM339.982 156.216C338.698 156.216 337.69 155.7 336.958 154.668C336.226 153.624 335.86 152.142 335.86 150.222C335.86 148.29 336.226 146.82 336.958 145.812C337.69 144.804 338.698 144.3 339.982 144.3C341.266 144.3 342.274 144.804 343.006 145.812C343.738 146.82 344.104 148.29 344.104 150.222C344.104 152.142 343.738 153.624 343.006 154.668C342.274 155.7 341.266 156.216 339.982 156.216ZM339.982 155.028C340.786 155.028 341.44 154.638 341.944 153.858C342.46 153.078 342.718 151.866 342.718 150.222C342.718 149.394 342.652 148.686 342.52 148.098C342.388 147.498 342.196 147.006 341.944 146.622C341.704 146.226 341.416 145.938 341.08 145.758C340.744 145.578 340.378 145.488 339.982 145.488C339.586 145.488 339.22 145.578 338.884 145.758C338.548 145.938 338.254 146.226 338.002 146.622C337.762 147.006 337.576 147.498 337.444 148.098C337.312 148.686 337.246 149.394 337.246 150.222C337.246 151.866 337.498 153.078 338.002 153.858C338.518 154.638 339.178 155.028 339.982 155.028ZM339.982 151.302C339.682 151.302 339.418 151.2 339.19 150.996C338.974 150.78 338.866 150.48 338.866 150.096C338.866 149.724 338.974 149.436 339.19 149.232C339.418 149.016 339.682 148.908 339.982 148.908C340.282 148.908 340.54 149.016 340.756 149.232C340.984 149.436 341.098 149.724 341.098 150.096C341.098 150.48 340.984 150.78 340.756 150.996C340.54 151.2 340.282 151.302 339.982 151.302ZM348.219 149.664L347.769 145.614L347.733 143.634H349.713L349.677 145.614L349.227 149.664H348.219ZM352.341 149.664L351.891 145.614L351.855 143.634H353.835L353.799 145.614L353.349 149.664H352.341ZM359.174 159.168L358.364 158.412C359.576 157.392 360.464 156.282 361.028 155.082C361.604 153.882 361.892 152.52 361.892 150.996C361.892 149.472 361.604 148.11 361.028 146.91C360.464 145.71 359.576 144.6 358.364 143.58L359.174 142.824C360.422 143.796 361.406 144.966 362.126 146.334C362.858 147.702 363.224 149.256 363.224 150.996C363.224 152.736 362.858 154.29 362.126 155.658C361.406 157.026 360.422 158.196 359.174 159.168ZM372.361 149.772C371.953 149.772 371.605 149.634 371.317 149.358C371.041 149.082 370.903 148.716 370.903 148.26C370.903 147.804 371.041 147.438 371.317 147.162C371.605 146.874 371.953 146.73 372.361 146.73C372.769 146.73 373.111 146.874 373.387 147.162C373.675 147.438 373.819 147.804 373.819 148.26C373.819 148.716 373.675 149.082 373.387 149.358C373.111 149.634 372.769 149.772 372.361 149.772ZM370.921 159.834L370.507 158.898C371.251 158.562 371.809 158.154 372.181 157.674C372.553 157.206 372.751 156.612 372.775 155.892C372.715 155.916 372.655 155.928 372.595 155.928C372.547 155.928 372.493 155.928 372.433 155.928C372.049 155.928 371.719 155.82 371.443 155.604C371.167 155.376 371.029 155.034 371.029 154.578C371.029 154.134 371.173 153.798 371.461 153.57C371.749 153.33 372.085 153.21 372.469 153.21C373.009 153.21 373.411 153.42 373.675 153.84C373.951 154.248 374.089 154.806 374.089 155.514C374.089 156.57 373.807 157.458 373.243 158.178C372.691 158.91 371.917 159.462 370.921 159.834ZM28.9119 179.216C27.9759 179.216 27.2619 178.952 26.7699 178.424C26.2779 177.896 26.0319 177.11 26.0319 176.066V167.39H22.9179V166.184H27.5079V176.174C27.5079 176.822 27.6639 177.29 27.9759 177.578C28.2879 177.854 28.7079 177.992 29.2359 177.992C29.7519 177.992 30.2979 177.86 30.8739 177.596L31.2519 178.694C30.8439 178.862 30.4719 178.988 30.1359 179.072C29.7999 179.168 29.3919 179.216 28.9119 179.216ZM38.3189 179.216C37.6589 179.216 37.0409 179.114 36.4649 178.91C35.9009 178.706 35.4029 178.406 34.9709 178.01C34.5509 177.614 34.2149 177.134 33.9629 176.57C33.7229 175.994 33.6029 175.34 33.6029 174.608C33.6029 173.9 33.7229 173.264 33.9629 172.7C34.2149 172.136 34.5449 171.656 34.9529 171.26C35.3729 170.864 35.8469 170.564 36.3749 170.36C36.9149 170.144 37.4789 170.036 38.0669 170.036C38.6909 170.036 39.2489 170.138 39.7409 170.342C40.2449 170.534 40.6649 170.81 41.0009 171.17C41.3489 171.53 41.6129 171.962 41.7929 172.466C41.9729 172.97 42.0629 173.528 42.0629 174.14C42.0629 174.308 42.0569 174.47 42.0449 174.626C42.0329 174.782 42.0149 174.92 41.9909 175.04H35.0969C35.1929 176.036 35.5529 176.786 36.1769 177.29C36.8129 177.782 37.5869 178.028 38.4989 178.028C39.0269 178.028 39.5009 177.956 39.9209 177.812C40.3529 177.656 40.7669 177.452 41.1629 177.2L41.7029 178.172C41.2709 178.46 40.7729 178.706 40.2089 178.91C39.6569 179.114 39.0269 179.216 38.3189 179.216ZM38.1029 171.206C37.7429 171.206 37.3949 171.266 37.0589 171.386C36.7349 171.506 36.4409 171.68 36.1769 171.908C35.9129 172.124 35.6909 172.4 35.5109 172.736C35.3309 173.072 35.2049 173.456 35.1329 173.888H40.7129C40.6529 172.988 40.3889 172.316 39.9209 171.872C39.4649 171.428 38.8589 171.206 38.1029 171.206ZM50.2639 179.216C49.6279 179.216 49.0939 179.132 48.6619 178.964C48.2299 178.784 47.8819 178.538 47.6179 178.226C47.3539 177.902 47.1619 177.518 47.0419 177.074C46.9339 176.63 46.8799 176.138 46.8799 175.598V171.458H44.4139V170.342L46.9339 170.252L47.1319 167.444H48.3559V170.252H52.6579V171.458H48.3559V175.616C48.3559 176.012 48.3919 176.36 48.4639 176.66C48.5359 176.948 48.6559 177.194 48.8239 177.398C48.9919 177.602 49.2199 177.758 49.5079 177.866C49.7959 177.962 50.1499 178.01 50.5699 178.01C50.9899 178.01 51.3679 177.974 51.7039 177.902C52.0399 177.83 52.3639 177.734 52.6759 177.614L52.9999 178.694C52.6039 178.838 52.1839 178.958 51.7399 179.054C51.3079 179.162 50.8159 179.216 50.2639 179.216ZM67.1158 182.762C66.6838 182.762 66.2998 182.702 65.9638 182.582L66.2698 181.412C66.3898 181.448 66.5158 181.478 66.6478 181.502C66.7918 181.526 66.9298 181.538 67.0618 181.538C67.6738 181.538 68.1718 181.358 68.5558 180.998C68.9398 180.65 69.2398 180.206 69.4558 179.666L69.7258 179.018L65.6398 170.252H67.1338L69.2758 175.094C69.4438 175.478 69.6178 175.892 69.7978 176.336C69.9898 176.78 70.1758 177.212 70.3558 177.632H70.4278C70.5838 177.212 70.7398 176.786 70.8958 176.354C71.0638 175.91 71.2198 175.49 71.3638 175.094L73.2718 170.252H74.6758L70.8238 179.72C70.6558 180.152 70.4638 180.554 70.2478 180.926C70.0318 181.298 69.7738 181.616 69.4738 181.88C69.1738 182.156 68.8258 182.372 68.4298 182.528C68.0458 182.684 67.6078 182.762 67.1158 182.762ZM87.8738 171.692V170.576H95.6138V171.692H87.8738ZM87.8738 175.526V174.41H95.6138V175.526H87.8738ZM112.214 179.216C111.686 179.216 111.206 179.138 110.774 178.982C110.342 178.814 109.97 178.586 109.658 178.298C109.358 178.01 109.118 177.668 108.938 177.272C108.77 176.864 108.686 176.42 108.686 175.94C108.686 175.556 108.746 175.202 108.866 174.878C108.986 174.554 109.148 174.26 109.352 173.996C109.568 173.72 109.808 173.468 110.072 173.24C110.336 173 110.612 172.772 110.9 172.556C110.648 172.064 110.45 171.584 110.306 171.116C110.174 170.636 110.108 170.186 110.108 169.766C110.108 169.37 110.168 169.004 110.288 168.668C110.42 168.332 110.594 168.038 110.81 167.786C111.038 167.534 111.308 167.336 111.62 167.192C111.944 167.048 112.304 166.976 112.7 166.976C113.432 166.976 113.996 167.192 114.392 167.624C114.788 168.056 114.986 168.62 114.986 169.316C114.986 169.7 114.908 170.048 114.752 170.36C114.608 170.672 114.416 170.972 114.176 171.26C113.936 171.536 113.666 171.8 113.366 172.052C113.066 172.292 112.76 172.532 112.448 172.772C112.832 173.384 113.27 173.972 113.762 174.536C114.266 175.1 114.788 175.616 115.328 176.084C115.664 175.604 115.952 175.082 116.192 174.518C116.444 173.942 116.654 173.312 116.822 172.628H118.19C117.974 173.408 117.71 174.152 117.398 174.86C117.086 175.568 116.714 176.234 116.282 176.858C117.002 177.41 117.68 177.788 118.316 177.992L117.902 179.216C117.122 178.976 116.3 178.526 115.436 177.866C115.004 178.286 114.524 178.616 113.996 178.856C113.48 179.096 112.886 179.216 112.214 179.216ZM111.386 169.748C111.386 170.072 111.434 170.408 111.53 170.756C111.626 171.104 111.758 171.458 111.926 171.818C112.178 171.638 112.412 171.458 112.628 171.278C112.856 171.086 113.054 170.894 113.222 170.702C113.402 170.498 113.54 170.288 113.636 170.072C113.732 169.844 113.78 169.598 113.78 169.334C113.78 168.986 113.696 168.686 113.528 168.434C113.372 168.17 113.096 168.038 112.7 168.038C112.28 168.038 111.956 168.2 111.728 168.524C111.5 168.848 111.386 169.256 111.386 169.748ZM112.394 178.028C112.766 178.028 113.126 177.944 113.474 177.776C113.822 177.608 114.152 177.38 114.464 177.092C113.888 176.588 113.342 176.036 112.826 175.436C112.322 174.836 111.866 174.212 111.458 173.564C111.074 173.9 110.756 174.254 110.504 174.626C110.252 174.986 110.126 175.394 110.126 175.85C110.126 176.174 110.186 176.474 110.306 176.75C110.426 177.014 110.588 177.242 110.792 177.434C110.996 177.626 111.236 177.776 111.512 177.884C111.788 177.98 112.082 178.028 112.394 178.028ZM119.875 179L123.205 174.464L120.127 170.252H121.765L123.151 172.178C123.307 172.418 123.469 172.664 123.637 172.916C123.817 173.168 123.997 173.414 124.177 173.654H124.249C124.417 173.414 124.585 173.162 124.753 172.898C124.921 172.634 125.083 172.382 125.239 172.142L126.553 170.252H128.119L125.005 174.59L128.353 179H126.733L125.203 176.984C125.023 176.732 124.831 176.468 124.627 176.192C124.435 175.916 124.243 175.652 124.051 175.4H123.979C123.799 175.664 123.619 175.928 123.439 176.192C123.259 176.444 123.079 176.708 122.899 176.984L121.459 179H119.875ZM134.916 172.772C134.508 172.772 134.16 172.634 133.872 172.358C133.596 172.082 133.458 171.716 133.458 171.26C133.458 170.804 133.596 170.438 133.872 170.162C134.16 169.874 134.508 169.73 134.916 169.73C135.324 169.73 135.666 169.874 135.942 170.162C136.23 170.438 136.374 170.804 136.374 171.26C136.374 171.716 136.23 172.082 135.942 172.358C135.666 172.634 135.324 172.772 134.916 172.772ZM133.476 182.834L133.062 181.898C133.806 181.562 134.364 181.154 134.736 180.674C135.108 180.206 135.306 179.612 135.33 178.892C135.27 178.916 135.21 178.928 135.15 178.928C135.102 178.928 135.048 178.928 134.988 178.928C134.604 178.928 134.274 178.82 133.998 178.604C133.722 178.376 133.584 178.034 133.584 177.578C133.584 177.134 133.728 176.798 134.016 176.57C134.304 176.33 134.64 176.21 135.024 176.21C135.564 176.21 135.966 176.42 136.23 176.84C136.506 177.248 136.644 177.806 136.644 178.514C136.644 179.57 136.362 180.458 135.798 181.178C135.246 181.91 134.472 182.462 133.476 182.834ZM25.9419 202V194.458H23.4399V193.342L25.9419 193.252V192.514C25.9419 191.446 26.2239 190.588 26.7879 189.94C27.3639 189.292 28.2579 188.968 29.4699 188.968C30.3339 188.968 31.1739 189.136 31.9899 189.472L31.6479 190.588C31.2879 190.42 30.9519 190.312 30.6399 190.264C30.3399 190.204 29.9979 190.174 29.6139 190.174C28.8219 190.174 28.2519 190.378 27.9039 190.786C27.5679 191.182 27.3999 191.74 27.3999 192.46V193.252H31.0719V194.458H27.3999V202H25.9419ZM40.1729 205.168C38.9249 204.196 37.9349 203.026 37.2029 201.658C36.4829 200.29 36.1229 198.736 36.1229 196.996C36.1229 195.256 36.4829 193.702 37.2029 192.334C37.9349 190.966 38.9249 189.796 40.1729 188.824L40.9829 189.58C39.7709 190.6 38.8769 191.71 38.3009 192.91C37.7369 194.11 37.4549 195.472 37.4549 196.996C37.4549 198.52 37.7369 199.882 38.3009 201.082C38.8769 202.282 39.7709 203.392 40.9829 204.412L40.1729 205.168ZM45.5299 205.762C45.0979 205.762 44.7139 205.702 44.3779 205.582L44.6839 204.412C44.8039 204.448 44.9299 204.478 45.0619 204.502C45.2059 204.526 45.3439 204.538 45.4759 204.538C46.0879 204.538 46.5859 204.358 46.9699 203.998C47.3539 203.65 47.6539 203.206 47.8699 202.666L48.1399 202.018L44.0539 193.252H45.5479L47.6899 198.094C47.8579 198.478 48.0319 198.892 48.2119 199.336C48.4039 199.78 48.5899 200.212 48.7699 200.632H48.8419C48.9979 200.212 49.1539 199.786 49.3099 199.354C49.4779 198.91 49.6339 198.49 49.7779 198.094L51.6859 193.252H53.0899L49.2379 202.72C49.0699 203.152 48.8779 203.554 48.6619 203.926C48.4459 204.298 48.1879 204.616 47.8879 204.88C47.5879 205.156 47.2399 205.372 46.8439 205.528C46.4599 205.684 46.0219 205.762 45.5299 205.762ZM56.9708 205.168L56.1608 204.412C57.3728 203.392 58.2608 202.282 58.8248 201.082C59.4008 199.882 59.6888 198.52 59.6888 196.996C59.6888 195.472 59.4008 194.11 58.8248 192.91C58.2608 191.71 57.3728 190.6 56.1608 189.58L56.9708 188.824C58.2188 189.796 59.2028 190.966 59.9228 192.334C60.6548 193.702 61.0208 195.256 61.0208 196.996C61.0208 198.736 60.6548 200.29 59.9228 201.658C59.2028 203.026 58.2188 204.196 56.9708 205.168ZM70.1578 195.772C69.7498 195.772 69.4018 195.634 69.1138 195.358C68.8378 195.082 68.6998 194.716 68.6998 194.26C68.6998 193.804 68.8378 193.438 69.1138 193.162C69.4018 192.874 69.7498 192.73 70.1578 192.73C70.5658 192.73 70.9078 192.874 71.1838 193.162C71.4718 193.438 71.6158 193.804 71.6158 194.26C71.6158 194.716 71.4718 195.082 71.1838 195.358C70.9078 195.634 70.5658 195.772 70.1578 195.772ZM68.7178 205.834L68.3038 204.898C69.0478 204.562 69.6058 204.154 69.9778 203.674C70.3498 203.206 70.5478 202.612 70.5718 201.892C70.5118 201.916 70.4518 201.928 70.3918 201.928C70.3438 201.928 70.2898 201.928 70.2298 201.928C69.8458 201.928 69.5158 201.82 69.2398 201.604C68.9638 201.376 68.8258 201.034 68.8258 200.578C68.8258 200.134 68.9698 199.798 69.2578 199.57C69.5458 199.33 69.8818 199.21 70.2658 199.21C70.8058 199.21 71.2078 199.42 71.4718 199.84C71.7478 200.248 71.8858 200.806 71.8858 201.514C71.8858 202.57 71.6038 203.458 71.0398 204.178C70.4878 204.91 69.7138 205.462 68.7178 205.834ZM88.1258 204.88L94.0298 189.22H95.3618L89.4578 204.88H88.1258ZM98.9187 204.88L104.823 189.22H106.155L100.251 204.88H98.9187ZM125.041 202.216C124.309 202.216 123.631 202.078 123.007 201.802C122.383 201.526 121.837 201.13 121.369 200.614C120.913 200.086 120.553 199.444 120.289 198.688C120.025 197.92 119.893 197.056 119.893 196.096C119.893 195.148 120.025 194.296 120.289 193.54C120.553 192.784 120.919 192.142 121.387 191.614C121.855 191.086 122.413 190.684 123.061 190.408C123.709 190.12 124.417 189.976 125.185 189.976C125.893 189.976 126.517 190.12 127.057 190.408C127.609 190.696 128.059 191.032 128.407 191.416L127.561 192.37C127.249 192.046 126.901 191.788 126.517 191.596C126.133 191.392 125.689 191.29 125.185 191.29C124.621 191.29 124.105 191.404 123.637 191.632C123.181 191.848 122.791 192.166 122.467 192.586C122.143 192.994 121.891 193.492 121.711 194.08C121.531 194.668 121.441 195.328 121.441 196.06C121.441 196.804 121.531 197.476 121.711 198.076C121.891 198.664 122.143 199.168 122.467 199.588C122.791 200.008 123.181 200.332 123.637 200.56C124.105 200.788 124.621 200.902 125.185 200.902C125.725 200.902 126.205 200.788 126.625 200.56C127.057 200.332 127.465 200.008 127.849 199.588L128.695 200.506C128.227 201.046 127.699 201.466 127.111 201.766C126.523 202.066 125.833 202.216 125.041 202.216ZM23.2599 228.69V216.252H24.4839L24.6099 217.368H24.6639C25.0719 216.984 25.5399 216.666 26.0679 216.414C26.6079 216.162 27.1479 216.036 27.6879 216.036C28.2759 216.036 28.7919 216.144 29.2359 216.36C29.6919 216.564 30.0699 216.864 30.3699 217.26C30.6819 217.644 30.9159 218.112 31.0719 218.664C31.2279 219.204 31.3059 219.816 31.3059 220.5C31.3059 221.244 31.1979 221.91 30.9819 222.498C30.7659 223.074 30.4719 223.566 30.0999 223.974C29.7399 224.382 29.3199 224.694 28.8399 224.91C28.3599 225.114 27.8559 225.216 27.3279 225.216C26.9199 225.216 26.4759 225.12 25.9959 224.928C25.5279 224.724 25.1019 224.442 24.7179 224.082H24.6639L24.7359 225.738V228.69H23.2599ZM27.0759 223.974C27.8679 223.974 28.5159 223.668 29.0199 223.056C29.5239 222.444 29.7759 221.592 29.7759 220.5C29.7759 220.02 29.7279 219.582 29.6319 219.186C29.5359 218.79 29.3859 218.454 29.1819 218.178C28.9899 217.89 28.7379 217.668 28.4259 217.512C28.1139 217.356 27.7419 217.278 27.3099 217.278C26.9259 217.278 26.5119 217.386 26.0679 217.602C25.6359 217.806 25.1919 218.136 24.7359 218.592V222.948C25.1559 223.32 25.5759 223.584 25.9959 223.74C26.4159 223.896 26.7759 223.974 27.0759 223.974ZM35.0069 225V216.252H36.2309L36.3569 218.322H36.4109C36.8669 217.614 37.4249 217.056 38.0849 216.648C38.7569 216.24 39.5009 216.036 40.3169 216.036C40.6409 216.036 40.9409 216.066 41.2169 216.126C41.4929 216.174 41.7689 216.264 42.0449 216.396L41.7029 217.674C41.3909 217.566 41.1269 217.488 40.9109 217.44C40.7069 217.392 40.4309 217.368 40.0829 217.368C39.4229 217.368 38.7869 217.56 38.1749 217.944C37.5749 218.316 37.0109 218.958 36.4829 219.87V225H35.0069ZM48.8599 225V217.458H44.7919V216.252H50.3359V225H48.8599ZM49.4359 214.416C49.0999 214.416 48.8179 214.314 48.5899 214.11C48.3619 213.894 48.2479 213.612 48.2479 213.264C48.2479 212.916 48.3619 212.64 48.5899 212.436C48.8179 212.22 49.0999 212.112 49.4359 212.112C49.7719 212.112 50.0539 212.22 50.2819 212.436C50.5099 212.64 50.6239 212.916 50.6239 213.264C50.6239 213.612 50.5099 213.894 50.2819 214.11C50.0539 214.314 49.7719 214.416 49.4359 214.416ZM55.6388 225V216.252H56.8628L56.9888 217.746H57.0608C57.5168 217.254 58.0088 216.846 58.5368 216.522C59.0648 216.198 59.6708 216.036 60.3548 216.036C61.3988 216.036 62.1608 216.336 62.6408 216.936C63.1328 217.524 63.3788 218.4 63.3788 219.564V225H61.9028V219.762C61.9028 218.934 61.7468 218.322 61.4348 217.926C61.1228 217.518 60.6068 217.314 59.8868 217.314C59.6228 217.314 59.3768 217.35 59.1488 217.422C58.9328 217.482 58.7168 217.578 58.5008 217.71C58.2848 217.842 58.0628 218.01 57.8348 218.214C57.6068 218.406 57.3668 218.634 57.1148 218.898V225H55.6388ZM71.8498 225.216C71.2138 225.216 70.6798 225.132 70.2478 224.964C69.8158 224.784 69.4678 224.538 69.2038 224.226C68.9398 223.902 68.7478 223.518 68.6278 223.074C68.5198 222.63 68.4658 222.138 68.4658 221.598V217.458H65.9998V216.342L68.5198 216.252L68.7178 213.444H69.9418V216.252H74.2438V217.458H69.9418V221.616C69.9418 222.012 69.9778 222.36 70.0498 222.66C70.1218 222.948 70.2418 223.194 70.4098 223.398C70.5778 223.602 70.8058 223.758 71.0938 223.866C71.3818 223.962 71.7358 224.01 72.1558 224.01C72.5758 224.01 72.9538 223.974 73.2898 223.902C73.6258 223.83 73.9498 223.734 74.2618 223.614L74.5858 224.694C74.1898 224.838 73.7698 224.958 73.3258 225.054C72.8938 225.162 72.4018 225.216 71.8498 225.216ZM82.8768 225.216C81.9408 225.216 81.2268 224.952 80.7348 224.424C80.2428 223.896 79.9968 223.11 79.9968 222.066V213.39H76.8828V212.184H81.4728V222.174C81.4728 222.822 81.6288 223.29 81.9408 223.578C82.2528 223.854 82.6728 223.992 83.2008 223.992C83.7168 223.992 84.2628 223.86 84.8388 223.596L85.2168 224.694C84.8088 224.862 84.4368 224.988 84.1008 225.072C83.7648 225.168 83.3568 225.216 82.8768 225.216ZM88.0178 225V216.252H89.2418L89.3678 217.746H89.4398C89.8958 217.254 90.3878 216.846 90.9158 216.522C91.4438 216.198 92.0498 216.036 92.7338 216.036C93.7778 216.036 94.5398 216.336 95.0198 216.936C95.5118 217.524 95.7578 218.4 95.7578 219.564V225H94.2818V219.762C94.2818 218.934 94.1258 218.322 93.8138 217.926C93.5018 217.518 92.9858 217.314 92.2658 217.314C92.0018 217.314 91.7558 217.35 91.5278 217.422C91.3118 217.482 91.0958 217.578 90.8798 217.71C90.6638 217.842 90.4418 218.01 90.2138 218.214C89.9858 218.406 89.7458 218.634 89.4938 218.898V225H88.0178ZM102.033 220.824L101.853 214.632L101.817 212.94H103.257L103.221 214.632L103.041 220.824H102.033ZM102.537 225.216C102.177 225.216 101.865 225.09 101.601 224.838C101.349 224.586 101.223 224.244 101.223 223.812C101.223 223.392 101.349 223.062 101.601 222.822C101.865 222.57 102.177 222.444 102.537 222.444C102.897 222.444 103.203 222.57 103.455 222.822C103.719 223.062 103.851 223.392 103.851 223.812C103.851 224.244 103.719 224.586 103.455 224.838C103.203 225.09 102.897 225.216 102.537 225.216ZM115.724 228.168C114.476 227.196 113.486 226.026 112.754 224.658C112.034 223.29 111.674 221.736 111.674 219.996C111.674 218.256 112.034 216.702 112.754 215.334C113.486 213.966 114.476 212.796 115.724 211.824L116.534 212.58C115.322 213.6 114.428 214.71 113.852 215.91C113.288 217.11 113.006 218.472 113.006 219.996C113.006 221.52 113.288 222.882 113.852 224.082C114.428 225.282 115.322 226.392 116.534 227.412L115.724 228.168ZM121.567 218.664L121.117 214.614L121.081 212.634H123.061L123.025 214.614L122.575 218.664H121.567ZM125.689 218.664L125.239 214.614L125.203 212.634H127.183L127.147 214.614L126.697 218.664H125.689ZM137.454 227.736C136.89 227.736 136.398 227.694 135.978 227.61C135.558 227.538 135.21 227.412 134.934 227.232C134.658 227.052 134.454 226.806 134.322 226.494C134.19 226.194 134.124 225.81 134.124 225.342C134.124 225.018 134.13 224.712 134.142 224.424C134.166 224.124 134.184 223.836 134.196 223.56C134.22 223.284 134.238 223.008 134.25 222.732C134.274 222.456 134.286 222.168 134.286 221.868C134.286 221.688 134.25 221.52 134.178 221.364C134.106 221.196 133.974 221.046 133.782 220.914C133.59 220.782 133.32 220.674 132.972 220.59C132.636 220.506 132.204 220.464 131.676 220.464V219.528C132.204 219.528 132.636 219.486 132.972 219.402C133.32 219.318 133.59 219.21 133.782 219.078C133.974 218.946 134.106 218.802 134.178 218.646C134.25 218.478 134.286 218.304 134.286 218.124C134.286 217.548 134.256 216.984 134.196 216.432C134.148 215.868 134.124 215.274 134.124 214.65C134.124 214.182 134.19 213.798 134.322 213.498C134.454 213.186 134.658 212.94 134.934 212.76C135.21 212.58 135.558 212.454 135.978 212.382C136.398 212.298 136.89 212.256 137.454 212.256H138.552V213.102H137.616C137.16 213.102 136.782 213.132 136.482 213.192C136.194 213.252 135.966 213.348 135.798 213.48C135.642 213.612 135.534 213.786 135.474 214.002C135.414 214.206 135.384 214.452 135.384 214.74C135.384 215.256 135.402 215.79 135.438 216.342C135.474 216.882 135.492 217.434 135.492 217.998C135.492 218.586 135.372 219.036 135.132 219.348C134.904 219.648 134.478 219.852 133.854 219.96V220.032C134.478 220.14 134.904 220.35 135.132 220.662C135.372 220.962 135.492 221.406 135.492 221.994C135.492 222.606 135.474 223.164 135.438 223.668C135.402 224.172 135.384 224.7 135.384 225.252C135.384 225.54 135.414 225.786 135.474 225.99C135.534 226.206 135.642 226.38 135.798 226.512C135.966 226.644 136.194 226.74 136.482 226.8C136.782 226.86 137.16 226.89 137.616 226.89H138.552V227.736H137.454ZM142.091 227.736V226.89H143.009C143.465 226.89 143.837 226.86 144.125 226.8C144.425 226.74 144.659 226.644 144.827 226.512C144.995 226.38 145.109 226.206 145.169 225.99C145.229 225.786 145.259 225.54 145.259 225.252C145.259 224.7 145.241 224.172 145.205 223.668C145.169 223.164 145.151 222.606 145.151 221.994C145.151 221.406 145.265 220.962 145.493 220.662C145.721 220.35 146.147 220.14 146.771 220.032V219.96C146.147 219.852 145.721 219.648 145.493 219.348C145.265 219.036 145.151 218.586 145.151 217.998C145.151 217.434 145.169 216.882 145.205 216.342C145.241 215.79 145.259 215.256 145.259 214.74C145.259 214.452 145.229 214.206 145.169 214.002C145.109 213.786 144.995 213.612 144.827 213.48C144.659 213.348 144.425 213.252 144.125 213.192C143.837 213.132 143.465 213.102 143.009 213.102H142.091V212.256H143.189C143.753 212.256 144.239 212.298 144.647 212.382C145.067 212.454 145.415 212.58 145.691 212.76C145.967 212.94 146.171 213.186 146.303 213.498C146.435 213.798 146.501 214.182 146.501 214.65C146.501 215.274 146.471 215.868 146.411 216.432C146.363 216.984 146.339 217.548 146.339 218.124C146.339 218.304 146.375 218.478 146.447 218.646C146.519 218.802 146.651 218.946 146.843 219.078C147.035 219.21 147.299 219.318 147.635 219.402C147.983 219.486 148.421 219.528 148.949 219.528V220.464C148.421 220.464 147.983 220.506 147.635 220.59C147.299 220.674 147.035 220.782 146.843 220.914C146.651 221.046 146.519 221.196 146.447 221.364C146.375 221.52 146.339 221.688 146.339 221.868C146.339 222.168 146.345 222.456 146.357 222.732C146.381 223.008 146.399 223.284 146.411 223.56C146.435 223.836 146.453 224.124 146.465 224.424C146.489 224.712 146.501 225.018 146.501 225.342C146.501 225.81 146.435 226.194 146.303 226.494C146.171 226.806 145.967 227.052 145.691 227.232C145.415 227.412 145.067 227.538 144.647 227.61C144.239 227.694 143.753 227.736 143.189 227.736H142.091ZM153.946 218.664L153.496 214.614L153.46 212.634H155.44L155.404 214.614L154.954 218.664H153.946ZM158.068 218.664L157.618 214.614L157.582 212.634H159.562L159.526 214.614L159.076 218.664H158.068ZM165.855 228.834L165.441 227.898C166.185 227.562 166.743 227.154 167.115 226.674C167.487 226.206 167.685 225.612 167.709 224.892C167.649 224.916 167.589 224.928 167.529 224.928C167.481 224.928 167.427 224.928 167.367 224.928C166.983 224.928 166.653 224.82 166.377 224.604C166.101 224.376 165.963 224.034 165.963 223.578C165.963 223.134 166.107 222.798 166.395 222.57C166.683 222.33 167.019 222.21 167.403 222.21C167.943 222.21 168.345 222.42 168.609 222.84C168.885 223.248 169.023 223.806 169.023 224.514C169.023 225.57 168.741 226.458 168.177 227.178C167.625 227.91 166.851 228.462 165.855 228.834ZM184.632 225L187.962 220.464L184.884 216.252H186.522L187.908 218.178C188.064 218.418 188.226 218.664 188.394 218.916C188.574 219.168 188.754 219.414 188.934 219.654H189.006C189.174 219.414 189.342 219.162 189.51 218.898C189.678 218.634 189.84 218.382 189.996 218.142L191.31 216.252H192.876L189.762 220.59L193.11 225H191.49L189.96 222.984C189.78 222.732 189.588 222.468 189.384 222.192C189.192 221.916 189 221.652 188.808 221.4H188.736C188.556 221.664 188.376 221.928 188.196 222.192C188.016 222.444 187.836 222.708 187.656 222.984L186.216 225H184.632ZM197.279 228.168L196.469 227.412C197.681 226.392 198.569 225.282 199.133 224.082C199.709 222.882 199.997 221.52 199.997 219.996C199.997 218.472 199.709 217.11 199.133 215.91C198.569 214.71 197.681 213.6 196.469 212.58L197.279 211.824C198.527 212.796 199.511 213.966 200.231 215.334C200.963 216.702 201.329 218.256 201.329 219.996C201.329 221.736 200.963 223.29 200.231 224.658C199.511 226.026 198.527 227.196 197.279 228.168ZM210.466 218.772C210.058 218.772 209.71 218.634 209.422 218.358C209.146 218.082 209.008 217.716 209.008 217.26C209.008 216.804 209.146 216.438 209.422 216.162C209.71 215.874 210.058 215.73 210.466 215.73C210.874 215.73 211.216 215.874 211.492 216.162C211.78 216.438 211.924 216.804 211.924 217.26C211.924 217.716 211.78 218.082 211.492 218.358C211.216 218.634 210.874 218.772 210.466 218.772ZM209.026 228.834L208.612 227.898C209.356 227.562 209.914 227.154 210.286 226.674C210.658 226.206 210.856 225.612 210.88 224.892C210.82 224.916 210.76 224.928 210.7 224.928C210.652 224.928 210.598 224.928 210.538 224.928C210.154 224.928 209.824 224.82 209.548 224.604C209.272 224.376 209.134 224.034 209.134 223.578C209.134 223.134 209.278 222.798 209.566 222.57C209.854 222.33 210.19 222.21 210.574 222.21C211.114 222.21 211.516 222.42 211.78 222.84C212.056 223.248 212.194 223.806 212.194 224.514C212.194 225.57 211.912 226.458 211.348 227.178C210.796 227.91 210.022 228.462 209.026 228.834ZM228.434 227.88L234.338 212.22H235.67L229.766 227.88H228.434ZM239.227 227.88L245.131 212.22H246.463L240.559 227.88H239.227ZM260.597 225V213.192H263.513C265.301 213.192 266.657 213.696 267.581 214.704C268.517 215.712 268.985 217.158 268.985 219.042C268.985 220.926 268.517 222.39 267.581 223.434C266.657 224.478 265.325 225 263.585 225H260.597ZM262.091 223.776H263.405C264.761 223.776 265.769 223.362 266.429 222.534C267.101 221.706 267.437 220.542 267.437 219.042C267.437 217.542 267.101 216.396 266.429 215.604C265.769 214.812 264.761 214.416 263.405 214.416H262.091V223.776ZM1.782 250.736V249.89H2.7C3.156 249.89 3.528 249.86 3.816 249.8C4.116 249.74 4.35 249.644 4.518 249.512C4.686 249.38 4.8 249.206 4.86 248.99C4.92 248.786 4.95 248.54 4.95 248.252C4.95 247.7 4.932 247.172 4.896 246.668C4.86 246.164 4.842 245.606 4.842 244.994C4.842 244.406 4.956 243.962 5.184 243.662C5.412 243.35 5.838 243.14 6.462 243.032V242.96C5.838 242.852 5.412 242.648 5.184 242.348C4.956 242.036 4.842 241.586 4.842 240.998C4.842 240.434 4.86 239.882 4.896 239.342C4.932 238.79 4.95 238.256 4.95 237.74C4.95 237.452 4.92 237.206 4.86 237.002C4.8 236.786 4.686 236.612 4.518 236.48C4.35 236.348 4.116 236.252 3.816 236.192C3.528 236.132 3.156 236.102 2.7 236.102H1.782V235.256H2.88C3.444 235.256 3.93 235.298 4.338 235.382C4.758 235.454 5.106 235.58 5.382 235.76C5.658 235.94 5.862 236.186 5.994 236.498C6.126 236.798 6.192 237.182 6.192 237.65C6.192 238.274 6.162 238.868 6.102 239.432C6.054 239.984 6.03 240.548 6.03 241.124C6.03 241.304 6.066 241.478 6.138 241.646C6.21 241.802 6.342 241.946 6.534 242.078C6.726 242.21 6.99 242.318 7.326 242.402C7.674 242.486 8.112 242.528 8.64 242.528V243.464C8.112 243.464 7.674 243.506 7.326 243.59C6.99 243.674 6.726 243.782 6.534 243.914C6.342 244.046 6.21 244.196 6.138 244.364C6.066 244.52 6.03 244.688 6.03 244.868C6.03 245.168 6.036 245.456 6.048 245.732C6.072 246.008 6.09 246.284 6.102 246.56C6.126 246.836 6.144 247.124 6.156 247.424C6.18 247.712 6.192 248.018 6.192 248.342C6.192 248.81 6.126 249.194 5.994 249.494C5.862 249.806 5.658 250.052 5.382 250.232C5.106 250.412 4.758 250.538 4.338 250.61C3.93 250.694 3.444 250.736 2.88 250.736H1.782ZM23.3679 250.88L29.2719 235.22H30.6039L24.6999 250.88H23.3679ZM34.1609 250.88L40.0649 235.22H41.3969L35.4929 250.88H34.1609ZM56.0168 248V236.192H63.3248V237.452H57.5288V241.16H62.4248V242.438H57.5288V246.722H63.5048V248H56.0168Z" fill="black"/>
</svg>
